M48
;DRILL file {KiCad 4.0.4-stable} date 07/02/20 16:25:14
;FORMAT={-:-/ absolute / inch / decimal}
FMAT,2
INCH,TZ
T1C0.028
T2C0.030
T3C0.031
T4C0.035
T5C0.039
%
G90
G05
M72
T1
X1.225Y-2.25
X1.5Y-3.525
X1.5Y-3.825
X1.5Y-3.95
X1.5Y-4.25
X1.525Y-2.25
X1.625Y-3.525
X1.625Y-3.825
X1.625Y-3.95
X1.625Y-4.25
X3.1Y-2.95
X3.1Y-3.5
X3.1Y-4.075
X3.4Y-2.95
X3.4Y-3.5
X3.4Y-4.075
T2
X1.025Y-3.825
X1.025Y-4.025
X1.075Y-3.125
X1.075Y-3.425
X1.325Y-3.075
X1.325Y-3.35
X1.325Y-3.975
X1.325Y-4.325
X1.45Y-3.025
X1.45Y-3.325
X1.925Y-3.325
X1.925Y-3.775
X2.075Y-3.3
X2.075Y-3.725
X2.15Y-3.075
X2.15Y-3.55
X2.25Y-3.075
X2.25Y-3.25
X2.325Y-3.825
X2.325Y-4.4
X2.6Y-2.725
X2.6Y-2.85
X2.65Y-3.85
X2.825Y-3.55
X2.9Y-2.725
X2.9Y-2.85
X2.975Y-3.55
X2.975Y-3.85
X3.4Y-2.85
X3.4Y-3.6
X3.65Y-2.85
X3.65Y-3.6
T3
X1.2Y-2.725
X1.2Y-2.825
X1.2Y-2.925
X1.2Y-3.025
X1.2Y-3.125
X1.2Y-3.225
X1.2Y-3.325
X1.2Y-3.425
X1.2Y-3.525
X1.2Y-3.625
X1.2Y-3.725
X1.2Y-3.825
X1.2Y-3.925
X1.2Y-4.025
X1.8Y-2.725
X1.8Y-2.825
X1.8Y-2.925
X1.8Y-3.025
X1.8Y-3.125
X1.8Y-3.225
X1.8Y-3.325
X1.8Y-3.425
X1.8Y-3.525
X1.8Y-3.625
X1.8Y-3.725
X1.8Y-3.825
X1.8Y-3.925
X1.8Y-4.025
X1.8Y-4.125
X2.4Y-3.05
X2.4Y-3.15
X2.4Y-3.25
X2.4Y-3.35
X2.4Y-3.45
X2.4Y-3.55
X2.4Y-3.65
X2.4Y-3.75
X2.7Y-3.05
X2.7Y-3.15
X2.7Y-3.25
X2.7Y-3.35
X2.7Y-3.45
X2.7Y-3.55
X2.7Y-3.65
X2.7Y-3.75
T4
X1.7Y-2.25
X1.8Y-2.25
X3.2Y-2.725
X3.2Y-3.275
X3.2Y-3.85
X3.3Y-2.725
X3.3Y-3.275
X3.3Y-3.85
T5
X0.95Y-3.125
X0.95Y-3.225
X0.95Y-3.325
X0.95Y-3.425
X2.025Y-2.25
X2.025Y-4.275
X2.125Y-2.25
X2.125Y-2.9
X2.125Y-4.275
X2.225Y-2.25
X2.225Y-2.9
X2.225Y-4.275
X2.425Y-4.075
X2.475Y-2.35
X2.525Y-4.075
X2.525Y-4.275
X2.625Y-4.075
X2.625Y-4.275
X2.725Y-4.075
X2.725Y-4.275
X2.7742Y-2.35
X2.825Y-4.075
X2.825Y-4.275
X2.9Y-3.175
X2.925Y-4.075
X3.Y-3.175
X3.65Y-2.525
X3.65Y-2.625
X3.65Y-2.725
X3.65Y-3.175
X3.65Y-3.275
X3.65Y-3.375
X3.65Y-3.85
X3.65Y-3.95
X3.65Y-4.05
T3
X1.2Y-4.125G85X1.2Y-4.125
G05
T5
X3.015Y-2.3425G85X3.015Y-2.4213
G05
X3.2394Y-2.2638G85X3.1606Y-2.2638
G05
X3.2394Y-2.5G85X3.1606Y-2.5
G05
T0
M30
