G04 #@! TF.FileFunction,Copper,L2,Bot,Signal*
%FSLAX46Y46*%
G04 Gerber Fmt 4.6, Leading zero omitted, Abs format (unit mm)*
G04 Created by KiCad (PCBNEW 4.0.4-stable) date 07/02/20 16:23:59*
%MOMM*%
%LPD*%
G01*
G04 APERTURE LIST*
%ADD10C,0.100000*%
%ADD11O,2.413000X1.270000*%
%ADD12R,3.500000X3.500000*%
%ADD13O,1.510000X3.010000*%
%ADD14R,1.800000X1.800000*%
%ADD15C,1.800000*%
%ADD16O,3.010000X1.510000*%
%ADD17R,2.413000X1.524000*%
%ADD18O,2.413000X1.524000*%
%ADD19C,1.400000*%
%ADD20O,1.400000X1.400000*%
%ADD21R,2.000000X2.000000*%
%ADD22C,2.000000*%
%ADD23R,2.413000X1.270000*%
%ADD24R,1.500000X3.000000*%
%ADD25O,1.500000X3.000000*%
%ADD26C,1.524000*%
%ADD27C,0.304800*%
%ADD28C,0.508000*%
%ADD29C,0.635000*%
%ADD30C,0.254000*%
G04 APERTURE END LIST*
D10*
D11*
X30480000Y-104775000D03*
X45720000Y-104775000D03*
X30480000Y-102235000D03*
X45720000Y-102235000D03*
X30480000Y-99695000D03*
X45720000Y-99695000D03*
X30480000Y-97155000D03*
X45720000Y-97155000D03*
X30480000Y-94615000D03*
X45720000Y-94615000D03*
X30480000Y-92075000D03*
X45720000Y-92075000D03*
X30480000Y-89535000D03*
X45720000Y-89535000D03*
X30480000Y-86995000D03*
X45720000Y-86995000D03*
X30480000Y-84455000D03*
X45720000Y-84455000D03*
X30480000Y-81915000D03*
X45720000Y-81915000D03*
X30480000Y-79375000D03*
X45720000Y-79375000D03*
X30480000Y-76835000D03*
X45720000Y-76835000D03*
X30480000Y-74295000D03*
X45720000Y-74295000D03*
X30480000Y-71755000D03*
X45720000Y-71755000D03*
X30480000Y-69215000D03*
X45720000Y-69215000D03*
D12*
X81280000Y-63500000D03*
X81280000Y-57500000D03*
X76580000Y-60500000D03*
D13*
X76200000Y-80645000D03*
X73660000Y-80645000D03*
D14*
X83820000Y-97790000D03*
D15*
X81280000Y-97790000D03*
D16*
X92710000Y-85725000D03*
X92710000Y-83185000D03*
X92710000Y-80645000D03*
D13*
X74295000Y-103505000D03*
X71755000Y-103505000D03*
X69215000Y-103505000D03*
X66675000Y-103505000D03*
X64135000Y-103505000D03*
X61595000Y-103505000D03*
X56515000Y-57150000D03*
X53975000Y-57150000D03*
X51435000Y-57150000D03*
X51435000Y-108585000D03*
X53975000Y-108585000D03*
X56515000Y-108585000D03*
D17*
X24130000Y-79375000D03*
D18*
X24130000Y-81915000D03*
X24130000Y-84455000D03*
X24130000Y-86995000D03*
D16*
X92710000Y-102870000D03*
X92710000Y-100330000D03*
X92710000Y-97790000D03*
X92710000Y-69215000D03*
X92710000Y-66675000D03*
X92710000Y-64135000D03*
D13*
X56515000Y-73660000D03*
X53975000Y-73660000D03*
D19*
X38100000Y-107950000D03*
D20*
X38100000Y-100330000D03*
D19*
X41275000Y-100330000D03*
D20*
X41275000Y-107950000D03*
D19*
X86360000Y-103505000D03*
D20*
X78740000Y-103505000D03*
D19*
X78740000Y-88900000D03*
D20*
X86360000Y-88900000D03*
D19*
X86360000Y-74930000D03*
D20*
X78740000Y-74930000D03*
D19*
X41275000Y-89535000D03*
D20*
X41275000Y-97155000D03*
D19*
X38100000Y-89535000D03*
D20*
X38100000Y-97155000D03*
D21*
X62865000Y-59690000D03*
D22*
X70465000Y-59690000D03*
D23*
X68580000Y-95250000D03*
D11*
X60960000Y-77470000D03*
X68580000Y-92710000D03*
X60960000Y-80010000D03*
X68580000Y-90170000D03*
X60960000Y-82550000D03*
X68580000Y-87630000D03*
X60960000Y-85090000D03*
X68580000Y-85090000D03*
X60960000Y-87630000D03*
X68580000Y-82550000D03*
X60960000Y-90170000D03*
X68580000Y-80010000D03*
X60960000Y-92710000D03*
X68580000Y-77470000D03*
X60960000Y-95250000D03*
D14*
X83820000Y-83185000D03*
D15*
X81280000Y-83185000D03*
D14*
X83820000Y-69215000D03*
D15*
X81280000Y-69215000D03*
D14*
X43180000Y-57150000D03*
D15*
X45720000Y-57150000D03*
D19*
X38735000Y-57150000D03*
D20*
X31115000Y-57150000D03*
D24*
X71755000Y-108585000D03*
D25*
X69215000Y-108585000D03*
X66675000Y-108585000D03*
X64135000Y-108585000D03*
D26*
X52705000Y-94615000D03*
X52705000Y-83820000D03*
X75565000Y-97790000D03*
X67310000Y-97790000D03*
X48895000Y-95885000D03*
X48895000Y-84455000D03*
X73660000Y-72390000D03*
X66040000Y-72390000D03*
X92710000Y-91440000D03*
X86360000Y-91440000D03*
X92710000Y-72390000D03*
X66040000Y-69215000D03*
X73660000Y-69215000D03*
X86360000Y-72390000D03*
X36830000Y-84455000D03*
X36830000Y-76835000D03*
X27305000Y-86995000D03*
X27305000Y-79375000D03*
X26035000Y-97155000D03*
X26035000Y-102235000D03*
X59055000Y-97155000D03*
X59055000Y-111760000D03*
X33655000Y-109855000D03*
X33655000Y-100965000D03*
X33655000Y-85090000D03*
X33655000Y-78105000D03*
X71755000Y-90170000D03*
X75565000Y-90170000D03*
X57150000Y-78105000D03*
X57150000Y-82550000D03*
X54610000Y-90170000D03*
X54610000Y-78105000D03*
D27*
X41275000Y-100330000D02*
X41275000Y-103505000D01*
X41275000Y-103505000D02*
X42545000Y-104775000D01*
X45720000Y-104775000D02*
X42545000Y-104775000D01*
X53340000Y-100965000D02*
X66040000Y-100965000D01*
X66040000Y-100965000D02*
X66675000Y-101600000D01*
X66675000Y-103505000D02*
X66675000Y-108585000D01*
X66675000Y-103505000D02*
X66675000Y-101600000D01*
X52070000Y-102235000D02*
X45720000Y-102235000D01*
X53340000Y-100965000D02*
X52070000Y-102235000D01*
D28*
X69215000Y-103505000D02*
X69215000Y-108585000D01*
D29*
X24130000Y-62230000D02*
X24130000Y-62230000D01*
X24130000Y-86995000D02*
X22225000Y-86995000D01*
X22225000Y-86995000D02*
X21590000Y-86360000D01*
X21590000Y-86360000D02*
X21590000Y-72390000D01*
X21590000Y-72390000D02*
X23495000Y-70485000D01*
X23495000Y-70485000D02*
X24130000Y-69850000D01*
X24130000Y-69850000D02*
X24130000Y-67310000D01*
X24130000Y-67310000D02*
X24130000Y-62230000D01*
X68580000Y-87630000D02*
X68580000Y-85090000D01*
X68580000Y-85090000D02*
X60960000Y-85090000D01*
X60960000Y-85090000D02*
X60960000Y-87630000D01*
X40640000Y-97155000D02*
X45720000Y-97155000D01*
X38100000Y-97155000D02*
X38100000Y-97155000D01*
X38100000Y-97155000D02*
X40640000Y-97155000D01*
D27*
X45720000Y-94615000D02*
X52705000Y-94615000D01*
X66040000Y-80010000D02*
X65405000Y-80645000D01*
X65405000Y-80645000D02*
X65405000Y-83185000D01*
X65405000Y-83185000D02*
X64770000Y-83820000D01*
X64770000Y-83820000D02*
X59055000Y-83820000D01*
X66040000Y-80010000D02*
X68580000Y-80010000D01*
X59055000Y-83820000D02*
X52705000Y-83820000D01*
X65405000Y-94615000D02*
X66040000Y-95250000D01*
X66040000Y-95250000D02*
X66675000Y-95250000D01*
X64135000Y-93345000D02*
X64770000Y-93980000D01*
X64770000Y-93980000D02*
X65405000Y-94615000D01*
X41275000Y-89535000D02*
X41275000Y-91440000D01*
X41275000Y-91440000D02*
X41910000Y-92075000D01*
X49530000Y-92075000D02*
X45720000Y-92075000D01*
X50165000Y-91440000D02*
X49530000Y-92075000D01*
X63500000Y-91440000D02*
X50165000Y-91440000D01*
X64135000Y-92075000D02*
X63500000Y-91440000D01*
X64135000Y-93345000D02*
X64135000Y-92075000D01*
X68580000Y-95250000D02*
X66675000Y-95250000D01*
X41910000Y-92075000D02*
X45720000Y-92075000D01*
X68580000Y-92710000D02*
X66040000Y-92710000D01*
X49530000Y-89535000D02*
X45720000Y-89535000D01*
X50165000Y-88900000D02*
X49530000Y-89535000D01*
X64770000Y-88900000D02*
X50165000Y-88900000D01*
X65405000Y-89535000D02*
X64770000Y-88900000D01*
X65405000Y-90170000D02*
X65405000Y-89535000D01*
X65405000Y-92075000D02*
X65405000Y-90170000D01*
X66040000Y-92710000D02*
X65405000Y-92075000D01*
X38100000Y-89535000D02*
X38100000Y-87630000D01*
X38100000Y-87630000D02*
X38735000Y-86995000D01*
X38735000Y-86995000D02*
X45720000Y-86995000D01*
X56515000Y-81280000D02*
X51435000Y-81280000D01*
X50800000Y-81915000D02*
X50800000Y-83185000D01*
X51435000Y-81280000D02*
X50800000Y-81915000D01*
X45720000Y-86995000D02*
X49530000Y-86995000D01*
X63500000Y-77470000D02*
X60960000Y-77470000D01*
X64135000Y-78105000D02*
X63500000Y-77470000D01*
X64135000Y-80645000D02*
X64135000Y-78105000D01*
X63500000Y-81280000D02*
X64135000Y-80645000D01*
X56515000Y-81280000D02*
X63500000Y-81280000D01*
X50800000Y-85725000D02*
X50800000Y-83185000D01*
X49530000Y-86995000D02*
X50800000Y-85725000D01*
X63500000Y-94615000D02*
X64135000Y-95250000D01*
X64135000Y-95250000D02*
X64135000Y-97155000D01*
X51435000Y-96520000D02*
X55245000Y-96520000D01*
X64135000Y-97155000D02*
X64770000Y-97790000D01*
X62865000Y-93980000D02*
X63500000Y-94615000D01*
X62230000Y-93980000D02*
X62865000Y-93980000D01*
X57785000Y-93980000D02*
X62230000Y-93980000D01*
X55245000Y-96520000D02*
X57785000Y-93980000D01*
X67310000Y-97790000D02*
X64770000Y-97790000D01*
X76835000Y-102235000D02*
X76835000Y-100330000D01*
X76835000Y-100330000D02*
X75565000Y-99060000D01*
X75565000Y-97790000D02*
X75565000Y-99060000D01*
X86360000Y-106045000D02*
X86360000Y-104140000D01*
X85725000Y-106680000D02*
X86360000Y-106045000D01*
X78105000Y-106680000D02*
X85725000Y-106680000D01*
X77470000Y-106680000D02*
X78105000Y-106680000D01*
X76835000Y-106045000D02*
X77470000Y-106680000D01*
X76835000Y-102235000D02*
X76835000Y-106045000D01*
X45720000Y-84455000D02*
X48895000Y-84455000D01*
X50800000Y-95885000D02*
X51435000Y-96520000D01*
X48895000Y-95885000D02*
X50800000Y-95885000D01*
X87630000Y-102870000D02*
X92710000Y-102870000D01*
X86360000Y-104140000D02*
X87630000Y-102870000D01*
X51435000Y-80010000D02*
X50165000Y-80010000D01*
X50165000Y-80010000D02*
X48260000Y-81915000D01*
X60960000Y-80010000D02*
X51435000Y-80010000D01*
X48260000Y-81915000D02*
X45720000Y-81915000D01*
X35560000Y-87630000D02*
X36195000Y-86995000D01*
X36830000Y-86360000D02*
X37465000Y-85725000D01*
X36195000Y-86995000D02*
X36830000Y-86360000D01*
X37465000Y-85725000D02*
X37465000Y-85725000D01*
X35560000Y-92710000D02*
X35560000Y-87630000D01*
X42545000Y-80010000D02*
X43180000Y-79375000D01*
X42545000Y-84455000D02*
X42545000Y-80010000D01*
X41275000Y-85725000D02*
X42545000Y-84455000D01*
X37465000Y-85725000D02*
X37465000Y-85725000D01*
X37465000Y-85725000D02*
X41275000Y-85725000D01*
X60960000Y-92710000D02*
X52070000Y-92710000D01*
X43180000Y-79375000D02*
X45720000Y-79375000D01*
X36195000Y-93345000D02*
X35560000Y-92710000D01*
X50165000Y-93345000D02*
X36195000Y-93345000D01*
X50800000Y-92710000D02*
X50165000Y-93345000D01*
X52070000Y-92710000D02*
X50800000Y-92710000D01*
X73660000Y-72390000D02*
X73660000Y-76835000D01*
X73660000Y-76835000D02*
X74295000Y-77470000D01*
X85725000Y-77470000D02*
X86360000Y-78105000D01*
X74295000Y-77470000D02*
X85725000Y-77470000D01*
X86360000Y-78105000D02*
X86360000Y-79375000D01*
X66040000Y-72390000D02*
X65405000Y-72390000D01*
X64135000Y-71120000D02*
X63500000Y-71120000D01*
X65405000Y-72390000D02*
X64135000Y-71120000D01*
X52705000Y-71120000D02*
X63500000Y-71120000D01*
X52070000Y-71120000D02*
X51435000Y-71755000D01*
X52705000Y-71120000D02*
X52070000Y-71120000D01*
X50800000Y-76835000D02*
X51435000Y-76200000D01*
X50800000Y-76835000D02*
X45720000Y-76835000D01*
X51435000Y-71755000D02*
X51435000Y-76200000D01*
X86360000Y-88900000D02*
X86360000Y-79375000D01*
X86360000Y-88900000D02*
X86360000Y-91440000D01*
X92710000Y-91440000D02*
X92710000Y-85725000D01*
X77470000Y-67945000D02*
X78740000Y-66675000D01*
X85725000Y-66675000D02*
X86360000Y-67310000D01*
X78740000Y-66675000D02*
X85725000Y-66675000D01*
X86360000Y-74930000D02*
X86360000Y-73660000D01*
X86360000Y-73660000D02*
X86360000Y-71755000D01*
X76835000Y-68580000D02*
X77470000Y-67945000D01*
X86360000Y-71755000D02*
X86360000Y-67310000D01*
X76200000Y-69215000D02*
X73660000Y-69215000D01*
X76835000Y-68580000D02*
X76200000Y-69215000D01*
X86360000Y-72390000D02*
X86360000Y-71755000D01*
X49530000Y-74295000D02*
X50165000Y-73660000D01*
X50800000Y-69215000D02*
X51435000Y-69215000D01*
X50165000Y-69850000D02*
X50800000Y-69215000D01*
X50165000Y-73660000D02*
X50165000Y-69850000D01*
X45720000Y-74295000D02*
X49530000Y-74295000D01*
X51435000Y-69215000D02*
X66040000Y-69215000D01*
X92710000Y-69215000D02*
X92710000Y-69215000D01*
X92710000Y-69215000D02*
X92710000Y-71755000D01*
X92710000Y-72390000D02*
X92710000Y-71755000D01*
D29*
X68580000Y-67310000D02*
X68580000Y-66675000D01*
X68580000Y-66675000D02*
X69850000Y-65405000D01*
X68580000Y-76200000D02*
X68580000Y-67310000D01*
X78105000Y-64770000D02*
X71120000Y-64770000D01*
X70485000Y-64770000D02*
X69850000Y-65405000D01*
X71120000Y-64770000D02*
X70485000Y-64770000D01*
X34290000Y-95250000D02*
X34290000Y-97155000D01*
X35560000Y-104775000D02*
X34290000Y-104775000D01*
X36195000Y-104140000D02*
X35560000Y-104775000D01*
X36195000Y-99060000D02*
X36195000Y-104140000D01*
X34290000Y-97155000D02*
X36195000Y-99060000D01*
X34290000Y-94615000D02*
X34290000Y-95250000D01*
X34290000Y-104775000D02*
X32385000Y-104775000D01*
X30480000Y-104775000D02*
X32385000Y-104775000D01*
X36830000Y-84455000D02*
X35560000Y-85725000D01*
X35560000Y-85725000D02*
X34290000Y-86995000D01*
X37465000Y-76835000D02*
X38100000Y-76200000D01*
X36830000Y-76835000D02*
X37465000Y-76835000D01*
X34290000Y-86995000D02*
X34290000Y-94615000D01*
X81280000Y-63500000D02*
X79375000Y-63500000D01*
X79375000Y-63500000D02*
X78105000Y-64770000D01*
X38100000Y-76200000D02*
X38100000Y-76200000D01*
X39370000Y-67310000D02*
X39370000Y-67310000D01*
X38100000Y-68580000D02*
X39370000Y-67310000D01*
X38100000Y-68580000D02*
X38100000Y-68580000D01*
X38100000Y-76200000D02*
X38100000Y-68580000D01*
X68580000Y-67310000D02*
X39370000Y-67310000D01*
X68580000Y-76200000D02*
X68580000Y-77470000D01*
D27*
X78740000Y-103505000D02*
X78740000Y-99060000D01*
X80010000Y-97790000D02*
X81280000Y-97790000D01*
X78740000Y-99060000D02*
X80010000Y-97790000D01*
X78740000Y-88900000D02*
X78740000Y-84455000D01*
X80010000Y-83185000D02*
X81280000Y-83185000D01*
X78740000Y-84455000D02*
X80010000Y-83185000D01*
X78740000Y-74930000D02*
X78740000Y-70485000D01*
X80010000Y-69215000D02*
X81280000Y-69215000D01*
X78740000Y-70485000D02*
X80010000Y-69215000D01*
D29*
X71755000Y-103505000D02*
X71755000Y-100965000D01*
X74295000Y-93980000D02*
X89217500Y-93980000D01*
X73025000Y-95250000D02*
X74295000Y-93980000D01*
X73025000Y-99695000D02*
X73025000Y-95250000D01*
X71755000Y-100965000D02*
X73025000Y-99695000D01*
X89217500Y-93980000D02*
X88900000Y-93980000D01*
X88900000Y-93980000D02*
X89217500Y-93980000D01*
X89217500Y-83185000D02*
X89217500Y-93980000D01*
X89217500Y-93980000D02*
X89217500Y-99377500D01*
X90170000Y-100330000D02*
X92710000Y-100330000D01*
X89535000Y-99695000D02*
X90170000Y-100330000D01*
X89217500Y-99377500D02*
X89535000Y-99695000D01*
X89217500Y-67627500D02*
X89217500Y-83185000D01*
X89217500Y-83185000D02*
X89535000Y-83185000D01*
X24130000Y-79375000D02*
X27305000Y-79375000D01*
X27305000Y-86995000D02*
X27305000Y-90170000D01*
X27305000Y-90170000D02*
X26035000Y-92075000D01*
X26035000Y-92075000D02*
X26035000Y-97155000D01*
X29845000Y-111125000D02*
X30480000Y-111760000D01*
X29845000Y-107950000D02*
X29845000Y-111125000D01*
X26035000Y-104140000D02*
X29845000Y-107950000D01*
X26035000Y-102235000D02*
X26035000Y-104140000D01*
X53975000Y-111760000D02*
X30480000Y-111760000D01*
D28*
X71755000Y-103505000D02*
X71755000Y-108585000D01*
X71755000Y-108585000D02*
X71755000Y-111125000D01*
X71120000Y-111760000D02*
X59055000Y-111760000D01*
X71755000Y-111125000D02*
X71120000Y-111760000D01*
X45720000Y-57150000D02*
X45720000Y-62230000D01*
D29*
X53975000Y-108585000D02*
X53975000Y-111760000D01*
X59055000Y-111760000D02*
X53975000Y-111760000D01*
X46990000Y-62230000D02*
X53340000Y-62230000D01*
X53975000Y-61595000D02*
X53975000Y-57150000D01*
X53340000Y-62230000D02*
X53975000Y-61595000D01*
X46990000Y-62230000D02*
X45720000Y-62230000D01*
X45720000Y-62230000D02*
X45085000Y-62230000D01*
X90170000Y-66675000D02*
X92710000Y-66675000D01*
X89217500Y-67627500D02*
X90170000Y-66675000D01*
X90170000Y-83185000D02*
X92710000Y-83185000D01*
X89535000Y-83185000D02*
X90170000Y-83185000D01*
X34925000Y-62230000D02*
X45085000Y-62230000D01*
X24130000Y-79375000D02*
X24130000Y-73660000D01*
X24130000Y-73660000D02*
X26035000Y-71755000D01*
X26035000Y-62865000D02*
X26670000Y-62230000D01*
X26670000Y-62230000D02*
X30480000Y-62230000D01*
X30480000Y-62230000D02*
X34925000Y-62230000D01*
X26035000Y-71755000D02*
X26035000Y-63500000D01*
X26035000Y-63500000D02*
X26035000Y-62865000D01*
X59055000Y-97155000D02*
X59055000Y-97155000D01*
X59055000Y-97155000D02*
X60960000Y-95250000D01*
X59055000Y-111760000D02*
X59055000Y-111760000D01*
X26035000Y-97155000D02*
X30480000Y-97155000D01*
D27*
X50165000Y-104775000D02*
X49530000Y-104775000D01*
X48895000Y-107315000D02*
X48260000Y-107950000D01*
X48895000Y-105410000D02*
X48895000Y-107315000D01*
X49530000Y-104775000D02*
X48895000Y-105410000D01*
X47625000Y-107950000D02*
X48260000Y-107950000D01*
X47625000Y-107950000D02*
X40640000Y-107950000D01*
X64135000Y-108585000D02*
X59690000Y-108585000D01*
X59055000Y-105410000D02*
X58420000Y-104775000D01*
X58420000Y-104775000D02*
X50165000Y-104775000D01*
X59055000Y-107950000D02*
X59055000Y-105410000D01*
X59690000Y-108585000D02*
X59055000Y-107950000D01*
X64135000Y-103505000D02*
X64135000Y-108585000D01*
X38100000Y-107950000D02*
X41275000Y-107950000D01*
X49530000Y-63500000D02*
X55880000Y-63500000D01*
X56515000Y-62865000D02*
X56515000Y-57150000D01*
X55880000Y-63500000D02*
X56515000Y-62865000D01*
X49530000Y-63500000D02*
X48260000Y-63500000D01*
X28575000Y-63500000D02*
X48260000Y-63500000D01*
X27305000Y-64770000D02*
X28575000Y-63500000D01*
X27305000Y-75565000D02*
X27305000Y-64770000D01*
X28575000Y-76835000D02*
X27305000Y-75565000D01*
X30480000Y-76835000D02*
X28575000Y-76835000D01*
X33655000Y-99060000D02*
X33020000Y-98425000D01*
X33020000Y-98425000D02*
X33020000Y-97790000D01*
X33655000Y-100965000D02*
X33655000Y-99695000D01*
X33655000Y-99695000D02*
X33655000Y-99060000D01*
X33655000Y-85090000D02*
X33020000Y-85725000D01*
X30480000Y-79375000D02*
X32385000Y-79375000D01*
X33655000Y-109855000D02*
X50800000Y-109855000D01*
X33020000Y-85725000D02*
X33020000Y-97790000D01*
X32385000Y-79375000D02*
X33655000Y-78105000D01*
X50800000Y-109855000D02*
X51435000Y-109220000D01*
X31115000Y-79375000D02*
X30480000Y-79375000D01*
X35560000Y-80645000D02*
X40005000Y-76200000D01*
X31750000Y-80645000D02*
X35560000Y-80645000D01*
X24130000Y-81915000D02*
X27305000Y-81915000D01*
X40640000Y-69215000D02*
X45720000Y-69215000D01*
X40005000Y-69850000D02*
X40640000Y-69215000D01*
X40005000Y-76200000D02*
X40005000Y-69850000D01*
X28575000Y-80645000D02*
X31750000Y-80645000D01*
X27305000Y-81915000D02*
X28575000Y-80645000D01*
X35560000Y-83185000D02*
X36195000Y-82550000D01*
X36195000Y-82550000D02*
X36195000Y-82550000D01*
X36195000Y-82550000D02*
X36195000Y-82550000D01*
X36195000Y-82550000D02*
X41275000Y-77470000D01*
X31750000Y-83185000D02*
X35560000Y-83185000D01*
X24130000Y-84455000D02*
X27305000Y-84455000D01*
X41910000Y-71755000D02*
X45720000Y-71755000D01*
X41275000Y-72390000D02*
X41910000Y-71755000D01*
X41275000Y-77470000D02*
X41275000Y-72390000D01*
X28575000Y-83185000D02*
X31750000Y-83185000D01*
X27305000Y-84455000D02*
X28575000Y-83185000D01*
X76200000Y-80645000D02*
X76200000Y-82550000D01*
X75565000Y-90170000D02*
X75565000Y-83185000D01*
X71755000Y-90170000D02*
X68580000Y-90170000D01*
X75565000Y-83185000D02*
X76200000Y-82550000D01*
X73025000Y-82550000D02*
X73660000Y-81915000D01*
X73660000Y-81915000D02*
X73660000Y-80645000D01*
X71755000Y-82550000D02*
X73025000Y-82550000D01*
X71755000Y-82550000D02*
X71120000Y-82550000D01*
X68580000Y-82550000D02*
X71120000Y-82550000D01*
X56515000Y-73660000D02*
X56515000Y-76835000D01*
X57150000Y-78105000D02*
X56515000Y-76835000D01*
X57150000Y-82550000D02*
X60960000Y-82550000D01*
X53975000Y-73660000D02*
X53975000Y-76835000D01*
X54610000Y-78105000D02*
X53975000Y-76835000D01*
X54610000Y-90170000D02*
X60960000Y-90170000D01*
X54610000Y-64770000D02*
X61595000Y-64770000D01*
X62865000Y-63500000D02*
X62865000Y-59690000D01*
X61595000Y-64770000D02*
X62865000Y-63500000D01*
X54610000Y-64770000D02*
X53340000Y-64770000D01*
X53340000Y-64770000D02*
X51435000Y-64770000D01*
X30480000Y-69215000D02*
X30480000Y-66040000D01*
X31750000Y-64770000D02*
X51435000Y-64770000D01*
X30480000Y-66040000D02*
X31750000Y-64770000D01*
D28*
X43180000Y-57150000D02*
X38735000Y-57150000D01*
D30*
G36*
X96290000Y-113290000D02*
X20710000Y-113290000D01*
X20710000Y-109442619D01*
X22764613Y-109442619D01*
X23104155Y-110264372D01*
X23732321Y-110893636D01*
X24553481Y-111234611D01*
X25442619Y-111235387D01*
X26264372Y-110895845D01*
X26893636Y-110267679D01*
X27234611Y-109446519D01*
X27235387Y-108557381D01*
X26895845Y-107735628D01*
X26267679Y-107106364D01*
X25446519Y-106765389D01*
X24557381Y-106764613D01*
X23735628Y-107104155D01*
X23106364Y-107732321D01*
X22765389Y-108553481D01*
X22764613Y-109442619D01*
X20710000Y-109442619D01*
X20710000Y-102511661D01*
X24637758Y-102511661D01*
X24849990Y-103025303D01*
X25082500Y-103258219D01*
X25082500Y-104140000D01*
X25155005Y-104504506D01*
X25361481Y-104813519D01*
X28892500Y-108344538D01*
X28892500Y-111125000D01*
X28965005Y-111489506D01*
X29171481Y-111798519D01*
X29806481Y-112433519D01*
X30115494Y-112639995D01*
X30480000Y-112712500D01*
X58031904Y-112712500D01*
X58262630Y-112943629D01*
X58775900Y-113156757D01*
X59331661Y-113157242D01*
X59845303Y-112945010D01*
X60141830Y-112649000D01*
X71120000Y-112649000D01*
X71460206Y-112581329D01*
X71748618Y-112388618D01*
X72383618Y-111753618D01*
X72576330Y-111465205D01*
X72644000Y-111125000D01*
X72644000Y-110706285D01*
X72740317Y-110688162D01*
X72956441Y-110549090D01*
X73101431Y-110336890D01*
X73152440Y-110085000D01*
X73152440Y-109442619D01*
X89764613Y-109442619D01*
X90104155Y-110264372D01*
X90732321Y-110893636D01*
X91553481Y-111234611D01*
X92442619Y-111235387D01*
X93264372Y-110895845D01*
X93893636Y-110267679D01*
X94234611Y-109446519D01*
X94235387Y-108557381D01*
X93895845Y-107735628D01*
X93267679Y-107106364D01*
X92446519Y-106765389D01*
X91557381Y-106764613D01*
X90735628Y-107104155D01*
X90106364Y-107732321D01*
X89765389Y-108553481D01*
X89764613Y-109442619D01*
X73152440Y-109442619D01*
X73152440Y-107085000D01*
X73108162Y-106849683D01*
X72969090Y-106633559D01*
X72756890Y-106488569D01*
X72644000Y-106465708D01*
X72644000Y-105342531D01*
X72737878Y-105279803D01*
X73025000Y-104850096D01*
X73312122Y-105279803D01*
X73763070Y-105581118D01*
X74295000Y-105686925D01*
X74826930Y-105581118D01*
X75277878Y-105279803D01*
X75579193Y-104828855D01*
X75685000Y-104296925D01*
X75685000Y-102713075D01*
X75579193Y-102181145D01*
X75277878Y-101730197D01*
X74826930Y-101428882D01*
X74295000Y-101323075D01*
X73763070Y-101428882D01*
X73312122Y-101730197D01*
X73025000Y-102159904D01*
X72737878Y-101730197D01*
X72707500Y-101709899D01*
X72707500Y-101359538D01*
X73698519Y-100368519D01*
X73904995Y-100059506D01*
X73977500Y-99695000D01*
X73977500Y-95644538D01*
X74689538Y-94932500D01*
X88265000Y-94932500D01*
X88265000Y-99377500D01*
X88337505Y-99742006D01*
X88543981Y-100051019D01*
X89496481Y-101003519D01*
X89805494Y-101209995D01*
X90170000Y-101282500D01*
X90914899Y-101282500D01*
X90935197Y-101312878D01*
X91364904Y-101600000D01*
X90935197Y-101887122D01*
X90804582Y-102082600D01*
X87630000Y-102082600D01*
X87328675Y-102142537D01*
X87073224Y-102313224D01*
X87043253Y-102343195D01*
X86626713Y-102170232D01*
X86095617Y-102169769D01*
X85604771Y-102372582D01*
X85228902Y-102747796D01*
X85025232Y-103238287D01*
X85024769Y-103769383D01*
X85227582Y-104260229D01*
X85572600Y-104605849D01*
X85572600Y-105718848D01*
X85398848Y-105892600D01*
X77796152Y-105892600D01*
X77622400Y-105718848D01*
X77622400Y-104228301D01*
X77769858Y-104448988D01*
X78202964Y-104738379D01*
X78713846Y-104840000D01*
X78766154Y-104840000D01*
X79277036Y-104738379D01*
X79710142Y-104448988D01*
X79999533Y-104015882D01*
X80101154Y-103505000D01*
X79999533Y-102994118D01*
X79710142Y-102561012D01*
X79527400Y-102438908D01*
X79527400Y-99386152D01*
X80116435Y-98797117D01*
X80409357Y-99090551D01*
X80973330Y-99324733D01*
X81583991Y-99325265D01*
X82148371Y-99092068D01*
X82325841Y-98914908D01*
X82381673Y-99049699D01*
X82560302Y-99228327D01*
X82793691Y-99325000D01*
X83534250Y-99325000D01*
X83693000Y-99166250D01*
X83693000Y-97917000D01*
X83947000Y-97917000D01*
X83947000Y-99166250D01*
X84105750Y-99325000D01*
X84846309Y-99325000D01*
X85079698Y-99228327D01*
X85258327Y-99049699D01*
X85355000Y-98816310D01*
X85355000Y-98075750D01*
X85196250Y-97917000D01*
X83947000Y-97917000D01*
X83693000Y-97917000D01*
X83673000Y-97917000D01*
X83673000Y-97663000D01*
X83693000Y-97663000D01*
X83693000Y-96413750D01*
X83947000Y-96413750D01*
X83947000Y-97663000D01*
X85196250Y-97663000D01*
X85355000Y-97504250D01*
X85355000Y-96763690D01*
X85258327Y-96530301D01*
X85079698Y-96351673D01*
X84846309Y-96255000D01*
X84105750Y-96255000D01*
X83947000Y-96413750D01*
X83693000Y-96413750D01*
X83534250Y-96255000D01*
X82793691Y-96255000D01*
X82560302Y-96351673D01*
X82381673Y-96530301D01*
X82325881Y-96664994D01*
X82150643Y-96489449D01*
X81586670Y-96255267D01*
X80976009Y-96254735D01*
X80411629Y-96487932D01*
X79979449Y-96919357D01*
X79939021Y-97016719D01*
X79708675Y-97062537D01*
X79453224Y-97233224D01*
X78183224Y-98503224D01*
X78012537Y-98758675D01*
X77952600Y-99060000D01*
X77952600Y-102438908D01*
X77769858Y-102561012D01*
X77622400Y-102781699D01*
X77622400Y-100330000D01*
X77562463Y-100028675D01*
X77391776Y-99773224D01*
X76474536Y-98855984D01*
X76748629Y-98582370D01*
X76961757Y-98069100D01*
X76962242Y-97513339D01*
X76750010Y-96999697D01*
X76357370Y-96606371D01*
X75844100Y-96393243D01*
X75288339Y-96392758D01*
X74774697Y-96604990D01*
X74381371Y-96997630D01*
X74168243Y-97510900D01*
X74167758Y-98066661D01*
X74379990Y-98580303D01*
X74772630Y-98973629D01*
X74777600Y-98975693D01*
X74777600Y-99060000D01*
X74837537Y-99361325D01*
X75008224Y-99616776D01*
X76047600Y-100656152D01*
X76047600Y-106045000D01*
X76107537Y-106346325D01*
X76278224Y-106601776D01*
X76913224Y-107236776D01*
X77168675Y-107407463D01*
X77470000Y-107467400D01*
X85725000Y-107467400D01*
X86026325Y-107407463D01*
X86281776Y-107236776D01*
X86916776Y-106601776D01*
X87087463Y-106346325D01*
X87147400Y-106045000D01*
X87147400Y-104605303D01*
X87491098Y-104262204D01*
X87590334Y-104023218D01*
X87956152Y-103657400D01*
X90804582Y-103657400D01*
X90935197Y-103852878D01*
X91386145Y-104154193D01*
X91918075Y-104260000D01*
X93501925Y-104260000D01*
X94033855Y-104154193D01*
X94484803Y-103852878D01*
X94786118Y-103401930D01*
X94891925Y-102870000D01*
X94786118Y-102338070D01*
X94484803Y-101887122D01*
X94055096Y-101600000D01*
X94484803Y-101312878D01*
X94786118Y-100861930D01*
X94891925Y-100330000D01*
X94786118Y-99798070D01*
X94484803Y-99347122D01*
X94036013Y-99047249D01*
X94109263Y-99025592D01*
X94532681Y-98683076D01*
X94792793Y-98204597D01*
X94807277Y-98131971D01*
X94684683Y-97917000D01*
X92837000Y-97917000D01*
X92837000Y-97937000D01*
X92583000Y-97937000D01*
X92583000Y-97917000D01*
X90735317Y-97917000D01*
X90612723Y-98131971D01*
X90627207Y-98204597D01*
X90887319Y-98683076D01*
X91310737Y-99025592D01*
X91383987Y-99047249D01*
X90935197Y-99347122D01*
X90914899Y-99377500D01*
X90564538Y-99377500D01*
X90170000Y-98982962D01*
X90170000Y-97448029D01*
X90612723Y-97448029D01*
X90735317Y-97663000D01*
X92583000Y-97663000D01*
X92583000Y-96400000D01*
X92837000Y-96400000D01*
X92837000Y-97663000D01*
X94684683Y-97663000D01*
X94807277Y-97448029D01*
X94792793Y-97375403D01*
X94532681Y-96896924D01*
X94109263Y-96554408D01*
X93587000Y-96400000D01*
X92837000Y-96400000D01*
X92583000Y-96400000D01*
X91833000Y-96400000D01*
X91310737Y-96554408D01*
X90887319Y-96896924D01*
X90627207Y-97375403D01*
X90612723Y-97448029D01*
X90170000Y-97448029D01*
X90170000Y-84137500D01*
X90914899Y-84137500D01*
X90935197Y-84167878D01*
X91364904Y-84455000D01*
X90935197Y-84742122D01*
X90633882Y-85193070D01*
X90528075Y-85725000D01*
X90633882Y-86256930D01*
X90935197Y-86707878D01*
X91386145Y-87009193D01*
X91918075Y-87115000D01*
X91922600Y-87115000D01*
X91922600Y-90253791D01*
X91919697Y-90254990D01*
X91526371Y-90647630D01*
X91313243Y-91160900D01*
X91312758Y-91716661D01*
X91524990Y-92230303D01*
X91917630Y-92623629D01*
X92430900Y-92836757D01*
X92986661Y-92837242D01*
X93500303Y-92625010D01*
X93893629Y-92232370D01*
X94106757Y-91719100D01*
X94107242Y-91163339D01*
X93895010Y-90649697D01*
X93502370Y-90256371D01*
X93497400Y-90254307D01*
X93497400Y-87115000D01*
X93501925Y-87115000D01*
X94033855Y-87009193D01*
X94484803Y-86707878D01*
X94786118Y-86256930D01*
X94891925Y-85725000D01*
X94786118Y-85193070D01*
X94484803Y-84742122D01*
X94055096Y-84455000D01*
X94484803Y-84167878D01*
X94786118Y-83716930D01*
X94891925Y-83185000D01*
X94786118Y-82653070D01*
X94484803Y-82202122D01*
X94036013Y-81902249D01*
X94109263Y-81880592D01*
X94532681Y-81538076D01*
X94792793Y-81059597D01*
X94807277Y-80986971D01*
X94684683Y-80772000D01*
X92837000Y-80772000D01*
X92837000Y-80792000D01*
X92583000Y-80792000D01*
X92583000Y-80772000D01*
X90735317Y-80772000D01*
X90612723Y-80986971D01*
X90627207Y-81059597D01*
X90887319Y-81538076D01*
X91310737Y-81880592D01*
X91383987Y-81902249D01*
X90935197Y-82202122D01*
X90914899Y-82232500D01*
X90170000Y-82232500D01*
X90170000Y-80303029D01*
X90612723Y-80303029D01*
X90735317Y-80518000D01*
X92583000Y-80518000D01*
X92583000Y-79255000D01*
X92837000Y-79255000D01*
X92837000Y-80518000D01*
X94684683Y-80518000D01*
X94807277Y-80303029D01*
X94792793Y-80230403D01*
X94532681Y-79751924D01*
X94109263Y-79409408D01*
X93587000Y-79255000D01*
X92837000Y-79255000D01*
X92583000Y-79255000D01*
X91833000Y-79255000D01*
X91310737Y-79409408D01*
X90887319Y-79751924D01*
X90627207Y-80230403D01*
X90612723Y-80303029D01*
X90170000Y-80303029D01*
X90170000Y-68022038D01*
X90564539Y-67627500D01*
X90914899Y-67627500D01*
X90935197Y-67657878D01*
X91364904Y-67945000D01*
X90935197Y-68232122D01*
X90633882Y-68683070D01*
X90528075Y-69215000D01*
X90633882Y-69746930D01*
X90935197Y-70197878D01*
X91386145Y-70499193D01*
X91918075Y-70605000D01*
X91922600Y-70605000D01*
X91922600Y-71203791D01*
X91919697Y-71204990D01*
X91526371Y-71597630D01*
X91313243Y-72110900D01*
X91312758Y-72666661D01*
X91524990Y-73180303D01*
X91917630Y-73573629D01*
X92430900Y-73786757D01*
X92986661Y-73787242D01*
X93500303Y-73575010D01*
X93893629Y-73182370D01*
X94106757Y-72669100D01*
X94107242Y-72113339D01*
X93895010Y-71599697D01*
X93502370Y-71206371D01*
X93497400Y-71204307D01*
X93497400Y-70605000D01*
X93501925Y-70605000D01*
X94033855Y-70499193D01*
X94484803Y-70197878D01*
X94786118Y-69746930D01*
X94891925Y-69215000D01*
X94786118Y-68683070D01*
X94484803Y-68232122D01*
X94055096Y-67945000D01*
X94484803Y-67657878D01*
X94786118Y-67206930D01*
X94891925Y-66675000D01*
X94786118Y-66143070D01*
X94484803Y-65692122D01*
X94036013Y-65392249D01*
X94109263Y-65370592D01*
X94532681Y-65028076D01*
X94792793Y-64549597D01*
X94807277Y-64476971D01*
X94684683Y-64262000D01*
X92837000Y-64262000D01*
X92837000Y-64282000D01*
X92583000Y-64282000D01*
X92583000Y-64262000D01*
X90735317Y-64262000D01*
X90612723Y-64476971D01*
X90627207Y-64549597D01*
X90887319Y-65028076D01*
X91310737Y-65370592D01*
X91383987Y-65392249D01*
X90935197Y-65692122D01*
X90914899Y-65722500D01*
X90170000Y-65722500D01*
X89805494Y-65795005D01*
X89496480Y-66001481D01*
X88543981Y-66953981D01*
X88337505Y-67262994D01*
X88265000Y-67627500D01*
X88265000Y-93027500D01*
X74295000Y-93027500D01*
X73930494Y-93100005D01*
X73621481Y-93306481D01*
X72351481Y-94576481D01*
X72145005Y-94885494D01*
X72072500Y-95250000D01*
X72072500Y-99300462D01*
X71081481Y-100291481D01*
X70875005Y-100600494D01*
X70802500Y-100965000D01*
X70802500Y-101709899D01*
X70772122Y-101730197D01*
X70472249Y-102178987D01*
X70450592Y-102105737D01*
X70108076Y-101682319D01*
X69629597Y-101422207D01*
X69556971Y-101407723D01*
X69342000Y-101530317D01*
X69342000Y-103378000D01*
X69362000Y-103378000D01*
X69362000Y-103632000D01*
X69342000Y-103632000D01*
X69342000Y-105479683D01*
X69556971Y-105602277D01*
X69629597Y-105587793D01*
X70108076Y-105327681D01*
X70450592Y-104904263D01*
X70472249Y-104831013D01*
X70772122Y-105279803D01*
X70866000Y-105342531D01*
X70866000Y-106463715D01*
X70769683Y-106481838D01*
X70553559Y-106620910D01*
X70408569Y-106833110D01*
X70358624Y-107079744D01*
X70104540Y-106765855D01*
X69627684Y-106506827D01*
X69556185Y-106492682D01*
X69342000Y-106615344D01*
X69342000Y-108458000D01*
X69362000Y-108458000D01*
X69362000Y-108712000D01*
X69342000Y-108712000D01*
X69342000Y-110554656D01*
X69556185Y-110677318D01*
X69627684Y-110663173D01*
X70104540Y-110404145D01*
X70358563Y-110090332D01*
X70401838Y-110320317D01*
X70540910Y-110536441D01*
X70753110Y-110681431D01*
X70866000Y-110704292D01*
X70866000Y-110756764D01*
X70751764Y-110871000D01*
X60141485Y-110871000D01*
X59847370Y-110576371D01*
X59334100Y-110363243D01*
X58778339Y-110362758D01*
X58264697Y-110574990D01*
X58031781Y-110807500D01*
X54927500Y-110807500D01*
X54927500Y-110380101D01*
X54957878Y-110359803D01*
X55257751Y-109911013D01*
X55279408Y-109984263D01*
X55621924Y-110407681D01*
X56100403Y-110667793D01*
X56173029Y-110682277D01*
X56388000Y-110559683D01*
X56388000Y-108712000D01*
X56642000Y-108712000D01*
X56642000Y-110559683D01*
X56856971Y-110682277D01*
X56929597Y-110667793D01*
X57408076Y-110407681D01*
X57750592Y-109984263D01*
X57905000Y-109462000D01*
X57905000Y-108712000D01*
X56642000Y-108712000D01*
X56388000Y-108712000D01*
X56368000Y-108712000D01*
X56368000Y-108458000D01*
X56388000Y-108458000D01*
X56388000Y-106610317D01*
X56642000Y-106610317D01*
X56642000Y-108458000D01*
X57905000Y-108458000D01*
X57905000Y-107708000D01*
X57750592Y-107185737D01*
X57408076Y-106762319D01*
X56929597Y-106502207D01*
X56856971Y-106487723D01*
X56642000Y-106610317D01*
X56388000Y-106610317D01*
X56173029Y-106487723D01*
X56100403Y-106502207D01*
X55621924Y-106762319D01*
X55279408Y-107185737D01*
X55257751Y-107258987D01*
X54957878Y-106810197D01*
X54506930Y-106508882D01*
X53975000Y-106403075D01*
X53443070Y-106508882D01*
X52992122Y-106810197D01*
X52705000Y-107239904D01*
X52417878Y-106810197D01*
X51966930Y-106508882D01*
X51435000Y-106403075D01*
X50903070Y-106508882D01*
X50452122Y-106810197D01*
X50150807Y-107261145D01*
X50045000Y-107793075D01*
X50045000Y-109067600D01*
X41998301Y-109067600D01*
X42218988Y-108920142D01*
X42341092Y-108737400D01*
X48260000Y-108737400D01*
X48561325Y-108677463D01*
X48816776Y-108506776D01*
X49451776Y-107871776D01*
X49622463Y-107616325D01*
X49682400Y-107315000D01*
X49682400Y-105736152D01*
X49856152Y-105562400D01*
X58093848Y-105562400D01*
X58267600Y-105736152D01*
X58267600Y-107950000D01*
X58327537Y-108251325D01*
X58498224Y-108506776D01*
X59133224Y-109141776D01*
X59388675Y-109312463D01*
X59690000Y-109372400D01*
X62750000Y-109372400D01*
X62750000Y-109376827D01*
X62855427Y-109906844D01*
X63155657Y-110356170D01*
X63604983Y-110656400D01*
X64135000Y-110761827D01*
X64665017Y-110656400D01*
X65114343Y-110356170D01*
X65405000Y-109921171D01*
X65695657Y-110356170D01*
X66144983Y-110656400D01*
X66675000Y-110761827D01*
X67205017Y-110656400D01*
X67654343Y-110356170D01*
X67954573Y-109906844D01*
X67957428Y-109892489D01*
X67984028Y-109982349D01*
X68325460Y-110404145D01*
X68802316Y-110663173D01*
X68873815Y-110677318D01*
X69088000Y-110554656D01*
X69088000Y-108712000D01*
X69068000Y-108712000D01*
X69068000Y-108458000D01*
X69088000Y-108458000D01*
X69088000Y-106615344D01*
X68873815Y-106492682D01*
X68802316Y-106506827D01*
X68325460Y-106765855D01*
X67984028Y-107187651D01*
X67957428Y-107277511D01*
X67954573Y-107263156D01*
X67654343Y-106813830D01*
X67462400Y-106685578D01*
X67462400Y-105410418D01*
X67657878Y-105279803D01*
X67957751Y-104831013D01*
X67979408Y-104904263D01*
X68321924Y-105327681D01*
X68800403Y-105587793D01*
X68873029Y-105602277D01*
X69088000Y-105479683D01*
X69088000Y-103632000D01*
X69068000Y-103632000D01*
X69068000Y-103378000D01*
X69088000Y-103378000D01*
X69088000Y-101530317D01*
X68873029Y-101407723D01*
X68800403Y-101422207D01*
X68321924Y-101682319D01*
X67979408Y-102105737D01*
X67957751Y-102178987D01*
X67657878Y-101730197D01*
X67462304Y-101599518D01*
X67402463Y-101298675D01*
X67231776Y-101043224D01*
X66596776Y-100408224D01*
X66341325Y-100237537D01*
X66040000Y-100177600D01*
X53340000Y-100177600D01*
X53038675Y-100237537D01*
X52783224Y-100408224D01*
X51743848Y-101447600D01*
X47299521Y-101447600D01*
X47225603Y-101336974D01*
X46813585Y-101061673D01*
X46327577Y-100965000D01*
X46813585Y-100868327D01*
X47225603Y-100593026D01*
X47500904Y-100181008D01*
X47597577Y-99695000D01*
X47500904Y-99208992D01*
X47225603Y-98796974D01*
X46813585Y-98521673D01*
X46327577Y-98425000D01*
X46418500Y-98425000D01*
X46894841Y-98279726D01*
X47279328Y-97963223D01*
X47513428Y-97523675D01*
X47519709Y-97478112D01*
X47395469Y-97282000D01*
X45847000Y-97282000D01*
X45847000Y-98425000D01*
X45593000Y-98425000D01*
X45593000Y-97282000D01*
X44044531Y-97282000D01*
X43920291Y-97478112D01*
X43926572Y-97523675D01*
X44160672Y-97963223D01*
X44545159Y-98279726D01*
X45021500Y-98425000D01*
X45112423Y-98425000D01*
X44626415Y-98521673D01*
X44214397Y-98796974D01*
X43939096Y-99208992D01*
X43842423Y-99695000D01*
X43939096Y-100181008D01*
X44214397Y-100593026D01*
X44626415Y-100868327D01*
X45112423Y-100965000D01*
X44626415Y-101061673D01*
X44214397Y-101336974D01*
X43939096Y-101748992D01*
X43842423Y-102235000D01*
X43939096Y-102721008D01*
X44214397Y-103133026D01*
X44626415Y-103408327D01*
X45112423Y-103505000D01*
X44626415Y-103601673D01*
X44214397Y-103876974D01*
X44140479Y-103987600D01*
X42871152Y-103987600D01*
X42062400Y-103178848D01*
X42062400Y-101430303D01*
X42406098Y-101087204D01*
X42609768Y-100596713D01*
X42610231Y-100065617D01*
X42407418Y-99574771D01*
X42032204Y-99198902D01*
X41541713Y-98995232D01*
X41010617Y-98994769D01*
X40519771Y-99197582D01*
X40143902Y-99572796D01*
X39940232Y-100063287D01*
X39939769Y-100594383D01*
X40142582Y-101085229D01*
X40487600Y-101430849D01*
X40487600Y-103505000D01*
X40547537Y-103806325D01*
X40718224Y-104061776D01*
X41988224Y-105331776D01*
X42243675Y-105502463D01*
X42545000Y-105562400D01*
X44140479Y-105562400D01*
X44214397Y-105673026D01*
X44626415Y-105948327D01*
X45112423Y-106045000D01*
X46327577Y-106045000D01*
X46813585Y-105948327D01*
X47225603Y-105673026D01*
X47500904Y-105261008D01*
X47597577Y-104775000D01*
X47500904Y-104288992D01*
X47225603Y-103876974D01*
X46813585Y-103601673D01*
X46327577Y-103505000D01*
X46813585Y-103408327D01*
X47225603Y-103133026D01*
X47299521Y-103022400D01*
X52070000Y-103022400D01*
X52371325Y-102962463D01*
X52626776Y-102791776D01*
X53666152Y-101752400D01*
X60597286Y-101752400D01*
X60310807Y-102181145D01*
X60205000Y-102713075D01*
X60205000Y-104296925D01*
X60310807Y-104828855D01*
X60612122Y-105279803D01*
X61063070Y-105581118D01*
X61595000Y-105686925D01*
X62126930Y-105581118D01*
X62577878Y-105279803D01*
X62865000Y-104850096D01*
X63152122Y-105279803D01*
X63347600Y-105410418D01*
X63347600Y-106685578D01*
X63155657Y-106813830D01*
X62855427Y-107263156D01*
X62750000Y-107793173D01*
X62750000Y-107797600D01*
X60016152Y-107797600D01*
X59842400Y-107623848D01*
X59842400Y-105410000D01*
X59782463Y-105108675D01*
X59611776Y-104853224D01*
X58976776Y-104218224D01*
X58721325Y-104047537D01*
X58420000Y-103987600D01*
X49530000Y-103987600D01*
X49228675Y-104047537D01*
X48973224Y-104218224D01*
X48338224Y-104853224D01*
X48167537Y-105108675D01*
X48107600Y-105410000D01*
X48107600Y-106988848D01*
X47933848Y-107162600D01*
X42341092Y-107162600D01*
X42218988Y-106979858D01*
X41785882Y-106690467D01*
X41275000Y-106588846D01*
X40764118Y-106690467D01*
X40331012Y-106979858D01*
X40208908Y-107162600D01*
X39200303Y-107162600D01*
X38857204Y-106818902D01*
X38366713Y-106615232D01*
X37835617Y-106614769D01*
X37344771Y-106817582D01*
X36968902Y-107192796D01*
X36765232Y-107683287D01*
X36764769Y-108214383D01*
X36967582Y-108705229D01*
X37329322Y-109067600D01*
X34841209Y-109067600D01*
X34840010Y-109064697D01*
X34447370Y-108671371D01*
X33934100Y-108458243D01*
X33378339Y-108457758D01*
X32864697Y-108669990D01*
X32471371Y-109062630D01*
X32258243Y-109575900D01*
X32257758Y-110131661D01*
X32469990Y-110645303D01*
X32631904Y-110807500D01*
X30874538Y-110807500D01*
X30797500Y-110730462D01*
X30797500Y-107950000D01*
X30724995Y-107585494D01*
X30518519Y-107276481D01*
X26987500Y-103745462D01*
X26987500Y-103258096D01*
X27218629Y-103027370D01*
X27431757Y-102514100D01*
X27432242Y-101958339D01*
X27220010Y-101444697D01*
X26827370Y-101051371D01*
X26314100Y-100838243D01*
X25758339Y-100837758D01*
X25244697Y-101049990D01*
X24851371Y-101442630D01*
X24638243Y-101955900D01*
X24637758Y-102511661D01*
X20710000Y-102511661D01*
X20710000Y-87338070D01*
X22331280Y-87338070D01*
X22346240Y-87412277D01*
X22607870Y-87893026D01*
X23033559Y-88237059D01*
X23558500Y-88392000D01*
X24003000Y-88392000D01*
X24003000Y-87122000D01*
X22453780Y-87122000D01*
X22331280Y-87338070D01*
X20710000Y-87338070D01*
X20710000Y-81915000D01*
X22252423Y-81915000D01*
X22358763Y-82449609D01*
X22661595Y-82902828D01*
X23083894Y-83185000D01*
X22661595Y-83467172D01*
X22358763Y-83920391D01*
X22252423Y-84455000D01*
X22358763Y-84989609D01*
X22661595Y-85442828D01*
X23097476Y-85734075D01*
X23033559Y-85752941D01*
X22607870Y-86096974D01*
X22346240Y-86577723D01*
X22331280Y-86651930D01*
X22453780Y-86868000D01*
X24003000Y-86868000D01*
X24003000Y-86848000D01*
X24257000Y-86848000D01*
X24257000Y-86868000D01*
X24277000Y-86868000D01*
X24277000Y-87122000D01*
X24257000Y-87122000D01*
X24257000Y-88392000D01*
X24701500Y-88392000D01*
X25226441Y-88237059D01*
X25652130Y-87893026D01*
X25913760Y-87412277D01*
X25928720Y-87338070D01*
X25806221Y-87122002D01*
X25907889Y-87122002D01*
X25907758Y-87271661D01*
X26119990Y-87785303D01*
X26352500Y-88018219D01*
X26352500Y-89881606D01*
X25242472Y-91546648D01*
X25206850Y-91632903D01*
X25155005Y-91710494D01*
X25136607Y-91802987D01*
X25100608Y-91890154D01*
X25100706Y-91983474D01*
X25082500Y-92075000D01*
X25082500Y-96131904D01*
X24851371Y-96362630D01*
X24638243Y-96875900D01*
X24637758Y-97431661D01*
X24849990Y-97945303D01*
X25242630Y-98338629D01*
X25755900Y-98551757D01*
X26311661Y-98552242D01*
X26825303Y-98340010D01*
X27058219Y-98107500D01*
X29055923Y-98107500D01*
X29386415Y-98328327D01*
X29872423Y-98425000D01*
X29386415Y-98521673D01*
X28974397Y-98796974D01*
X28699096Y-99208992D01*
X28602423Y-99695000D01*
X28699096Y-100181008D01*
X28974397Y-100593026D01*
X29386415Y-100868327D01*
X29872423Y-100965000D01*
X29781500Y-100965000D01*
X29305159Y-101110274D01*
X28920672Y-101426777D01*
X28686572Y-101866325D01*
X28680291Y-101911888D01*
X28804531Y-102108000D01*
X30353000Y-102108000D01*
X30353000Y-100965000D01*
X30607000Y-100965000D01*
X30607000Y-102108000D01*
X32155469Y-102108000D01*
X32279709Y-101911888D01*
X32273428Y-101866325D01*
X32039328Y-101426777D01*
X31654841Y-101110274D01*
X31178500Y-100965000D01*
X31087577Y-100965000D01*
X31573585Y-100868327D01*
X31985603Y-100593026D01*
X32260904Y-100181008D01*
X32357577Y-99695000D01*
X32260904Y-99208992D01*
X31985603Y-98796974D01*
X31573585Y-98521673D01*
X31087577Y-98425000D01*
X31573585Y-98328327D01*
X31985603Y-98053026D01*
X32232600Y-97683368D01*
X32232600Y-98425000D01*
X32292537Y-98726325D01*
X32463224Y-98981776D01*
X32867600Y-99386152D01*
X32867600Y-99778791D01*
X32864697Y-99779990D01*
X32471371Y-100172630D01*
X32258243Y-100685900D01*
X32257758Y-101241661D01*
X32469990Y-101755303D01*
X32862630Y-102148629D01*
X33375900Y-102361757D01*
X33931661Y-102362242D01*
X34445303Y-102150010D01*
X34838629Y-101757370D01*
X35051757Y-101244100D01*
X35052242Y-100688339D01*
X34840010Y-100174697D01*
X34447370Y-99781371D01*
X34442400Y-99779307D01*
X34442400Y-99060000D01*
X34382463Y-98758675D01*
X34211776Y-98503224D01*
X33807400Y-98098848D01*
X33807400Y-98019438D01*
X35242500Y-99454538D01*
X35242500Y-103745462D01*
X35165462Y-103822500D01*
X31904077Y-103822500D01*
X31573585Y-103601673D01*
X31087577Y-103505000D01*
X31178500Y-103505000D01*
X31654841Y-103359726D01*
X32039328Y-103043223D01*
X32273428Y-102603675D01*
X32279709Y-102558112D01*
X32155469Y-102362000D01*
X30607000Y-102362000D01*
X30607000Y-103505000D01*
X30353000Y-103505000D01*
X30353000Y-102362000D01*
X28804531Y-102362000D01*
X28680291Y-102558112D01*
X28686572Y-102603675D01*
X28920672Y-103043223D01*
X29305159Y-103359726D01*
X29781500Y-103505000D01*
X29872423Y-103505000D01*
X29386415Y-103601673D01*
X28974397Y-103876974D01*
X28699096Y-104288992D01*
X28602423Y-104775000D01*
X28699096Y-105261008D01*
X28974397Y-105673026D01*
X29386415Y-105948327D01*
X29872423Y-106045000D01*
X31087577Y-106045000D01*
X31573585Y-105948327D01*
X31904077Y-105727500D01*
X35560000Y-105727500D01*
X35924506Y-105654995D01*
X36233519Y-105448519D01*
X36868519Y-104813519D01*
X36996087Y-104622600D01*
X37074995Y-104504506D01*
X37147500Y-104140000D01*
X37147500Y-101234795D01*
X37421604Y-101479797D01*
X37766671Y-101622716D01*
X37973000Y-101499374D01*
X37973000Y-100457000D01*
X38227000Y-100457000D01*
X38227000Y-101499374D01*
X38433329Y-101622716D01*
X38778396Y-101479797D01*
X39166764Y-101132663D01*
X39392727Y-100663331D01*
X39270206Y-100457000D01*
X38227000Y-100457000D01*
X37973000Y-100457000D01*
X37953000Y-100457000D01*
X37953000Y-100203000D01*
X37973000Y-100203000D01*
X37973000Y-99160626D01*
X38227000Y-99160626D01*
X38227000Y-100203000D01*
X39270206Y-100203000D01*
X39392727Y-99996669D01*
X39166764Y-99527337D01*
X38778396Y-99180203D01*
X38433329Y-99037284D01*
X38227000Y-99160626D01*
X37973000Y-99160626D01*
X37766671Y-99037284D01*
X37421604Y-99180203D01*
X37147500Y-99425205D01*
X37147500Y-99060000D01*
X37074995Y-98695494D01*
X36868519Y-98386481D01*
X35970369Y-97488331D01*
X36807273Y-97488331D01*
X37033236Y-97957663D01*
X37421604Y-98304797D01*
X37766671Y-98447716D01*
X37973000Y-98324374D01*
X37973000Y-97282000D01*
X38227000Y-97282000D01*
X38227000Y-98324374D01*
X38433329Y-98447716D01*
X38778396Y-98304797D01*
X39166764Y-97957663D01*
X39392727Y-97488331D01*
X39982273Y-97488331D01*
X40208236Y-97957663D01*
X40596604Y-98304797D01*
X40941671Y-98447716D01*
X41148000Y-98324374D01*
X41148000Y-97282000D01*
X41402000Y-97282000D01*
X41402000Y-98324374D01*
X41608329Y-98447716D01*
X41953396Y-98304797D01*
X42341764Y-97957663D01*
X42567727Y-97488331D01*
X42445206Y-97282000D01*
X41402000Y-97282000D01*
X41148000Y-97282000D01*
X40104794Y-97282000D01*
X39982273Y-97488331D01*
X39392727Y-97488331D01*
X39270206Y-97282000D01*
X38227000Y-97282000D01*
X37973000Y-97282000D01*
X36929794Y-97282000D01*
X36807273Y-97488331D01*
X35970369Y-97488331D01*
X35303707Y-96821669D01*
X36807273Y-96821669D01*
X36929794Y-97028000D01*
X37973000Y-97028000D01*
X37973000Y-95985626D01*
X38227000Y-95985626D01*
X38227000Y-97028000D01*
X39270206Y-97028000D01*
X39392727Y-96821669D01*
X39982273Y-96821669D01*
X40104794Y-97028000D01*
X41148000Y-97028000D01*
X41148000Y-95985626D01*
X41402000Y-95985626D01*
X41402000Y-97028000D01*
X42445206Y-97028000D01*
X42567727Y-96821669D01*
X42341764Y-96352337D01*
X41953396Y-96005203D01*
X41608329Y-95862284D01*
X41402000Y-95985626D01*
X41148000Y-95985626D01*
X40941671Y-95862284D01*
X40596604Y-96005203D01*
X40208236Y-96352337D01*
X39982273Y-96821669D01*
X39392727Y-96821669D01*
X39166764Y-96352337D01*
X38778396Y-96005203D01*
X38433329Y-95862284D01*
X38227000Y-95985626D01*
X37973000Y-95985626D01*
X37766671Y-95862284D01*
X37421604Y-96005203D01*
X37033236Y-96352337D01*
X36807273Y-96821669D01*
X35303707Y-96821669D01*
X35242500Y-96760462D01*
X35242500Y-93506052D01*
X35638224Y-93901776D01*
X35893675Y-94072463D01*
X36195000Y-94132400D01*
X43938418Y-94132400D01*
X43842423Y-94615000D01*
X43939096Y-95101008D01*
X44214397Y-95513026D01*
X44626415Y-95788327D01*
X45112423Y-95885000D01*
X45021500Y-95885000D01*
X44545159Y-96030274D01*
X44160672Y-96346777D01*
X43926572Y-96786325D01*
X43920291Y-96831888D01*
X44044531Y-97028000D01*
X45593000Y-97028000D01*
X45593000Y-95885000D01*
X45847000Y-95885000D01*
X45847000Y-97028000D01*
X47395469Y-97028000D01*
X47519709Y-96831888D01*
X47513428Y-96786325D01*
X47279328Y-96346777D01*
X46894841Y-96030274D01*
X46418500Y-95885000D01*
X46327577Y-95885000D01*
X46813585Y-95788327D01*
X47225603Y-95513026D01*
X47299521Y-95402400D01*
X47582743Y-95402400D01*
X47498243Y-95605900D01*
X47497758Y-96161661D01*
X47709990Y-96675303D01*
X48102630Y-97068629D01*
X48615900Y-97281757D01*
X49171661Y-97282242D01*
X49685303Y-97070010D01*
X50078629Y-96677370D01*
X50080693Y-96672400D01*
X50473848Y-96672400D01*
X50878224Y-97076776D01*
X51133675Y-97247463D01*
X51435000Y-97307400D01*
X55245000Y-97307400D01*
X55546325Y-97247463D01*
X55801776Y-97076776D01*
X58111152Y-94767400D01*
X59178418Y-94767400D01*
X59082423Y-95250000D01*
X59170445Y-95692517D01*
X59104919Y-95758043D01*
X58778339Y-95757758D01*
X58264697Y-95969990D01*
X57871371Y-96362630D01*
X57658243Y-96875900D01*
X57657758Y-97431661D01*
X57869990Y-97945303D01*
X58262630Y-98338629D01*
X58775900Y-98551757D01*
X59331661Y-98552242D01*
X59845303Y-98340010D01*
X60238629Y-97947370D01*
X60451757Y-97434100D01*
X60452044Y-97104994D01*
X61037038Y-96520000D01*
X61567577Y-96520000D01*
X62053585Y-96423327D01*
X62465603Y-96148026D01*
X62740904Y-95736008D01*
X62837577Y-95250000D01*
X62791921Y-95020473D01*
X63347600Y-95576152D01*
X63347600Y-97155000D01*
X63407537Y-97456325D01*
X63578224Y-97711776D01*
X64213224Y-98346776D01*
X64468675Y-98517463D01*
X64770000Y-98577400D01*
X66123791Y-98577400D01*
X66124990Y-98580303D01*
X66517630Y-98973629D01*
X67030900Y-99186757D01*
X67586661Y-99187242D01*
X68100303Y-98975010D01*
X68493629Y-98582370D01*
X68706757Y-98069100D01*
X68707242Y-97513339D01*
X68495010Y-96999697D01*
X68102370Y-96606371D01*
X67924324Y-96532440D01*
X69786500Y-96532440D01*
X70021817Y-96488162D01*
X70237941Y-96349090D01*
X70382931Y-96136890D01*
X70433940Y-95885000D01*
X70433940Y-94615000D01*
X70389662Y-94379683D01*
X70250590Y-94163559D01*
X70038390Y-94018569D01*
X69786500Y-93967560D01*
X69250117Y-93967560D01*
X69673585Y-93883327D01*
X70085603Y-93608026D01*
X70360904Y-93196008D01*
X70457577Y-92710000D01*
X70360904Y-92223992D01*
X70085603Y-91811974D01*
X69673585Y-91536673D01*
X69187577Y-91440000D01*
X69673585Y-91343327D01*
X70085603Y-91068026D01*
X70159521Y-90957400D01*
X70568791Y-90957400D01*
X70569990Y-90960303D01*
X70962630Y-91353629D01*
X71475900Y-91566757D01*
X72031661Y-91567242D01*
X72545303Y-91355010D01*
X72938629Y-90962370D01*
X73151757Y-90449100D01*
X73152242Y-89893339D01*
X72940010Y-89379697D01*
X72547370Y-88986371D01*
X72034100Y-88773243D01*
X71478339Y-88772758D01*
X70964697Y-88984990D01*
X70571371Y-89377630D01*
X70569307Y-89382600D01*
X70159521Y-89382600D01*
X70085603Y-89271974D01*
X69673585Y-88996673D01*
X69187577Y-88900000D01*
X69278500Y-88900000D01*
X69754841Y-88754726D01*
X70139328Y-88438223D01*
X70373428Y-87998675D01*
X70379709Y-87953112D01*
X70255469Y-87757000D01*
X68707000Y-87757000D01*
X68707000Y-88900000D01*
X68453000Y-88900000D01*
X68453000Y-87757000D01*
X66904531Y-87757000D01*
X66780291Y-87953112D01*
X66786572Y-87998675D01*
X67020672Y-88438223D01*
X67405159Y-88754726D01*
X67881500Y-88900000D01*
X67972423Y-88900000D01*
X67486415Y-88996673D01*
X67074397Y-89271974D01*
X66799096Y-89683992D01*
X66702423Y-90170000D01*
X66799096Y-90656008D01*
X67074397Y-91068026D01*
X67486415Y-91343327D01*
X67972423Y-91440000D01*
X67486415Y-91536673D01*
X67074397Y-91811974D01*
X67000479Y-91922600D01*
X66366152Y-91922600D01*
X66192400Y-91748848D01*
X66192400Y-89535000D01*
X66132463Y-89233675D01*
X65961776Y-88978224D01*
X65326776Y-88343224D01*
X65071325Y-88172537D01*
X64770000Y-88112600D01*
X62692752Y-88112600D01*
X62753428Y-87998675D01*
X62759709Y-87953112D01*
X62635469Y-87757000D01*
X61087000Y-87757000D01*
X61087000Y-87777000D01*
X60833000Y-87777000D01*
X60833000Y-87757000D01*
X59284531Y-87757000D01*
X59160291Y-87953112D01*
X59166572Y-87998675D01*
X59227248Y-88112600D01*
X50165000Y-88112600D01*
X49863675Y-88172537D01*
X49608224Y-88343224D01*
X49203848Y-88747600D01*
X47299521Y-88747600D01*
X47225603Y-88636974D01*
X46813585Y-88361673D01*
X46327577Y-88265000D01*
X46813585Y-88168327D01*
X47225603Y-87893026D01*
X47299521Y-87782400D01*
X49530000Y-87782400D01*
X49831325Y-87722463D01*
X50086776Y-87551776D01*
X51356776Y-86281776D01*
X51527463Y-86026325D01*
X51587400Y-85725000D01*
X51587400Y-85413112D01*
X59160291Y-85413112D01*
X59166572Y-85458675D01*
X59400672Y-85898223D01*
X59785159Y-86214726D01*
X60261500Y-86360000D01*
X59785159Y-86505274D01*
X59400672Y-86821777D01*
X59166572Y-87261325D01*
X59160291Y-87306888D01*
X59284531Y-87503000D01*
X60833000Y-87503000D01*
X60833000Y-85217000D01*
X61087000Y-85217000D01*
X61087000Y-87503000D01*
X62635469Y-87503000D01*
X62759709Y-87306888D01*
X62753428Y-87261325D01*
X62519328Y-86821777D01*
X62134841Y-86505274D01*
X61658500Y-86360000D01*
X62134841Y-86214726D01*
X62519328Y-85898223D01*
X62753428Y-85458675D01*
X62759709Y-85413112D01*
X66780291Y-85413112D01*
X66786572Y-85458675D01*
X67020672Y-85898223D01*
X67405159Y-86214726D01*
X67881500Y-86360000D01*
X67405159Y-86505274D01*
X67020672Y-86821777D01*
X66786572Y-87261325D01*
X66780291Y-87306888D01*
X66904531Y-87503000D01*
X68453000Y-87503000D01*
X68453000Y-85217000D01*
X68707000Y-85217000D01*
X68707000Y-87503000D01*
X70255469Y-87503000D01*
X70379709Y-87306888D01*
X70373428Y-87261325D01*
X70139328Y-86821777D01*
X69754841Y-86505274D01*
X69278500Y-86360000D01*
X69754841Y-86214726D01*
X70139328Y-85898223D01*
X70373428Y-85458675D01*
X70379709Y-85413112D01*
X70255469Y-85217000D01*
X68707000Y-85217000D01*
X68453000Y-85217000D01*
X66904531Y-85217000D01*
X66780291Y-85413112D01*
X62759709Y-85413112D01*
X62635469Y-85217000D01*
X61087000Y-85217000D01*
X60833000Y-85217000D01*
X59284531Y-85217000D01*
X59160291Y-85413112D01*
X51587400Y-85413112D01*
X51587400Y-84677831D01*
X51912630Y-85003629D01*
X52425900Y-85216757D01*
X52981661Y-85217242D01*
X53495303Y-85005010D01*
X53888629Y-84612370D01*
X53890693Y-84607400D01*
X59227248Y-84607400D01*
X59166572Y-84721325D01*
X59160291Y-84766888D01*
X59284531Y-84963000D01*
X60833000Y-84963000D01*
X60833000Y-84943000D01*
X61087000Y-84943000D01*
X61087000Y-84963000D01*
X62635469Y-84963000D01*
X62759709Y-84766888D01*
X62753428Y-84721325D01*
X62692752Y-84607400D01*
X64770000Y-84607400D01*
X65071325Y-84547463D01*
X65326776Y-84376776D01*
X65961776Y-83741776D01*
X66132463Y-83486325D01*
X66192400Y-83185000D01*
X66192400Y-80971152D01*
X66366152Y-80797400D01*
X67000479Y-80797400D01*
X67074397Y-80908026D01*
X67486415Y-81183327D01*
X67972423Y-81280000D01*
X67486415Y-81376673D01*
X67074397Y-81651974D01*
X66799096Y-82063992D01*
X66702423Y-82550000D01*
X66799096Y-83036008D01*
X67074397Y-83448026D01*
X67486415Y-83723327D01*
X67972423Y-83820000D01*
X67881500Y-83820000D01*
X67405159Y-83965274D01*
X67020672Y-84281777D01*
X66786572Y-84721325D01*
X66780291Y-84766888D01*
X66904531Y-84963000D01*
X68453000Y-84963000D01*
X68453000Y-83820000D01*
X68707000Y-83820000D01*
X68707000Y-84963000D01*
X70255469Y-84963000D01*
X70379709Y-84766888D01*
X70373428Y-84721325D01*
X70139328Y-84281777D01*
X69754841Y-83965274D01*
X69278500Y-83820000D01*
X69187577Y-83820000D01*
X69673585Y-83723327D01*
X70085603Y-83448026D01*
X70159521Y-83337400D01*
X73025000Y-83337400D01*
X73326325Y-83277463D01*
X73581776Y-83106776D01*
X73911691Y-82776861D01*
X74191930Y-82721118D01*
X74642878Y-82419803D01*
X74930000Y-81990096D01*
X75216931Y-82419517D01*
X75008224Y-82628224D01*
X74837537Y-82883675D01*
X74777600Y-83185000D01*
X74777600Y-88983791D01*
X74774697Y-88984990D01*
X74381371Y-89377630D01*
X74168243Y-89890900D01*
X74167758Y-90446661D01*
X74379990Y-90960303D01*
X74772630Y-91353629D01*
X75285900Y-91566757D01*
X75841661Y-91567242D01*
X76355303Y-91355010D01*
X76748629Y-90962370D01*
X76961757Y-90449100D01*
X76962242Y-89893339D01*
X76750010Y-89379697D01*
X76535072Y-89164383D01*
X77404769Y-89164383D01*
X77607582Y-89655229D01*
X77982796Y-90031098D01*
X78473287Y-90234768D01*
X79004383Y-90235231D01*
X79495229Y-90032418D01*
X79871098Y-89657204D01*
X80074768Y-89166713D01*
X80075231Y-88635617D01*
X79872418Y-88144771D01*
X79527400Y-87799151D01*
X79527400Y-84781152D01*
X80116435Y-84192117D01*
X80409357Y-84485551D01*
X80973330Y-84719733D01*
X81583991Y-84720265D01*
X82148371Y-84487068D01*
X82325841Y-84309908D01*
X82381673Y-84444699D01*
X82560302Y-84623327D01*
X82793691Y-84720000D01*
X83534250Y-84720000D01*
X83693000Y-84561250D01*
X83693000Y-83312000D01*
X83947000Y-83312000D01*
X83947000Y-84561250D01*
X84105750Y-84720000D01*
X84846309Y-84720000D01*
X85079698Y-84623327D01*
X85258327Y-84444699D01*
X85355000Y-84211310D01*
X85355000Y-83470750D01*
X85196250Y-83312000D01*
X83947000Y-83312000D01*
X83693000Y-83312000D01*
X83673000Y-83312000D01*
X83673000Y-83058000D01*
X83693000Y-83058000D01*
X83693000Y-81808750D01*
X83947000Y-81808750D01*
X83947000Y-83058000D01*
X85196250Y-83058000D01*
X85355000Y-82899250D01*
X85355000Y-82158690D01*
X85258327Y-81925301D01*
X85079698Y-81746673D01*
X84846309Y-81650000D01*
X84105750Y-81650000D01*
X83947000Y-81808750D01*
X83693000Y-81808750D01*
X83534250Y-81650000D01*
X82793691Y-81650000D01*
X82560302Y-81746673D01*
X82381673Y-81925301D01*
X82325881Y-82059994D01*
X82150643Y-81884449D01*
X81586670Y-81650267D01*
X80976009Y-81649735D01*
X80411629Y-81882932D01*
X79979449Y-82314357D01*
X79939021Y-82411719D01*
X79708675Y-82457537D01*
X79453224Y-82628224D01*
X78183224Y-83898224D01*
X78012537Y-84153675D01*
X77952600Y-84455000D01*
X77952600Y-87799697D01*
X77608902Y-88142796D01*
X77405232Y-88633287D01*
X77404769Y-89164383D01*
X76535072Y-89164383D01*
X76357370Y-88986371D01*
X76352400Y-88984307D01*
X76352400Y-83511152D01*
X76756776Y-83106776D01*
X76927463Y-82851325D01*
X76987304Y-82550482D01*
X77182878Y-82419803D01*
X77484193Y-81968855D01*
X77590000Y-81436925D01*
X77590000Y-79853075D01*
X77484193Y-79321145D01*
X77182878Y-78870197D01*
X76731930Y-78568882D01*
X76200000Y-78463075D01*
X75668070Y-78568882D01*
X75217122Y-78870197D01*
X74930000Y-79299904D01*
X74642878Y-78870197D01*
X74191930Y-78568882D01*
X73660000Y-78463075D01*
X73128070Y-78568882D01*
X72677122Y-78870197D01*
X72375807Y-79321145D01*
X72270000Y-79853075D01*
X72270000Y-81436925D01*
X72334781Y-81762600D01*
X70159521Y-81762600D01*
X70085603Y-81651974D01*
X69673585Y-81376673D01*
X69187577Y-81280000D01*
X69673585Y-81183327D01*
X70085603Y-80908026D01*
X70360904Y-80496008D01*
X70457577Y-80010000D01*
X70360904Y-79523992D01*
X70085603Y-79111974D01*
X69673585Y-78836673D01*
X69187577Y-78740000D01*
X69673585Y-78643327D01*
X70085603Y-78368026D01*
X70360904Y-77956008D01*
X70457577Y-77470000D01*
X70360904Y-76983992D01*
X70085603Y-76571974D01*
X69673585Y-76296673D01*
X69532500Y-76268609D01*
X69532500Y-72666661D01*
X72262758Y-72666661D01*
X72474990Y-73180303D01*
X72867630Y-73573629D01*
X72872600Y-73575693D01*
X72872600Y-76835000D01*
X72932537Y-77136325D01*
X73103224Y-77391776D01*
X73738224Y-78026776D01*
X73993675Y-78197463D01*
X74295000Y-78257400D01*
X85398848Y-78257400D01*
X85572600Y-78431152D01*
X85572600Y-87833908D01*
X85389858Y-87956012D01*
X85100467Y-88389118D01*
X84998846Y-88900000D01*
X85100467Y-89410882D01*
X85389858Y-89843988D01*
X85572600Y-89966092D01*
X85572600Y-90253791D01*
X85569697Y-90254990D01*
X85176371Y-90647630D01*
X84963243Y-91160900D01*
X84962758Y-91716661D01*
X85174990Y-92230303D01*
X85567630Y-92623629D01*
X86080900Y-92836757D01*
X86636661Y-92837242D01*
X87150303Y-92625010D01*
X87543629Y-92232370D01*
X87756757Y-91719100D01*
X87757242Y-91163339D01*
X87545010Y-90649697D01*
X87152370Y-90256371D01*
X87147400Y-90254307D01*
X87147400Y-89966092D01*
X87330142Y-89843988D01*
X87619533Y-89410882D01*
X87721154Y-88900000D01*
X87619533Y-88389118D01*
X87330142Y-87956012D01*
X87147400Y-87833908D01*
X87147400Y-78105000D01*
X87087463Y-77803675D01*
X86916776Y-77548224D01*
X86281776Y-76913224D01*
X86026325Y-76742537D01*
X85725000Y-76682600D01*
X74621152Y-76682600D01*
X74447400Y-76508848D01*
X74447400Y-74930000D01*
X77378846Y-74930000D01*
X77480467Y-75440882D01*
X77769858Y-75873988D01*
X78202964Y-76163379D01*
X78713846Y-76265000D01*
X78766154Y-76265000D01*
X79277036Y-76163379D01*
X79710142Y-75873988D01*
X79999533Y-75440882D01*
X80101154Y-74930000D01*
X79999533Y-74419118D01*
X79710142Y-73986012D01*
X79527400Y-73863908D01*
X79527400Y-70811152D01*
X80116435Y-70222117D01*
X80409357Y-70515551D01*
X80973330Y-70749733D01*
X81583991Y-70750265D01*
X82148371Y-70517068D01*
X82325841Y-70339908D01*
X82381673Y-70474699D01*
X82560302Y-70653327D01*
X82793691Y-70750000D01*
X83534250Y-70750000D01*
X83693000Y-70591250D01*
X83693000Y-69342000D01*
X83947000Y-69342000D01*
X83947000Y-70591250D01*
X84105750Y-70750000D01*
X84846309Y-70750000D01*
X85079698Y-70653327D01*
X85258327Y-70474699D01*
X85355000Y-70241310D01*
X85355000Y-69500750D01*
X85196250Y-69342000D01*
X83947000Y-69342000D01*
X83693000Y-69342000D01*
X83673000Y-69342000D01*
X83673000Y-69088000D01*
X83693000Y-69088000D01*
X83693000Y-67838750D01*
X83947000Y-67838750D01*
X83947000Y-69088000D01*
X85196250Y-69088000D01*
X85355000Y-68929250D01*
X85355000Y-68188690D01*
X85258327Y-67955301D01*
X85079698Y-67776673D01*
X84846309Y-67680000D01*
X84105750Y-67680000D01*
X83947000Y-67838750D01*
X83693000Y-67838750D01*
X83534250Y-67680000D01*
X82793691Y-67680000D01*
X82560302Y-67776673D01*
X82381673Y-67955301D01*
X82325881Y-68089994D01*
X82150643Y-67914449D01*
X81586670Y-67680267D01*
X80976009Y-67679735D01*
X80411629Y-67912932D01*
X79979449Y-68344357D01*
X79939021Y-68441719D01*
X79708675Y-68487537D01*
X79453224Y-68658224D01*
X78183224Y-69928224D01*
X78012537Y-70183675D01*
X77952600Y-70485000D01*
X77952600Y-73863908D01*
X77769858Y-73986012D01*
X77480467Y-74419118D01*
X77378846Y-74930000D01*
X74447400Y-74930000D01*
X74447400Y-73576209D01*
X74450303Y-73575010D01*
X74843629Y-73182370D01*
X75056757Y-72669100D01*
X75057242Y-72113339D01*
X74845010Y-71599697D01*
X74452370Y-71206371D01*
X73939100Y-70993243D01*
X73383339Y-70992758D01*
X72869697Y-71204990D01*
X72476371Y-71597630D01*
X72263243Y-72110900D01*
X72262758Y-72666661D01*
X69532500Y-72666661D01*
X69532500Y-67069538D01*
X70879538Y-65722500D01*
X78105000Y-65722500D01*
X78469506Y-65649995D01*
X78778519Y-65443519D01*
X78896730Y-65325308D01*
X78926838Y-65485317D01*
X79065910Y-65701441D01*
X79278110Y-65846431D01*
X79481409Y-65887600D01*
X78740000Y-65887600D01*
X78438675Y-65947537D01*
X78183224Y-66118224D01*
X75873848Y-68427600D01*
X74846209Y-68427600D01*
X74845010Y-68424697D01*
X74452370Y-68031371D01*
X73939100Y-67818243D01*
X73383339Y-67817758D01*
X72869697Y-68029990D01*
X72476371Y-68422630D01*
X72263243Y-68935900D01*
X72262758Y-69491661D01*
X72474990Y-70005303D01*
X72867630Y-70398629D01*
X73380900Y-70611757D01*
X73936661Y-70612242D01*
X74450303Y-70400010D01*
X74843629Y-70007370D01*
X74845693Y-70002400D01*
X76200000Y-70002400D01*
X76501325Y-69942463D01*
X76756776Y-69771776D01*
X79066152Y-67462400D01*
X85398848Y-67462400D01*
X85572600Y-67636152D01*
X85572600Y-71203791D01*
X85569697Y-71204990D01*
X85176371Y-71597630D01*
X84963243Y-72110900D01*
X84962758Y-72666661D01*
X85174990Y-73180303D01*
X85567630Y-73573629D01*
X85572600Y-73575693D01*
X85572600Y-73829697D01*
X85228902Y-74172796D01*
X85025232Y-74663287D01*
X85024769Y-75194383D01*
X85227582Y-75685229D01*
X85602796Y-76061098D01*
X86093287Y-76264768D01*
X86624383Y-76265231D01*
X87115229Y-76062418D01*
X87491098Y-75687204D01*
X87694768Y-75196713D01*
X87695231Y-74665617D01*
X87492418Y-74174771D01*
X87147400Y-73829151D01*
X87147400Y-73576209D01*
X87150303Y-73575010D01*
X87543629Y-73182370D01*
X87756757Y-72669100D01*
X87757242Y-72113339D01*
X87545010Y-71599697D01*
X87152370Y-71206371D01*
X87147400Y-71204307D01*
X87147400Y-67310000D01*
X87087463Y-67008675D01*
X86916776Y-66753224D01*
X86281776Y-66118224D01*
X86026325Y-65947537D01*
X85725000Y-65887600D01*
X83082295Y-65887600D01*
X83265317Y-65853162D01*
X83481441Y-65714090D01*
X83626431Y-65501890D01*
X83677440Y-65250000D01*
X83677440Y-63793029D01*
X90612723Y-63793029D01*
X90735317Y-64008000D01*
X92583000Y-64008000D01*
X92583000Y-62745000D01*
X92837000Y-62745000D01*
X92837000Y-64008000D01*
X94684683Y-64008000D01*
X94807277Y-63793029D01*
X94792793Y-63720403D01*
X94532681Y-63241924D01*
X94109263Y-62899408D01*
X93587000Y-62745000D01*
X92837000Y-62745000D01*
X92583000Y-62745000D01*
X91833000Y-62745000D01*
X91310737Y-62899408D01*
X90887319Y-63241924D01*
X90627207Y-63720403D01*
X90612723Y-63793029D01*
X83677440Y-63793029D01*
X83677440Y-61750000D01*
X83633162Y-61514683D01*
X83494090Y-61298559D01*
X83281890Y-61153569D01*
X83030000Y-61102560D01*
X79530000Y-61102560D01*
X79294683Y-61146838D01*
X79078559Y-61285910D01*
X78965000Y-61452109D01*
X78965000Y-60785750D01*
X78806250Y-60627000D01*
X76707000Y-60627000D01*
X76707000Y-62726250D01*
X76865750Y-62885000D01*
X78456310Y-62885000D01*
X78689699Y-62788327D01*
X78868327Y-62609698D01*
X78882560Y-62575337D01*
X78882560Y-62705488D01*
X78701481Y-62826481D01*
X77710462Y-63817500D01*
X70485000Y-63817500D01*
X70120494Y-63890005D01*
X69892214Y-64042537D01*
X69811481Y-64096481D01*
X67906481Y-66001481D01*
X67700005Y-66310494D01*
X67690655Y-66357500D01*
X39370000Y-66357500D01*
X39005494Y-66430005D01*
X38696481Y-66636481D01*
X37426481Y-67906481D01*
X37220005Y-68215494D01*
X37147500Y-68580000D01*
X37147500Y-75454188D01*
X37109100Y-75438243D01*
X36553339Y-75437758D01*
X36039697Y-75649990D01*
X35646371Y-76042630D01*
X35433243Y-76555900D01*
X35432758Y-77111661D01*
X35644990Y-77625303D01*
X36037630Y-78018629D01*
X36550900Y-78231757D01*
X36859422Y-78232026D01*
X35233848Y-79857600D01*
X33015952Y-79857600D01*
X33372999Y-79500553D01*
X33375900Y-79501757D01*
X33931661Y-79502242D01*
X34445303Y-79290010D01*
X34838629Y-78897370D01*
X35051757Y-78384100D01*
X35052242Y-77828339D01*
X34840010Y-77314697D01*
X34447370Y-76921371D01*
X33934100Y-76708243D01*
X33378339Y-76707758D01*
X32864697Y-76919990D01*
X32471371Y-77312630D01*
X32258243Y-77825900D01*
X32257758Y-78381661D01*
X32259813Y-78386635D01*
X32059251Y-78587197D01*
X31985603Y-78476974D01*
X31573585Y-78201673D01*
X31087577Y-78105000D01*
X31573585Y-78008327D01*
X31985603Y-77733026D01*
X32260904Y-77321008D01*
X32357577Y-76835000D01*
X32260904Y-76348992D01*
X31985603Y-75936974D01*
X31573585Y-75661673D01*
X31087577Y-75565000D01*
X31573585Y-75468327D01*
X31985603Y-75193026D01*
X32260904Y-74781008D01*
X32357577Y-74295000D01*
X32260904Y-73808992D01*
X31985603Y-73396974D01*
X31573585Y-73121673D01*
X31087577Y-73025000D01*
X31573585Y-72928327D01*
X31985603Y-72653026D01*
X32260904Y-72241008D01*
X32357577Y-71755000D01*
X32260904Y-71268992D01*
X31985603Y-70856974D01*
X31573585Y-70581673D01*
X31087577Y-70485000D01*
X31573585Y-70388327D01*
X31985603Y-70113026D01*
X32260904Y-69701008D01*
X32357577Y-69215000D01*
X32260904Y-68728992D01*
X31985603Y-68316974D01*
X31573585Y-68041673D01*
X31267400Y-67980769D01*
X31267400Y-66366152D01*
X32076152Y-65557400D01*
X61595000Y-65557400D01*
X61896325Y-65497463D01*
X62151776Y-65326776D01*
X63421776Y-64056776D01*
X63592463Y-63801325D01*
X63652400Y-63500000D01*
X63652400Y-61337440D01*
X63865000Y-61337440D01*
X64100317Y-61293162D01*
X64316441Y-61154090D01*
X64461431Y-60941890D01*
X64481551Y-60842532D01*
X69492073Y-60842532D01*
X69590736Y-61109387D01*
X70200461Y-61335908D01*
X70850460Y-61311856D01*
X71339264Y-61109387D01*
X71437927Y-60842532D01*
X71381145Y-60785750D01*
X74195000Y-60785750D01*
X74195000Y-62376309D01*
X74291673Y-62609698D01*
X74470301Y-62788327D01*
X74703690Y-62885000D01*
X76294250Y-62885000D01*
X76453000Y-62726250D01*
X76453000Y-60627000D01*
X74353750Y-60627000D01*
X74195000Y-60785750D01*
X71381145Y-60785750D01*
X70465000Y-59869605D01*
X69492073Y-60842532D01*
X64481551Y-60842532D01*
X64512440Y-60690000D01*
X64512440Y-59425461D01*
X68819092Y-59425461D01*
X68843144Y-60075460D01*
X69045613Y-60564264D01*
X69312468Y-60662927D01*
X70285395Y-59690000D01*
X70644605Y-59690000D01*
X71617532Y-60662927D01*
X71884387Y-60564264D01*
X72110908Y-59954539D01*
X72086856Y-59304540D01*
X71884387Y-58815736D01*
X71617532Y-58717073D01*
X70644605Y-59690000D01*
X70285395Y-59690000D01*
X69312468Y-58717073D01*
X69045613Y-58815736D01*
X68819092Y-59425461D01*
X64512440Y-59425461D01*
X64512440Y-58690000D01*
X64483740Y-58537468D01*
X69492073Y-58537468D01*
X70465000Y-59510395D01*
X71351704Y-58623691D01*
X74195000Y-58623691D01*
X74195000Y-60214250D01*
X74353750Y-60373000D01*
X76453000Y-60373000D01*
X76453000Y-58273750D01*
X76707000Y-58273750D01*
X76707000Y-60373000D01*
X78806250Y-60373000D01*
X78965000Y-60214250D01*
X78965000Y-59545304D01*
X78991673Y-59609698D01*
X79170301Y-59788327D01*
X79403690Y-59885000D01*
X80994250Y-59885000D01*
X81153000Y-59726250D01*
X81153000Y-57627000D01*
X81407000Y-57627000D01*
X81407000Y-59726250D01*
X81565750Y-59885000D01*
X83156310Y-59885000D01*
X83389699Y-59788327D01*
X83568327Y-59609698D01*
X83665000Y-59376309D01*
X83665000Y-58442619D01*
X89764613Y-58442619D01*
X90104155Y-59264372D01*
X90732321Y-59893636D01*
X91553481Y-60234611D01*
X92442619Y-60235387D01*
X93264372Y-59895845D01*
X93893636Y-59267679D01*
X94234611Y-58446519D01*
X94235387Y-57557381D01*
X93895845Y-56735628D01*
X93267679Y-56106364D01*
X92446519Y-55765389D01*
X91557381Y-55764613D01*
X90735628Y-56104155D01*
X90106364Y-56732321D01*
X89765389Y-57553481D01*
X89764613Y-58442619D01*
X83665000Y-58442619D01*
X83665000Y-57785750D01*
X83506250Y-57627000D01*
X81407000Y-57627000D01*
X81153000Y-57627000D01*
X79053750Y-57627000D01*
X78895000Y-57785750D01*
X78895000Y-58454696D01*
X78868327Y-58390302D01*
X78689699Y-58211673D01*
X78456310Y-58115000D01*
X76865750Y-58115000D01*
X76707000Y-58273750D01*
X76453000Y-58273750D01*
X76294250Y-58115000D01*
X74703690Y-58115000D01*
X74470301Y-58211673D01*
X74291673Y-58390302D01*
X74195000Y-58623691D01*
X71351704Y-58623691D01*
X71437927Y-58537468D01*
X71339264Y-58270613D01*
X70729539Y-58044092D01*
X70079540Y-58068144D01*
X69590736Y-58270613D01*
X69492073Y-58537468D01*
X64483740Y-58537468D01*
X64468162Y-58454683D01*
X64329090Y-58238559D01*
X64116890Y-58093569D01*
X63865000Y-58042560D01*
X61865000Y-58042560D01*
X61629683Y-58086838D01*
X61413559Y-58225910D01*
X61268569Y-58438110D01*
X61217560Y-58690000D01*
X61217560Y-60690000D01*
X61261838Y-60925317D01*
X61400910Y-61141441D01*
X61613110Y-61286431D01*
X61865000Y-61337440D01*
X62077600Y-61337440D01*
X62077600Y-63173848D01*
X61268848Y-63982600D01*
X56510952Y-63982600D01*
X57071776Y-63421776D01*
X57242463Y-63166325D01*
X57302400Y-62865000D01*
X57302400Y-59055418D01*
X57497878Y-58924803D01*
X57799193Y-58473855D01*
X57905000Y-57941925D01*
X57905000Y-56358075D01*
X57799193Y-55826145D01*
X57663918Y-55623691D01*
X78895000Y-55623691D01*
X78895000Y-57214250D01*
X79053750Y-57373000D01*
X81153000Y-57373000D01*
X81153000Y-55273750D01*
X81407000Y-55273750D01*
X81407000Y-57373000D01*
X83506250Y-57373000D01*
X83665000Y-57214250D01*
X83665000Y-55623691D01*
X83568327Y-55390302D01*
X83389699Y-55211673D01*
X83156310Y-55115000D01*
X81565750Y-55115000D01*
X81407000Y-55273750D01*
X81153000Y-55273750D01*
X80994250Y-55115000D01*
X79403690Y-55115000D01*
X79170301Y-55211673D01*
X78991673Y-55390302D01*
X78895000Y-55623691D01*
X57663918Y-55623691D01*
X57497878Y-55375197D01*
X57046930Y-55073882D01*
X56515000Y-54968075D01*
X55983070Y-55073882D01*
X55532122Y-55375197D01*
X55245000Y-55804904D01*
X54957878Y-55375197D01*
X54506930Y-55073882D01*
X53975000Y-54968075D01*
X53443070Y-55073882D01*
X52992122Y-55375197D01*
X52692249Y-55823987D01*
X52670592Y-55750737D01*
X52328076Y-55327319D01*
X51849597Y-55067207D01*
X51776971Y-55052723D01*
X51562000Y-55175317D01*
X51562000Y-57023000D01*
X51582000Y-57023000D01*
X51582000Y-57277000D01*
X51562000Y-57277000D01*
X51562000Y-59124683D01*
X51776971Y-59247277D01*
X51849597Y-59232793D01*
X52328076Y-58972681D01*
X52670592Y-58549263D01*
X52692249Y-58476013D01*
X52992122Y-58924803D01*
X53022500Y-58945101D01*
X53022500Y-61200462D01*
X52945462Y-61277500D01*
X46609000Y-61277500D01*
X46609000Y-58431475D01*
X47020551Y-58020643D01*
X47254733Y-57456670D01*
X47254889Y-57277000D01*
X50045000Y-57277000D01*
X50045000Y-58027000D01*
X50199408Y-58549263D01*
X50541924Y-58972681D01*
X51020403Y-59232793D01*
X51093029Y-59247277D01*
X51308000Y-59124683D01*
X51308000Y-57277000D01*
X50045000Y-57277000D01*
X47254889Y-57277000D01*
X47255265Y-56846009D01*
X47022068Y-56281629D01*
X47013455Y-56273000D01*
X50045000Y-56273000D01*
X50045000Y-57023000D01*
X51308000Y-57023000D01*
X51308000Y-55175317D01*
X51093029Y-55052723D01*
X51020403Y-55067207D01*
X50541924Y-55327319D01*
X50199408Y-55750737D01*
X50045000Y-56273000D01*
X47013455Y-56273000D01*
X46590643Y-55849449D01*
X46026670Y-55615267D01*
X45416009Y-55614735D01*
X44851629Y-55847932D01*
X44683387Y-56015880D01*
X44683162Y-56014683D01*
X44544090Y-55798559D01*
X44331890Y-55653569D01*
X44080000Y-55602560D01*
X42280000Y-55602560D01*
X42044683Y-55646838D01*
X41828559Y-55785910D01*
X41683569Y-55998110D01*
X41632560Y-56250000D01*
X41632560Y-56261000D01*
X39733880Y-56261000D01*
X39492204Y-56018902D01*
X39001713Y-55815232D01*
X38470617Y-55814769D01*
X37979771Y-56017582D01*
X37603902Y-56392796D01*
X37400232Y-56883287D01*
X37399769Y-57414383D01*
X37602582Y-57905229D01*
X37977796Y-58281098D01*
X38468287Y-58484768D01*
X38999383Y-58485231D01*
X39490229Y-58282418D01*
X39734072Y-58039000D01*
X41632560Y-58039000D01*
X41632560Y-58050000D01*
X41676838Y-58285317D01*
X41815910Y-58501441D01*
X42028110Y-58646431D01*
X42280000Y-58697440D01*
X44080000Y-58697440D01*
X44315317Y-58653162D01*
X44531441Y-58514090D01*
X44676431Y-58301890D01*
X44680567Y-58281466D01*
X44831000Y-58432162D01*
X44831000Y-61277500D01*
X26670000Y-61277500D01*
X26305494Y-61350005D01*
X26059036Y-61514683D01*
X25996481Y-61556481D01*
X25361481Y-62191481D01*
X25155005Y-62500494D01*
X25082500Y-62865000D01*
X25082500Y-71360462D01*
X23456481Y-72986481D01*
X23250005Y-73295494D01*
X23177500Y-73660000D01*
X23177500Y-77965560D01*
X22923500Y-77965560D01*
X22688183Y-78009838D01*
X22472059Y-78148910D01*
X22327069Y-78361110D01*
X22276060Y-78613000D01*
X22276060Y-80137000D01*
X22320338Y-80372317D01*
X22459410Y-80588441D01*
X22671610Y-80733431D01*
X22886440Y-80776935D01*
X22661595Y-80927172D01*
X22358763Y-81380391D01*
X22252423Y-81915000D01*
X20710000Y-81915000D01*
X20710000Y-58442619D01*
X22764613Y-58442619D01*
X23104155Y-59264372D01*
X23732321Y-59893636D01*
X24553481Y-60234611D01*
X25442619Y-60235387D01*
X26264372Y-59895845D01*
X26893636Y-59267679D01*
X27234611Y-58446519D01*
X27235387Y-57557381D01*
X27204790Y-57483329D01*
X29822284Y-57483329D01*
X29965203Y-57828396D01*
X30312337Y-58216764D01*
X30781669Y-58442727D01*
X30988000Y-58320206D01*
X30988000Y-57277000D01*
X31242000Y-57277000D01*
X31242000Y-58320206D01*
X31448331Y-58442727D01*
X31917663Y-58216764D01*
X32264797Y-57828396D01*
X32407716Y-57483329D01*
X32284374Y-57277000D01*
X31242000Y-57277000D01*
X30988000Y-57277000D01*
X29945626Y-57277000D01*
X29822284Y-57483329D01*
X27204790Y-57483329D01*
X26929332Y-56816671D01*
X29822284Y-56816671D01*
X29945626Y-57023000D01*
X30988000Y-57023000D01*
X30988000Y-55979794D01*
X31242000Y-55979794D01*
X31242000Y-57023000D01*
X32284374Y-57023000D01*
X32407716Y-56816671D01*
X32264797Y-56471604D01*
X31917663Y-56083236D01*
X31448331Y-55857273D01*
X31242000Y-55979794D01*
X30988000Y-55979794D01*
X30781669Y-55857273D01*
X30312337Y-56083236D01*
X29965203Y-56471604D01*
X29822284Y-56816671D01*
X26929332Y-56816671D01*
X26895845Y-56735628D01*
X26267679Y-56106364D01*
X25446519Y-55765389D01*
X24557381Y-55764613D01*
X23735628Y-56104155D01*
X23106364Y-56732321D01*
X22765389Y-57553481D01*
X22764613Y-58442619D01*
X20710000Y-58442619D01*
X20710000Y-53710000D01*
X96290000Y-53710000D01*
X96290000Y-113290000D01*
X96290000Y-113290000D01*
G37*
X96290000Y-113290000D02*
X20710000Y-113290000D01*
X20710000Y-109442619D01*
X22764613Y-109442619D01*
X23104155Y-110264372D01*
X23732321Y-110893636D01*
X24553481Y-111234611D01*
X25442619Y-111235387D01*
X26264372Y-110895845D01*
X26893636Y-110267679D01*
X27234611Y-109446519D01*
X27235387Y-108557381D01*
X26895845Y-107735628D01*
X26267679Y-107106364D01*
X25446519Y-106765389D01*
X24557381Y-106764613D01*
X23735628Y-107104155D01*
X23106364Y-107732321D01*
X22765389Y-108553481D01*
X22764613Y-109442619D01*
X20710000Y-109442619D01*
X20710000Y-102511661D01*
X24637758Y-102511661D01*
X24849990Y-103025303D01*
X25082500Y-103258219D01*
X25082500Y-104140000D01*
X25155005Y-104504506D01*
X25361481Y-104813519D01*
X28892500Y-108344538D01*
X28892500Y-111125000D01*
X28965005Y-111489506D01*
X29171481Y-111798519D01*
X29806481Y-112433519D01*
X30115494Y-112639995D01*
X30480000Y-112712500D01*
X58031904Y-112712500D01*
X58262630Y-112943629D01*
X58775900Y-113156757D01*
X59331661Y-113157242D01*
X59845303Y-112945010D01*
X60141830Y-112649000D01*
X71120000Y-112649000D01*
X71460206Y-112581329D01*
X71748618Y-112388618D01*
X72383618Y-111753618D01*
X72576330Y-111465205D01*
X72644000Y-111125000D01*
X72644000Y-110706285D01*
X72740317Y-110688162D01*
X72956441Y-110549090D01*
X73101431Y-110336890D01*
X73152440Y-110085000D01*
X73152440Y-109442619D01*
X89764613Y-109442619D01*
X90104155Y-110264372D01*
X90732321Y-110893636D01*
X91553481Y-111234611D01*
X92442619Y-111235387D01*
X93264372Y-110895845D01*
X93893636Y-110267679D01*
X94234611Y-109446519D01*
X94235387Y-108557381D01*
X93895845Y-107735628D01*
X93267679Y-107106364D01*
X92446519Y-106765389D01*
X91557381Y-106764613D01*
X90735628Y-107104155D01*
X90106364Y-107732321D01*
X89765389Y-108553481D01*
X89764613Y-109442619D01*
X73152440Y-109442619D01*
X73152440Y-107085000D01*
X73108162Y-106849683D01*
X72969090Y-106633559D01*
X72756890Y-106488569D01*
X72644000Y-106465708D01*
X72644000Y-105342531D01*
X72737878Y-105279803D01*
X73025000Y-104850096D01*
X73312122Y-105279803D01*
X73763070Y-105581118D01*
X74295000Y-105686925D01*
X74826930Y-105581118D01*
X75277878Y-105279803D01*
X75579193Y-104828855D01*
X75685000Y-104296925D01*
X75685000Y-102713075D01*
X75579193Y-102181145D01*
X75277878Y-101730197D01*
X74826930Y-101428882D01*
X74295000Y-101323075D01*
X73763070Y-101428882D01*
X73312122Y-101730197D01*
X73025000Y-102159904D01*
X72737878Y-101730197D01*
X72707500Y-101709899D01*
X72707500Y-101359538D01*
X73698519Y-100368519D01*
X73904995Y-100059506D01*
X73977500Y-99695000D01*
X73977500Y-95644538D01*
X74689538Y-94932500D01*
X88265000Y-94932500D01*
X88265000Y-99377500D01*
X88337505Y-99742006D01*
X88543981Y-100051019D01*
X89496481Y-101003519D01*
X89805494Y-101209995D01*
X90170000Y-101282500D01*
X90914899Y-101282500D01*
X90935197Y-101312878D01*
X91364904Y-101600000D01*
X90935197Y-101887122D01*
X90804582Y-102082600D01*
X87630000Y-102082600D01*
X87328675Y-102142537D01*
X87073224Y-102313224D01*
X87043253Y-102343195D01*
X86626713Y-102170232D01*
X86095617Y-102169769D01*
X85604771Y-102372582D01*
X85228902Y-102747796D01*
X85025232Y-103238287D01*
X85024769Y-103769383D01*
X85227582Y-104260229D01*
X85572600Y-104605849D01*
X85572600Y-105718848D01*
X85398848Y-105892600D01*
X77796152Y-105892600D01*
X77622400Y-105718848D01*
X77622400Y-104228301D01*
X77769858Y-104448988D01*
X78202964Y-104738379D01*
X78713846Y-104840000D01*
X78766154Y-104840000D01*
X79277036Y-104738379D01*
X79710142Y-104448988D01*
X79999533Y-104015882D01*
X80101154Y-103505000D01*
X79999533Y-102994118D01*
X79710142Y-102561012D01*
X79527400Y-102438908D01*
X79527400Y-99386152D01*
X80116435Y-98797117D01*
X80409357Y-99090551D01*
X80973330Y-99324733D01*
X81583991Y-99325265D01*
X82148371Y-99092068D01*
X82325841Y-98914908D01*
X82381673Y-99049699D01*
X82560302Y-99228327D01*
X82793691Y-99325000D01*
X83534250Y-99325000D01*
X83693000Y-99166250D01*
X83693000Y-97917000D01*
X83947000Y-97917000D01*
X83947000Y-99166250D01*
X84105750Y-99325000D01*
X84846309Y-99325000D01*
X85079698Y-99228327D01*
X85258327Y-99049699D01*
X85355000Y-98816310D01*
X85355000Y-98075750D01*
X85196250Y-97917000D01*
X83947000Y-97917000D01*
X83693000Y-97917000D01*
X83673000Y-97917000D01*
X83673000Y-97663000D01*
X83693000Y-97663000D01*
X83693000Y-96413750D01*
X83947000Y-96413750D01*
X83947000Y-97663000D01*
X85196250Y-97663000D01*
X85355000Y-97504250D01*
X85355000Y-96763690D01*
X85258327Y-96530301D01*
X85079698Y-96351673D01*
X84846309Y-96255000D01*
X84105750Y-96255000D01*
X83947000Y-96413750D01*
X83693000Y-96413750D01*
X83534250Y-96255000D01*
X82793691Y-96255000D01*
X82560302Y-96351673D01*
X82381673Y-96530301D01*
X82325881Y-96664994D01*
X82150643Y-96489449D01*
X81586670Y-96255267D01*
X80976009Y-96254735D01*
X80411629Y-96487932D01*
X79979449Y-96919357D01*
X79939021Y-97016719D01*
X79708675Y-97062537D01*
X79453224Y-97233224D01*
X78183224Y-98503224D01*
X78012537Y-98758675D01*
X77952600Y-99060000D01*
X77952600Y-102438908D01*
X77769858Y-102561012D01*
X77622400Y-102781699D01*
X77622400Y-100330000D01*
X77562463Y-100028675D01*
X77391776Y-99773224D01*
X76474536Y-98855984D01*
X76748629Y-98582370D01*
X76961757Y-98069100D01*
X76962242Y-97513339D01*
X76750010Y-96999697D01*
X76357370Y-96606371D01*
X75844100Y-96393243D01*
X75288339Y-96392758D01*
X74774697Y-96604990D01*
X74381371Y-96997630D01*
X74168243Y-97510900D01*
X74167758Y-98066661D01*
X74379990Y-98580303D01*
X74772630Y-98973629D01*
X74777600Y-98975693D01*
X74777600Y-99060000D01*
X74837537Y-99361325D01*
X75008224Y-99616776D01*
X76047600Y-100656152D01*
X76047600Y-106045000D01*
X76107537Y-106346325D01*
X76278224Y-106601776D01*
X76913224Y-107236776D01*
X77168675Y-107407463D01*
X77470000Y-107467400D01*
X85725000Y-107467400D01*
X86026325Y-107407463D01*
X86281776Y-107236776D01*
X86916776Y-106601776D01*
X87087463Y-106346325D01*
X87147400Y-106045000D01*
X87147400Y-104605303D01*
X87491098Y-104262204D01*
X87590334Y-104023218D01*
X87956152Y-103657400D01*
X90804582Y-103657400D01*
X90935197Y-103852878D01*
X91386145Y-104154193D01*
X91918075Y-104260000D01*
X93501925Y-104260000D01*
X94033855Y-104154193D01*
X94484803Y-103852878D01*
X94786118Y-103401930D01*
X94891925Y-102870000D01*
X94786118Y-102338070D01*
X94484803Y-101887122D01*
X94055096Y-101600000D01*
X94484803Y-101312878D01*
X94786118Y-100861930D01*
X94891925Y-100330000D01*
X94786118Y-99798070D01*
X94484803Y-99347122D01*
X94036013Y-99047249D01*
X94109263Y-99025592D01*
X94532681Y-98683076D01*
X94792793Y-98204597D01*
X94807277Y-98131971D01*
X94684683Y-97917000D01*
X92837000Y-97917000D01*
X92837000Y-97937000D01*
X92583000Y-97937000D01*
X92583000Y-97917000D01*
X90735317Y-97917000D01*
X90612723Y-98131971D01*
X90627207Y-98204597D01*
X90887319Y-98683076D01*
X91310737Y-99025592D01*
X91383987Y-99047249D01*
X90935197Y-99347122D01*
X90914899Y-99377500D01*
X90564538Y-99377500D01*
X90170000Y-98982962D01*
X90170000Y-97448029D01*
X90612723Y-97448029D01*
X90735317Y-97663000D01*
X92583000Y-97663000D01*
X92583000Y-96400000D01*
X92837000Y-96400000D01*
X92837000Y-97663000D01*
X94684683Y-97663000D01*
X94807277Y-97448029D01*
X94792793Y-97375403D01*
X94532681Y-96896924D01*
X94109263Y-96554408D01*
X93587000Y-96400000D01*
X92837000Y-96400000D01*
X92583000Y-96400000D01*
X91833000Y-96400000D01*
X91310737Y-96554408D01*
X90887319Y-96896924D01*
X90627207Y-97375403D01*
X90612723Y-97448029D01*
X90170000Y-97448029D01*
X90170000Y-84137500D01*
X90914899Y-84137500D01*
X90935197Y-84167878D01*
X91364904Y-84455000D01*
X90935197Y-84742122D01*
X90633882Y-85193070D01*
X90528075Y-85725000D01*
X90633882Y-86256930D01*
X90935197Y-86707878D01*
X91386145Y-87009193D01*
X91918075Y-87115000D01*
X91922600Y-87115000D01*
X91922600Y-90253791D01*
X91919697Y-90254990D01*
X91526371Y-90647630D01*
X91313243Y-91160900D01*
X91312758Y-91716661D01*
X91524990Y-92230303D01*
X91917630Y-92623629D01*
X92430900Y-92836757D01*
X92986661Y-92837242D01*
X93500303Y-92625010D01*
X93893629Y-92232370D01*
X94106757Y-91719100D01*
X94107242Y-91163339D01*
X93895010Y-90649697D01*
X93502370Y-90256371D01*
X93497400Y-90254307D01*
X93497400Y-87115000D01*
X93501925Y-87115000D01*
X94033855Y-87009193D01*
X94484803Y-86707878D01*
X94786118Y-86256930D01*
X94891925Y-85725000D01*
X94786118Y-85193070D01*
X94484803Y-84742122D01*
X94055096Y-84455000D01*
X94484803Y-84167878D01*
X94786118Y-83716930D01*
X94891925Y-83185000D01*
X94786118Y-82653070D01*
X94484803Y-82202122D01*
X94036013Y-81902249D01*
X94109263Y-81880592D01*
X94532681Y-81538076D01*
X94792793Y-81059597D01*
X94807277Y-80986971D01*
X94684683Y-80772000D01*
X92837000Y-80772000D01*
X92837000Y-80792000D01*
X92583000Y-80792000D01*
X92583000Y-80772000D01*
X90735317Y-80772000D01*
X90612723Y-80986971D01*
X90627207Y-81059597D01*
X90887319Y-81538076D01*
X91310737Y-81880592D01*
X91383987Y-81902249D01*
X90935197Y-82202122D01*
X90914899Y-82232500D01*
X90170000Y-82232500D01*
X90170000Y-80303029D01*
X90612723Y-80303029D01*
X90735317Y-80518000D01*
X92583000Y-80518000D01*
X92583000Y-79255000D01*
X92837000Y-79255000D01*
X92837000Y-80518000D01*
X94684683Y-80518000D01*
X94807277Y-80303029D01*
X94792793Y-80230403D01*
X94532681Y-79751924D01*
X94109263Y-79409408D01*
X93587000Y-79255000D01*
X92837000Y-79255000D01*
X92583000Y-79255000D01*
X91833000Y-79255000D01*
X91310737Y-79409408D01*
X90887319Y-79751924D01*
X90627207Y-80230403D01*
X90612723Y-80303029D01*
X90170000Y-80303029D01*
X90170000Y-68022038D01*
X90564539Y-67627500D01*
X90914899Y-67627500D01*
X90935197Y-67657878D01*
X91364904Y-67945000D01*
X90935197Y-68232122D01*
X90633882Y-68683070D01*
X90528075Y-69215000D01*
X90633882Y-69746930D01*
X90935197Y-70197878D01*
X91386145Y-70499193D01*
X91918075Y-70605000D01*
X91922600Y-70605000D01*
X91922600Y-71203791D01*
X91919697Y-71204990D01*
X91526371Y-71597630D01*
X91313243Y-72110900D01*
X91312758Y-72666661D01*
X91524990Y-73180303D01*
X91917630Y-73573629D01*
X92430900Y-73786757D01*
X92986661Y-73787242D01*
X93500303Y-73575010D01*
X93893629Y-73182370D01*
X94106757Y-72669100D01*
X94107242Y-72113339D01*
X93895010Y-71599697D01*
X93502370Y-71206371D01*
X93497400Y-71204307D01*
X93497400Y-70605000D01*
X93501925Y-70605000D01*
X94033855Y-70499193D01*
X94484803Y-70197878D01*
X94786118Y-69746930D01*
X94891925Y-69215000D01*
X94786118Y-68683070D01*
X94484803Y-68232122D01*
X94055096Y-67945000D01*
X94484803Y-67657878D01*
X94786118Y-67206930D01*
X94891925Y-66675000D01*
X94786118Y-66143070D01*
X94484803Y-65692122D01*
X94036013Y-65392249D01*
X94109263Y-65370592D01*
X94532681Y-65028076D01*
X94792793Y-64549597D01*
X94807277Y-64476971D01*
X94684683Y-64262000D01*
X92837000Y-64262000D01*
X92837000Y-64282000D01*
X92583000Y-64282000D01*
X92583000Y-64262000D01*
X90735317Y-64262000D01*
X90612723Y-64476971D01*
X90627207Y-64549597D01*
X90887319Y-65028076D01*
X91310737Y-65370592D01*
X91383987Y-65392249D01*
X90935197Y-65692122D01*
X90914899Y-65722500D01*
X90170000Y-65722500D01*
X89805494Y-65795005D01*
X89496480Y-66001481D01*
X88543981Y-66953981D01*
X88337505Y-67262994D01*
X88265000Y-67627500D01*
X88265000Y-93027500D01*
X74295000Y-93027500D01*
X73930494Y-93100005D01*
X73621481Y-93306481D01*
X72351481Y-94576481D01*
X72145005Y-94885494D01*
X72072500Y-95250000D01*
X72072500Y-99300462D01*
X71081481Y-100291481D01*
X70875005Y-100600494D01*
X70802500Y-100965000D01*
X70802500Y-101709899D01*
X70772122Y-101730197D01*
X70472249Y-102178987D01*
X70450592Y-102105737D01*
X70108076Y-101682319D01*
X69629597Y-101422207D01*
X69556971Y-101407723D01*
X69342000Y-101530317D01*
X69342000Y-103378000D01*
X69362000Y-103378000D01*
X69362000Y-103632000D01*
X69342000Y-103632000D01*
X69342000Y-105479683D01*
X69556971Y-105602277D01*
X69629597Y-105587793D01*
X70108076Y-105327681D01*
X70450592Y-104904263D01*
X70472249Y-104831013D01*
X70772122Y-105279803D01*
X70866000Y-105342531D01*
X70866000Y-106463715D01*
X70769683Y-106481838D01*
X70553559Y-106620910D01*
X70408569Y-106833110D01*
X70358624Y-107079744D01*
X70104540Y-106765855D01*
X69627684Y-106506827D01*
X69556185Y-106492682D01*
X69342000Y-106615344D01*
X69342000Y-108458000D01*
X69362000Y-108458000D01*
X69362000Y-108712000D01*
X69342000Y-108712000D01*
X69342000Y-110554656D01*
X69556185Y-110677318D01*
X69627684Y-110663173D01*
X70104540Y-110404145D01*
X70358563Y-110090332D01*
X70401838Y-110320317D01*
X70540910Y-110536441D01*
X70753110Y-110681431D01*
X70866000Y-110704292D01*
X70866000Y-110756764D01*
X70751764Y-110871000D01*
X60141485Y-110871000D01*
X59847370Y-110576371D01*
X59334100Y-110363243D01*
X58778339Y-110362758D01*
X58264697Y-110574990D01*
X58031781Y-110807500D01*
X54927500Y-110807500D01*
X54927500Y-110380101D01*
X54957878Y-110359803D01*
X55257751Y-109911013D01*
X55279408Y-109984263D01*
X55621924Y-110407681D01*
X56100403Y-110667793D01*
X56173029Y-110682277D01*
X56388000Y-110559683D01*
X56388000Y-108712000D01*
X56642000Y-108712000D01*
X56642000Y-110559683D01*
X56856971Y-110682277D01*
X56929597Y-110667793D01*
X57408076Y-110407681D01*
X57750592Y-109984263D01*
X57905000Y-109462000D01*
X57905000Y-108712000D01*
X56642000Y-108712000D01*
X56388000Y-108712000D01*
X56368000Y-108712000D01*
X56368000Y-108458000D01*
X56388000Y-108458000D01*
X56388000Y-106610317D01*
X56642000Y-106610317D01*
X56642000Y-108458000D01*
X57905000Y-108458000D01*
X57905000Y-107708000D01*
X57750592Y-107185737D01*
X57408076Y-106762319D01*
X56929597Y-106502207D01*
X56856971Y-106487723D01*
X56642000Y-106610317D01*
X56388000Y-106610317D01*
X56173029Y-106487723D01*
X56100403Y-106502207D01*
X55621924Y-106762319D01*
X55279408Y-107185737D01*
X55257751Y-107258987D01*
X54957878Y-106810197D01*
X54506930Y-106508882D01*
X53975000Y-106403075D01*
X53443070Y-106508882D01*
X52992122Y-106810197D01*
X52705000Y-107239904D01*
X52417878Y-106810197D01*
X51966930Y-106508882D01*
X51435000Y-106403075D01*
X50903070Y-106508882D01*
X50452122Y-106810197D01*
X50150807Y-107261145D01*
X50045000Y-107793075D01*
X50045000Y-109067600D01*
X41998301Y-109067600D01*
X42218988Y-108920142D01*
X42341092Y-108737400D01*
X48260000Y-108737400D01*
X48561325Y-108677463D01*
X48816776Y-108506776D01*
X49451776Y-107871776D01*
X49622463Y-107616325D01*
X49682400Y-107315000D01*
X49682400Y-105736152D01*
X49856152Y-105562400D01*
X58093848Y-105562400D01*
X58267600Y-105736152D01*
X58267600Y-107950000D01*
X58327537Y-108251325D01*
X58498224Y-108506776D01*
X59133224Y-109141776D01*
X59388675Y-109312463D01*
X59690000Y-109372400D01*
X62750000Y-109372400D01*
X62750000Y-109376827D01*
X62855427Y-109906844D01*
X63155657Y-110356170D01*
X63604983Y-110656400D01*
X64135000Y-110761827D01*
X64665017Y-110656400D01*
X65114343Y-110356170D01*
X65405000Y-109921171D01*
X65695657Y-110356170D01*
X66144983Y-110656400D01*
X66675000Y-110761827D01*
X67205017Y-110656400D01*
X67654343Y-110356170D01*
X67954573Y-109906844D01*
X67957428Y-109892489D01*
X67984028Y-109982349D01*
X68325460Y-110404145D01*
X68802316Y-110663173D01*
X68873815Y-110677318D01*
X69088000Y-110554656D01*
X69088000Y-108712000D01*
X69068000Y-108712000D01*
X69068000Y-108458000D01*
X69088000Y-108458000D01*
X69088000Y-106615344D01*
X68873815Y-106492682D01*
X68802316Y-106506827D01*
X68325460Y-106765855D01*
X67984028Y-107187651D01*
X67957428Y-107277511D01*
X67954573Y-107263156D01*
X67654343Y-106813830D01*
X67462400Y-106685578D01*
X67462400Y-105410418D01*
X67657878Y-105279803D01*
X67957751Y-104831013D01*
X67979408Y-104904263D01*
X68321924Y-105327681D01*
X68800403Y-105587793D01*
X68873029Y-105602277D01*
X69088000Y-105479683D01*
X69088000Y-103632000D01*
X69068000Y-103632000D01*
X69068000Y-103378000D01*
X69088000Y-103378000D01*
X69088000Y-101530317D01*
X68873029Y-101407723D01*
X68800403Y-101422207D01*
X68321924Y-101682319D01*
X67979408Y-102105737D01*
X67957751Y-102178987D01*
X67657878Y-101730197D01*
X67462304Y-101599518D01*
X67402463Y-101298675D01*
X67231776Y-101043224D01*
X66596776Y-100408224D01*
X66341325Y-100237537D01*
X66040000Y-100177600D01*
X53340000Y-100177600D01*
X53038675Y-100237537D01*
X52783224Y-100408224D01*
X51743848Y-101447600D01*
X47299521Y-101447600D01*
X47225603Y-101336974D01*
X46813585Y-101061673D01*
X46327577Y-100965000D01*
X46813585Y-100868327D01*
X47225603Y-100593026D01*
X47500904Y-100181008D01*
X47597577Y-99695000D01*
X47500904Y-99208992D01*
X47225603Y-98796974D01*
X46813585Y-98521673D01*
X46327577Y-98425000D01*
X46418500Y-98425000D01*
X46894841Y-98279726D01*
X47279328Y-97963223D01*
X47513428Y-97523675D01*
X47519709Y-97478112D01*
X47395469Y-97282000D01*
X45847000Y-97282000D01*
X45847000Y-98425000D01*
X45593000Y-98425000D01*
X45593000Y-97282000D01*
X44044531Y-97282000D01*
X43920291Y-97478112D01*
X43926572Y-97523675D01*
X44160672Y-97963223D01*
X44545159Y-98279726D01*
X45021500Y-98425000D01*
X45112423Y-98425000D01*
X44626415Y-98521673D01*
X44214397Y-98796974D01*
X43939096Y-99208992D01*
X43842423Y-99695000D01*
X43939096Y-100181008D01*
X44214397Y-100593026D01*
X44626415Y-100868327D01*
X45112423Y-100965000D01*
X44626415Y-101061673D01*
X44214397Y-101336974D01*
X43939096Y-101748992D01*
X43842423Y-102235000D01*
X43939096Y-102721008D01*
X44214397Y-103133026D01*
X44626415Y-103408327D01*
X45112423Y-103505000D01*
X44626415Y-103601673D01*
X44214397Y-103876974D01*
X44140479Y-103987600D01*
X42871152Y-103987600D01*
X42062400Y-103178848D01*
X42062400Y-101430303D01*
X42406098Y-101087204D01*
X42609768Y-100596713D01*
X42610231Y-100065617D01*
X42407418Y-99574771D01*
X42032204Y-99198902D01*
X41541713Y-98995232D01*
X41010617Y-98994769D01*
X40519771Y-99197582D01*
X40143902Y-99572796D01*
X39940232Y-100063287D01*
X39939769Y-100594383D01*
X40142582Y-101085229D01*
X40487600Y-101430849D01*
X40487600Y-103505000D01*
X40547537Y-103806325D01*
X40718224Y-104061776D01*
X41988224Y-105331776D01*
X42243675Y-105502463D01*
X42545000Y-105562400D01*
X44140479Y-105562400D01*
X44214397Y-105673026D01*
X44626415Y-105948327D01*
X45112423Y-106045000D01*
X46327577Y-106045000D01*
X46813585Y-105948327D01*
X47225603Y-105673026D01*
X47500904Y-105261008D01*
X47597577Y-104775000D01*
X47500904Y-104288992D01*
X47225603Y-103876974D01*
X46813585Y-103601673D01*
X46327577Y-103505000D01*
X46813585Y-103408327D01*
X47225603Y-103133026D01*
X47299521Y-103022400D01*
X52070000Y-103022400D01*
X52371325Y-102962463D01*
X52626776Y-102791776D01*
X53666152Y-101752400D01*
X60597286Y-101752400D01*
X60310807Y-102181145D01*
X60205000Y-102713075D01*
X60205000Y-104296925D01*
X60310807Y-104828855D01*
X60612122Y-105279803D01*
X61063070Y-105581118D01*
X61595000Y-105686925D01*
X62126930Y-105581118D01*
X62577878Y-105279803D01*
X62865000Y-104850096D01*
X63152122Y-105279803D01*
X63347600Y-105410418D01*
X63347600Y-106685578D01*
X63155657Y-106813830D01*
X62855427Y-107263156D01*
X62750000Y-107793173D01*
X62750000Y-107797600D01*
X60016152Y-107797600D01*
X59842400Y-107623848D01*
X59842400Y-105410000D01*
X59782463Y-105108675D01*
X59611776Y-104853224D01*
X58976776Y-104218224D01*
X58721325Y-104047537D01*
X58420000Y-103987600D01*
X49530000Y-103987600D01*
X49228675Y-104047537D01*
X48973224Y-104218224D01*
X48338224Y-104853224D01*
X48167537Y-105108675D01*
X48107600Y-105410000D01*
X48107600Y-106988848D01*
X47933848Y-107162600D01*
X42341092Y-107162600D01*
X42218988Y-106979858D01*
X41785882Y-106690467D01*
X41275000Y-106588846D01*
X40764118Y-106690467D01*
X40331012Y-106979858D01*
X40208908Y-107162600D01*
X39200303Y-107162600D01*
X38857204Y-106818902D01*
X38366713Y-106615232D01*
X37835617Y-106614769D01*
X37344771Y-106817582D01*
X36968902Y-107192796D01*
X36765232Y-107683287D01*
X36764769Y-108214383D01*
X36967582Y-108705229D01*
X37329322Y-109067600D01*
X34841209Y-109067600D01*
X34840010Y-109064697D01*
X34447370Y-108671371D01*
X33934100Y-108458243D01*
X33378339Y-108457758D01*
X32864697Y-108669990D01*
X32471371Y-109062630D01*
X32258243Y-109575900D01*
X32257758Y-110131661D01*
X32469990Y-110645303D01*
X32631904Y-110807500D01*
X30874538Y-110807500D01*
X30797500Y-110730462D01*
X30797500Y-107950000D01*
X30724995Y-107585494D01*
X30518519Y-107276481D01*
X26987500Y-103745462D01*
X26987500Y-103258096D01*
X27218629Y-103027370D01*
X27431757Y-102514100D01*
X27432242Y-101958339D01*
X27220010Y-101444697D01*
X26827370Y-101051371D01*
X26314100Y-100838243D01*
X25758339Y-100837758D01*
X25244697Y-101049990D01*
X24851371Y-101442630D01*
X24638243Y-101955900D01*
X24637758Y-102511661D01*
X20710000Y-102511661D01*
X20710000Y-87338070D01*
X22331280Y-87338070D01*
X22346240Y-87412277D01*
X22607870Y-87893026D01*
X23033559Y-88237059D01*
X23558500Y-88392000D01*
X24003000Y-88392000D01*
X24003000Y-87122000D01*
X22453780Y-87122000D01*
X22331280Y-87338070D01*
X20710000Y-87338070D01*
X20710000Y-81915000D01*
X22252423Y-81915000D01*
X22358763Y-82449609D01*
X22661595Y-82902828D01*
X23083894Y-83185000D01*
X22661595Y-83467172D01*
X22358763Y-83920391D01*
X22252423Y-84455000D01*
X22358763Y-84989609D01*
X22661595Y-85442828D01*
X23097476Y-85734075D01*
X23033559Y-85752941D01*
X22607870Y-86096974D01*
X22346240Y-86577723D01*
X22331280Y-86651930D01*
X22453780Y-86868000D01*
X24003000Y-86868000D01*
X24003000Y-86848000D01*
X24257000Y-86848000D01*
X24257000Y-86868000D01*
X24277000Y-86868000D01*
X24277000Y-87122000D01*
X24257000Y-87122000D01*
X24257000Y-88392000D01*
X24701500Y-88392000D01*
X25226441Y-88237059D01*
X25652130Y-87893026D01*
X25913760Y-87412277D01*
X25928720Y-87338070D01*
X25806221Y-87122002D01*
X25907889Y-87122002D01*
X25907758Y-87271661D01*
X26119990Y-87785303D01*
X26352500Y-88018219D01*
X26352500Y-89881606D01*
X25242472Y-91546648D01*
X25206850Y-91632903D01*
X25155005Y-91710494D01*
X25136607Y-91802987D01*
X25100608Y-91890154D01*
X25100706Y-91983474D01*
X25082500Y-92075000D01*
X25082500Y-96131904D01*
X24851371Y-96362630D01*
X24638243Y-96875900D01*
X24637758Y-97431661D01*
X24849990Y-97945303D01*
X25242630Y-98338629D01*
X25755900Y-98551757D01*
X26311661Y-98552242D01*
X26825303Y-98340010D01*
X27058219Y-98107500D01*
X29055923Y-98107500D01*
X29386415Y-98328327D01*
X29872423Y-98425000D01*
X29386415Y-98521673D01*
X28974397Y-98796974D01*
X28699096Y-99208992D01*
X28602423Y-99695000D01*
X28699096Y-100181008D01*
X28974397Y-100593026D01*
X29386415Y-100868327D01*
X29872423Y-100965000D01*
X29781500Y-100965000D01*
X29305159Y-101110274D01*
X28920672Y-101426777D01*
X28686572Y-101866325D01*
X28680291Y-101911888D01*
X28804531Y-102108000D01*
X30353000Y-102108000D01*
X30353000Y-100965000D01*
X30607000Y-100965000D01*
X30607000Y-102108000D01*
X32155469Y-102108000D01*
X32279709Y-101911888D01*
X32273428Y-101866325D01*
X32039328Y-101426777D01*
X31654841Y-101110274D01*
X31178500Y-100965000D01*
X31087577Y-100965000D01*
X31573585Y-100868327D01*
X31985603Y-100593026D01*
X32260904Y-100181008D01*
X32357577Y-99695000D01*
X32260904Y-99208992D01*
X31985603Y-98796974D01*
X31573585Y-98521673D01*
X31087577Y-98425000D01*
X31573585Y-98328327D01*
X31985603Y-98053026D01*
X32232600Y-97683368D01*
X32232600Y-98425000D01*
X32292537Y-98726325D01*
X32463224Y-98981776D01*
X32867600Y-99386152D01*
X32867600Y-99778791D01*
X32864697Y-99779990D01*
X32471371Y-100172630D01*
X32258243Y-100685900D01*
X32257758Y-101241661D01*
X32469990Y-101755303D01*
X32862630Y-102148629D01*
X33375900Y-102361757D01*
X33931661Y-102362242D01*
X34445303Y-102150010D01*
X34838629Y-101757370D01*
X35051757Y-101244100D01*
X35052242Y-100688339D01*
X34840010Y-100174697D01*
X34447370Y-99781371D01*
X34442400Y-99779307D01*
X34442400Y-99060000D01*
X34382463Y-98758675D01*
X34211776Y-98503224D01*
X33807400Y-98098848D01*
X33807400Y-98019438D01*
X35242500Y-99454538D01*
X35242500Y-103745462D01*
X35165462Y-103822500D01*
X31904077Y-103822500D01*
X31573585Y-103601673D01*
X31087577Y-103505000D01*
X31178500Y-103505000D01*
X31654841Y-103359726D01*
X32039328Y-103043223D01*
X32273428Y-102603675D01*
X32279709Y-102558112D01*
X32155469Y-102362000D01*
X30607000Y-102362000D01*
X30607000Y-103505000D01*
X30353000Y-103505000D01*
X30353000Y-102362000D01*
X28804531Y-102362000D01*
X28680291Y-102558112D01*
X28686572Y-102603675D01*
X28920672Y-103043223D01*
X29305159Y-103359726D01*
X29781500Y-103505000D01*
X29872423Y-103505000D01*
X29386415Y-103601673D01*
X28974397Y-103876974D01*
X28699096Y-104288992D01*
X28602423Y-104775000D01*
X28699096Y-105261008D01*
X28974397Y-105673026D01*
X29386415Y-105948327D01*
X29872423Y-106045000D01*
X31087577Y-106045000D01*
X31573585Y-105948327D01*
X31904077Y-105727500D01*
X35560000Y-105727500D01*
X35924506Y-105654995D01*
X36233519Y-105448519D01*
X36868519Y-104813519D01*
X36996087Y-104622600D01*
X37074995Y-104504506D01*
X37147500Y-104140000D01*
X37147500Y-101234795D01*
X37421604Y-101479797D01*
X37766671Y-101622716D01*
X37973000Y-101499374D01*
X37973000Y-100457000D01*
X38227000Y-100457000D01*
X38227000Y-101499374D01*
X38433329Y-101622716D01*
X38778396Y-101479797D01*
X39166764Y-101132663D01*
X39392727Y-100663331D01*
X39270206Y-100457000D01*
X38227000Y-100457000D01*
X37973000Y-100457000D01*
X37953000Y-100457000D01*
X37953000Y-100203000D01*
X37973000Y-100203000D01*
X37973000Y-99160626D01*
X38227000Y-99160626D01*
X38227000Y-100203000D01*
X39270206Y-100203000D01*
X39392727Y-99996669D01*
X39166764Y-99527337D01*
X38778396Y-99180203D01*
X38433329Y-99037284D01*
X38227000Y-99160626D01*
X37973000Y-99160626D01*
X37766671Y-99037284D01*
X37421604Y-99180203D01*
X37147500Y-99425205D01*
X37147500Y-99060000D01*
X37074995Y-98695494D01*
X36868519Y-98386481D01*
X35970369Y-97488331D01*
X36807273Y-97488331D01*
X37033236Y-97957663D01*
X37421604Y-98304797D01*
X37766671Y-98447716D01*
X37973000Y-98324374D01*
X37973000Y-97282000D01*
X38227000Y-97282000D01*
X38227000Y-98324374D01*
X38433329Y-98447716D01*
X38778396Y-98304797D01*
X39166764Y-97957663D01*
X39392727Y-97488331D01*
X39982273Y-97488331D01*
X40208236Y-97957663D01*
X40596604Y-98304797D01*
X40941671Y-98447716D01*
X41148000Y-98324374D01*
X41148000Y-97282000D01*
X41402000Y-97282000D01*
X41402000Y-98324374D01*
X41608329Y-98447716D01*
X41953396Y-98304797D01*
X42341764Y-97957663D01*
X42567727Y-97488331D01*
X42445206Y-97282000D01*
X41402000Y-97282000D01*
X41148000Y-97282000D01*
X40104794Y-97282000D01*
X39982273Y-97488331D01*
X39392727Y-97488331D01*
X39270206Y-97282000D01*
X38227000Y-97282000D01*
X37973000Y-97282000D01*
X36929794Y-97282000D01*
X36807273Y-97488331D01*
X35970369Y-97488331D01*
X35303707Y-96821669D01*
X36807273Y-96821669D01*
X36929794Y-97028000D01*
X37973000Y-97028000D01*
X37973000Y-95985626D01*
X38227000Y-95985626D01*
X38227000Y-97028000D01*
X39270206Y-97028000D01*
X39392727Y-96821669D01*
X39982273Y-96821669D01*
X40104794Y-97028000D01*
X41148000Y-97028000D01*
X41148000Y-95985626D01*
X41402000Y-95985626D01*
X41402000Y-97028000D01*
X42445206Y-97028000D01*
X42567727Y-96821669D01*
X42341764Y-96352337D01*
X41953396Y-96005203D01*
X41608329Y-95862284D01*
X41402000Y-95985626D01*
X41148000Y-95985626D01*
X40941671Y-95862284D01*
X40596604Y-96005203D01*
X40208236Y-96352337D01*
X39982273Y-96821669D01*
X39392727Y-96821669D01*
X39166764Y-96352337D01*
X38778396Y-96005203D01*
X38433329Y-95862284D01*
X38227000Y-95985626D01*
X37973000Y-95985626D01*
X37766671Y-95862284D01*
X37421604Y-96005203D01*
X37033236Y-96352337D01*
X36807273Y-96821669D01*
X35303707Y-96821669D01*
X35242500Y-96760462D01*
X35242500Y-93506052D01*
X35638224Y-93901776D01*
X35893675Y-94072463D01*
X36195000Y-94132400D01*
X43938418Y-94132400D01*
X43842423Y-94615000D01*
X43939096Y-95101008D01*
X44214397Y-95513026D01*
X44626415Y-95788327D01*
X45112423Y-95885000D01*
X45021500Y-95885000D01*
X44545159Y-96030274D01*
X44160672Y-96346777D01*
X43926572Y-96786325D01*
X43920291Y-96831888D01*
X44044531Y-97028000D01*
X45593000Y-97028000D01*
X45593000Y-95885000D01*
X45847000Y-95885000D01*
X45847000Y-97028000D01*
X47395469Y-97028000D01*
X47519709Y-96831888D01*
X47513428Y-96786325D01*
X47279328Y-96346777D01*
X46894841Y-96030274D01*
X46418500Y-95885000D01*
X46327577Y-95885000D01*
X46813585Y-95788327D01*
X47225603Y-95513026D01*
X47299521Y-95402400D01*
X47582743Y-95402400D01*
X47498243Y-95605900D01*
X47497758Y-96161661D01*
X47709990Y-96675303D01*
X48102630Y-97068629D01*
X48615900Y-97281757D01*
X49171661Y-97282242D01*
X49685303Y-97070010D01*
X50078629Y-96677370D01*
X50080693Y-96672400D01*
X50473848Y-96672400D01*
X50878224Y-97076776D01*
X51133675Y-97247463D01*
X51435000Y-97307400D01*
X55245000Y-97307400D01*
X55546325Y-97247463D01*
X55801776Y-97076776D01*
X58111152Y-94767400D01*
X59178418Y-94767400D01*
X59082423Y-95250000D01*
X59170445Y-95692517D01*
X59104919Y-95758043D01*
X58778339Y-95757758D01*
X58264697Y-95969990D01*
X57871371Y-96362630D01*
X57658243Y-96875900D01*
X57657758Y-97431661D01*
X57869990Y-97945303D01*
X58262630Y-98338629D01*
X58775900Y-98551757D01*
X59331661Y-98552242D01*
X59845303Y-98340010D01*
X60238629Y-97947370D01*
X60451757Y-97434100D01*
X60452044Y-97104994D01*
X61037038Y-96520000D01*
X61567577Y-96520000D01*
X62053585Y-96423327D01*
X62465603Y-96148026D01*
X62740904Y-95736008D01*
X62837577Y-95250000D01*
X62791921Y-95020473D01*
X63347600Y-95576152D01*
X63347600Y-97155000D01*
X63407537Y-97456325D01*
X63578224Y-97711776D01*
X64213224Y-98346776D01*
X64468675Y-98517463D01*
X64770000Y-98577400D01*
X66123791Y-98577400D01*
X66124990Y-98580303D01*
X66517630Y-98973629D01*
X67030900Y-99186757D01*
X67586661Y-99187242D01*
X68100303Y-98975010D01*
X68493629Y-98582370D01*
X68706757Y-98069100D01*
X68707242Y-97513339D01*
X68495010Y-96999697D01*
X68102370Y-96606371D01*
X67924324Y-96532440D01*
X69786500Y-96532440D01*
X70021817Y-96488162D01*
X70237941Y-96349090D01*
X70382931Y-96136890D01*
X70433940Y-95885000D01*
X70433940Y-94615000D01*
X70389662Y-94379683D01*
X70250590Y-94163559D01*
X70038390Y-94018569D01*
X69786500Y-93967560D01*
X69250117Y-93967560D01*
X69673585Y-93883327D01*
X70085603Y-93608026D01*
X70360904Y-93196008D01*
X70457577Y-92710000D01*
X70360904Y-92223992D01*
X70085603Y-91811974D01*
X69673585Y-91536673D01*
X69187577Y-91440000D01*
X69673585Y-91343327D01*
X70085603Y-91068026D01*
X70159521Y-90957400D01*
X70568791Y-90957400D01*
X70569990Y-90960303D01*
X70962630Y-91353629D01*
X71475900Y-91566757D01*
X72031661Y-91567242D01*
X72545303Y-91355010D01*
X72938629Y-90962370D01*
X73151757Y-90449100D01*
X73152242Y-89893339D01*
X72940010Y-89379697D01*
X72547370Y-88986371D01*
X72034100Y-88773243D01*
X71478339Y-88772758D01*
X70964697Y-88984990D01*
X70571371Y-89377630D01*
X70569307Y-89382600D01*
X70159521Y-89382600D01*
X70085603Y-89271974D01*
X69673585Y-88996673D01*
X69187577Y-88900000D01*
X69278500Y-88900000D01*
X69754841Y-88754726D01*
X70139328Y-88438223D01*
X70373428Y-87998675D01*
X70379709Y-87953112D01*
X70255469Y-87757000D01*
X68707000Y-87757000D01*
X68707000Y-88900000D01*
X68453000Y-88900000D01*
X68453000Y-87757000D01*
X66904531Y-87757000D01*
X66780291Y-87953112D01*
X66786572Y-87998675D01*
X67020672Y-88438223D01*
X67405159Y-88754726D01*
X67881500Y-88900000D01*
X67972423Y-88900000D01*
X67486415Y-88996673D01*
X67074397Y-89271974D01*
X66799096Y-89683992D01*
X66702423Y-90170000D01*
X66799096Y-90656008D01*
X67074397Y-91068026D01*
X67486415Y-91343327D01*
X67972423Y-91440000D01*
X67486415Y-91536673D01*
X67074397Y-91811974D01*
X67000479Y-91922600D01*
X66366152Y-91922600D01*
X66192400Y-91748848D01*
X66192400Y-89535000D01*
X66132463Y-89233675D01*
X65961776Y-88978224D01*
X65326776Y-88343224D01*
X65071325Y-88172537D01*
X64770000Y-88112600D01*
X62692752Y-88112600D01*
X62753428Y-87998675D01*
X62759709Y-87953112D01*
X62635469Y-87757000D01*
X61087000Y-87757000D01*
X61087000Y-87777000D01*
X60833000Y-87777000D01*
X60833000Y-87757000D01*
X59284531Y-87757000D01*
X59160291Y-87953112D01*
X59166572Y-87998675D01*
X59227248Y-88112600D01*
X50165000Y-88112600D01*
X49863675Y-88172537D01*
X49608224Y-88343224D01*
X49203848Y-88747600D01*
X47299521Y-88747600D01*
X47225603Y-88636974D01*
X46813585Y-88361673D01*
X46327577Y-88265000D01*
X46813585Y-88168327D01*
X47225603Y-87893026D01*
X47299521Y-87782400D01*
X49530000Y-87782400D01*
X49831325Y-87722463D01*
X50086776Y-87551776D01*
X51356776Y-86281776D01*
X51527463Y-86026325D01*
X51587400Y-85725000D01*
X51587400Y-85413112D01*
X59160291Y-85413112D01*
X59166572Y-85458675D01*
X59400672Y-85898223D01*
X59785159Y-86214726D01*
X60261500Y-86360000D01*
X59785159Y-86505274D01*
X59400672Y-86821777D01*
X59166572Y-87261325D01*
X59160291Y-87306888D01*
X59284531Y-87503000D01*
X60833000Y-87503000D01*
X60833000Y-85217000D01*
X61087000Y-85217000D01*
X61087000Y-87503000D01*
X62635469Y-87503000D01*
X62759709Y-87306888D01*
X62753428Y-87261325D01*
X62519328Y-86821777D01*
X62134841Y-86505274D01*
X61658500Y-86360000D01*
X62134841Y-86214726D01*
X62519328Y-85898223D01*
X62753428Y-85458675D01*
X62759709Y-85413112D01*
X66780291Y-85413112D01*
X66786572Y-85458675D01*
X67020672Y-85898223D01*
X67405159Y-86214726D01*
X67881500Y-86360000D01*
X67405159Y-86505274D01*
X67020672Y-86821777D01*
X66786572Y-87261325D01*
X66780291Y-87306888D01*
X66904531Y-87503000D01*
X68453000Y-87503000D01*
X68453000Y-85217000D01*
X68707000Y-85217000D01*
X68707000Y-87503000D01*
X70255469Y-87503000D01*
X70379709Y-87306888D01*
X70373428Y-87261325D01*
X70139328Y-86821777D01*
X69754841Y-86505274D01*
X69278500Y-86360000D01*
X69754841Y-86214726D01*
X70139328Y-85898223D01*
X70373428Y-85458675D01*
X70379709Y-85413112D01*
X70255469Y-85217000D01*
X68707000Y-85217000D01*
X68453000Y-85217000D01*
X66904531Y-85217000D01*
X66780291Y-85413112D01*
X62759709Y-85413112D01*
X62635469Y-85217000D01*
X61087000Y-85217000D01*
X60833000Y-85217000D01*
X59284531Y-85217000D01*
X59160291Y-85413112D01*
X51587400Y-85413112D01*
X51587400Y-84677831D01*
X51912630Y-85003629D01*
X52425900Y-85216757D01*
X52981661Y-85217242D01*
X53495303Y-85005010D01*
X53888629Y-84612370D01*
X53890693Y-84607400D01*
X59227248Y-84607400D01*
X59166572Y-84721325D01*
X59160291Y-84766888D01*
X59284531Y-84963000D01*
X60833000Y-84963000D01*
X60833000Y-84943000D01*
X61087000Y-84943000D01*
X61087000Y-84963000D01*
X62635469Y-84963000D01*
X62759709Y-84766888D01*
X62753428Y-84721325D01*
X62692752Y-84607400D01*
X64770000Y-84607400D01*
X65071325Y-84547463D01*
X65326776Y-84376776D01*
X65961776Y-83741776D01*
X66132463Y-83486325D01*
X66192400Y-83185000D01*
X66192400Y-80971152D01*
X66366152Y-80797400D01*
X67000479Y-80797400D01*
X67074397Y-80908026D01*
X67486415Y-81183327D01*
X67972423Y-81280000D01*
X67486415Y-81376673D01*
X67074397Y-81651974D01*
X66799096Y-82063992D01*
X66702423Y-82550000D01*
X66799096Y-83036008D01*
X67074397Y-83448026D01*
X67486415Y-83723327D01*
X67972423Y-83820000D01*
X67881500Y-83820000D01*
X67405159Y-83965274D01*
X67020672Y-84281777D01*
X66786572Y-84721325D01*
X66780291Y-84766888D01*
X66904531Y-84963000D01*
X68453000Y-84963000D01*
X68453000Y-83820000D01*
X68707000Y-83820000D01*
X68707000Y-84963000D01*
X70255469Y-84963000D01*
X70379709Y-84766888D01*
X70373428Y-84721325D01*
X70139328Y-84281777D01*
X69754841Y-83965274D01*
X69278500Y-83820000D01*
X69187577Y-83820000D01*
X69673585Y-83723327D01*
X70085603Y-83448026D01*
X70159521Y-83337400D01*
X73025000Y-83337400D01*
X73326325Y-83277463D01*
X73581776Y-83106776D01*
X73911691Y-82776861D01*
X74191930Y-82721118D01*
X74642878Y-82419803D01*
X74930000Y-81990096D01*
X75216931Y-82419517D01*
X75008224Y-82628224D01*
X74837537Y-82883675D01*
X74777600Y-83185000D01*
X74777600Y-88983791D01*
X74774697Y-88984990D01*
X74381371Y-89377630D01*
X74168243Y-89890900D01*
X74167758Y-90446661D01*
X74379990Y-90960303D01*
X74772630Y-91353629D01*
X75285900Y-91566757D01*
X75841661Y-91567242D01*
X76355303Y-91355010D01*
X76748629Y-90962370D01*
X76961757Y-90449100D01*
X76962242Y-89893339D01*
X76750010Y-89379697D01*
X76535072Y-89164383D01*
X77404769Y-89164383D01*
X77607582Y-89655229D01*
X77982796Y-90031098D01*
X78473287Y-90234768D01*
X79004383Y-90235231D01*
X79495229Y-90032418D01*
X79871098Y-89657204D01*
X80074768Y-89166713D01*
X80075231Y-88635617D01*
X79872418Y-88144771D01*
X79527400Y-87799151D01*
X79527400Y-84781152D01*
X80116435Y-84192117D01*
X80409357Y-84485551D01*
X80973330Y-84719733D01*
X81583991Y-84720265D01*
X82148371Y-84487068D01*
X82325841Y-84309908D01*
X82381673Y-84444699D01*
X82560302Y-84623327D01*
X82793691Y-84720000D01*
X83534250Y-84720000D01*
X83693000Y-84561250D01*
X83693000Y-83312000D01*
X83947000Y-83312000D01*
X83947000Y-84561250D01*
X84105750Y-84720000D01*
X84846309Y-84720000D01*
X85079698Y-84623327D01*
X85258327Y-84444699D01*
X85355000Y-84211310D01*
X85355000Y-83470750D01*
X85196250Y-83312000D01*
X83947000Y-83312000D01*
X83693000Y-83312000D01*
X83673000Y-83312000D01*
X83673000Y-83058000D01*
X83693000Y-83058000D01*
X83693000Y-81808750D01*
X83947000Y-81808750D01*
X83947000Y-83058000D01*
X85196250Y-83058000D01*
X85355000Y-82899250D01*
X85355000Y-82158690D01*
X85258327Y-81925301D01*
X85079698Y-81746673D01*
X84846309Y-81650000D01*
X84105750Y-81650000D01*
X83947000Y-81808750D01*
X83693000Y-81808750D01*
X83534250Y-81650000D01*
X82793691Y-81650000D01*
X82560302Y-81746673D01*
X82381673Y-81925301D01*
X82325881Y-82059994D01*
X82150643Y-81884449D01*
X81586670Y-81650267D01*
X80976009Y-81649735D01*
X80411629Y-81882932D01*
X79979449Y-82314357D01*
X79939021Y-82411719D01*
X79708675Y-82457537D01*
X79453224Y-82628224D01*
X78183224Y-83898224D01*
X78012537Y-84153675D01*
X77952600Y-84455000D01*
X77952600Y-87799697D01*
X77608902Y-88142796D01*
X77405232Y-88633287D01*
X77404769Y-89164383D01*
X76535072Y-89164383D01*
X76357370Y-88986371D01*
X76352400Y-88984307D01*
X76352400Y-83511152D01*
X76756776Y-83106776D01*
X76927463Y-82851325D01*
X76987304Y-82550482D01*
X77182878Y-82419803D01*
X77484193Y-81968855D01*
X77590000Y-81436925D01*
X77590000Y-79853075D01*
X77484193Y-79321145D01*
X77182878Y-78870197D01*
X76731930Y-78568882D01*
X76200000Y-78463075D01*
X75668070Y-78568882D01*
X75217122Y-78870197D01*
X74930000Y-79299904D01*
X74642878Y-78870197D01*
X74191930Y-78568882D01*
X73660000Y-78463075D01*
X73128070Y-78568882D01*
X72677122Y-78870197D01*
X72375807Y-79321145D01*
X72270000Y-79853075D01*
X72270000Y-81436925D01*
X72334781Y-81762600D01*
X70159521Y-81762600D01*
X70085603Y-81651974D01*
X69673585Y-81376673D01*
X69187577Y-81280000D01*
X69673585Y-81183327D01*
X70085603Y-80908026D01*
X70360904Y-80496008D01*
X70457577Y-80010000D01*
X70360904Y-79523992D01*
X70085603Y-79111974D01*
X69673585Y-78836673D01*
X69187577Y-78740000D01*
X69673585Y-78643327D01*
X70085603Y-78368026D01*
X70360904Y-77956008D01*
X70457577Y-77470000D01*
X70360904Y-76983992D01*
X70085603Y-76571974D01*
X69673585Y-76296673D01*
X69532500Y-76268609D01*
X69532500Y-72666661D01*
X72262758Y-72666661D01*
X72474990Y-73180303D01*
X72867630Y-73573629D01*
X72872600Y-73575693D01*
X72872600Y-76835000D01*
X72932537Y-77136325D01*
X73103224Y-77391776D01*
X73738224Y-78026776D01*
X73993675Y-78197463D01*
X74295000Y-78257400D01*
X85398848Y-78257400D01*
X85572600Y-78431152D01*
X85572600Y-87833908D01*
X85389858Y-87956012D01*
X85100467Y-88389118D01*
X84998846Y-88900000D01*
X85100467Y-89410882D01*
X85389858Y-89843988D01*
X85572600Y-89966092D01*
X85572600Y-90253791D01*
X85569697Y-90254990D01*
X85176371Y-90647630D01*
X84963243Y-91160900D01*
X84962758Y-91716661D01*
X85174990Y-92230303D01*
X85567630Y-92623629D01*
X86080900Y-92836757D01*
X86636661Y-92837242D01*
X87150303Y-92625010D01*
X87543629Y-92232370D01*
X87756757Y-91719100D01*
X87757242Y-91163339D01*
X87545010Y-90649697D01*
X87152370Y-90256371D01*
X87147400Y-90254307D01*
X87147400Y-89966092D01*
X87330142Y-89843988D01*
X87619533Y-89410882D01*
X87721154Y-88900000D01*
X87619533Y-88389118D01*
X87330142Y-87956012D01*
X87147400Y-87833908D01*
X87147400Y-78105000D01*
X87087463Y-77803675D01*
X86916776Y-77548224D01*
X86281776Y-76913224D01*
X86026325Y-76742537D01*
X85725000Y-76682600D01*
X74621152Y-76682600D01*
X74447400Y-76508848D01*
X74447400Y-74930000D01*
X77378846Y-74930000D01*
X77480467Y-75440882D01*
X77769858Y-75873988D01*
X78202964Y-76163379D01*
X78713846Y-76265000D01*
X78766154Y-76265000D01*
X79277036Y-76163379D01*
X79710142Y-75873988D01*
X79999533Y-75440882D01*
X80101154Y-74930000D01*
X79999533Y-74419118D01*
X79710142Y-73986012D01*
X79527400Y-73863908D01*
X79527400Y-70811152D01*
X80116435Y-70222117D01*
X80409357Y-70515551D01*
X80973330Y-70749733D01*
X81583991Y-70750265D01*
X82148371Y-70517068D01*
X82325841Y-70339908D01*
X82381673Y-70474699D01*
X82560302Y-70653327D01*
X82793691Y-70750000D01*
X83534250Y-70750000D01*
X83693000Y-70591250D01*
X83693000Y-69342000D01*
X83947000Y-69342000D01*
X83947000Y-70591250D01*
X84105750Y-70750000D01*
X84846309Y-70750000D01*
X85079698Y-70653327D01*
X85258327Y-70474699D01*
X85355000Y-70241310D01*
X85355000Y-69500750D01*
X85196250Y-69342000D01*
X83947000Y-69342000D01*
X83693000Y-69342000D01*
X83673000Y-69342000D01*
X83673000Y-69088000D01*
X83693000Y-69088000D01*
X83693000Y-67838750D01*
X83947000Y-67838750D01*
X83947000Y-69088000D01*
X85196250Y-69088000D01*
X85355000Y-68929250D01*
X85355000Y-68188690D01*
X85258327Y-67955301D01*
X85079698Y-67776673D01*
X84846309Y-67680000D01*
X84105750Y-67680000D01*
X83947000Y-67838750D01*
X83693000Y-67838750D01*
X83534250Y-67680000D01*
X82793691Y-67680000D01*
X82560302Y-67776673D01*
X82381673Y-67955301D01*
X82325881Y-68089994D01*
X82150643Y-67914449D01*
X81586670Y-67680267D01*
X80976009Y-67679735D01*
X80411629Y-67912932D01*
X79979449Y-68344357D01*
X79939021Y-68441719D01*
X79708675Y-68487537D01*
X79453224Y-68658224D01*
X78183224Y-69928224D01*
X78012537Y-70183675D01*
X77952600Y-70485000D01*
X77952600Y-73863908D01*
X77769858Y-73986012D01*
X77480467Y-74419118D01*
X77378846Y-74930000D01*
X74447400Y-74930000D01*
X74447400Y-73576209D01*
X74450303Y-73575010D01*
X74843629Y-73182370D01*
X75056757Y-72669100D01*
X75057242Y-72113339D01*
X74845010Y-71599697D01*
X74452370Y-71206371D01*
X73939100Y-70993243D01*
X73383339Y-70992758D01*
X72869697Y-71204990D01*
X72476371Y-71597630D01*
X72263243Y-72110900D01*
X72262758Y-72666661D01*
X69532500Y-72666661D01*
X69532500Y-67069538D01*
X70879538Y-65722500D01*
X78105000Y-65722500D01*
X78469506Y-65649995D01*
X78778519Y-65443519D01*
X78896730Y-65325308D01*
X78926838Y-65485317D01*
X79065910Y-65701441D01*
X79278110Y-65846431D01*
X79481409Y-65887600D01*
X78740000Y-65887600D01*
X78438675Y-65947537D01*
X78183224Y-66118224D01*
X75873848Y-68427600D01*
X74846209Y-68427600D01*
X74845010Y-68424697D01*
X74452370Y-68031371D01*
X73939100Y-67818243D01*
X73383339Y-67817758D01*
X72869697Y-68029990D01*
X72476371Y-68422630D01*
X72263243Y-68935900D01*
X72262758Y-69491661D01*
X72474990Y-70005303D01*
X72867630Y-70398629D01*
X73380900Y-70611757D01*
X73936661Y-70612242D01*
X74450303Y-70400010D01*
X74843629Y-70007370D01*
X74845693Y-70002400D01*
X76200000Y-70002400D01*
X76501325Y-69942463D01*
X76756776Y-69771776D01*
X79066152Y-67462400D01*
X85398848Y-67462400D01*
X85572600Y-67636152D01*
X85572600Y-71203791D01*
X85569697Y-71204990D01*
X85176371Y-71597630D01*
X84963243Y-72110900D01*
X84962758Y-72666661D01*
X85174990Y-73180303D01*
X85567630Y-73573629D01*
X85572600Y-73575693D01*
X85572600Y-73829697D01*
X85228902Y-74172796D01*
X85025232Y-74663287D01*
X85024769Y-75194383D01*
X85227582Y-75685229D01*
X85602796Y-76061098D01*
X86093287Y-76264768D01*
X86624383Y-76265231D01*
X87115229Y-76062418D01*
X87491098Y-75687204D01*
X87694768Y-75196713D01*
X87695231Y-74665617D01*
X87492418Y-74174771D01*
X87147400Y-73829151D01*
X87147400Y-73576209D01*
X87150303Y-73575010D01*
X87543629Y-73182370D01*
X87756757Y-72669100D01*
X87757242Y-72113339D01*
X87545010Y-71599697D01*
X87152370Y-71206371D01*
X87147400Y-71204307D01*
X87147400Y-67310000D01*
X87087463Y-67008675D01*
X86916776Y-66753224D01*
X86281776Y-66118224D01*
X86026325Y-65947537D01*
X85725000Y-65887600D01*
X83082295Y-65887600D01*
X83265317Y-65853162D01*
X83481441Y-65714090D01*
X83626431Y-65501890D01*
X83677440Y-65250000D01*
X83677440Y-63793029D01*
X90612723Y-63793029D01*
X90735317Y-64008000D01*
X92583000Y-64008000D01*
X92583000Y-62745000D01*
X92837000Y-62745000D01*
X92837000Y-64008000D01*
X94684683Y-64008000D01*
X94807277Y-63793029D01*
X94792793Y-63720403D01*
X94532681Y-63241924D01*
X94109263Y-62899408D01*
X93587000Y-62745000D01*
X92837000Y-62745000D01*
X92583000Y-62745000D01*
X91833000Y-62745000D01*
X91310737Y-62899408D01*
X90887319Y-63241924D01*
X90627207Y-63720403D01*
X90612723Y-63793029D01*
X83677440Y-63793029D01*
X83677440Y-61750000D01*
X83633162Y-61514683D01*
X83494090Y-61298559D01*
X83281890Y-61153569D01*
X83030000Y-61102560D01*
X79530000Y-61102560D01*
X79294683Y-61146838D01*
X79078559Y-61285910D01*
X78965000Y-61452109D01*
X78965000Y-60785750D01*
X78806250Y-60627000D01*
X76707000Y-60627000D01*
X76707000Y-62726250D01*
X76865750Y-62885000D01*
X78456310Y-62885000D01*
X78689699Y-62788327D01*
X78868327Y-62609698D01*
X78882560Y-62575337D01*
X78882560Y-62705488D01*
X78701481Y-62826481D01*
X77710462Y-63817500D01*
X70485000Y-63817500D01*
X70120494Y-63890005D01*
X69892214Y-64042537D01*
X69811481Y-64096481D01*
X67906481Y-66001481D01*
X67700005Y-66310494D01*
X67690655Y-66357500D01*
X39370000Y-66357500D01*
X39005494Y-66430005D01*
X38696481Y-66636481D01*
X37426481Y-67906481D01*
X37220005Y-68215494D01*
X37147500Y-68580000D01*
X37147500Y-75454188D01*
X37109100Y-75438243D01*
X36553339Y-75437758D01*
X36039697Y-75649990D01*
X35646371Y-76042630D01*
X35433243Y-76555900D01*
X35432758Y-77111661D01*
X35644990Y-77625303D01*
X36037630Y-78018629D01*
X36550900Y-78231757D01*
X36859422Y-78232026D01*
X35233848Y-79857600D01*
X33015952Y-79857600D01*
X33372999Y-79500553D01*
X33375900Y-79501757D01*
X33931661Y-79502242D01*
X34445303Y-79290010D01*
X34838629Y-78897370D01*
X35051757Y-78384100D01*
X35052242Y-77828339D01*
X34840010Y-77314697D01*
X34447370Y-76921371D01*
X33934100Y-76708243D01*
X33378339Y-76707758D01*
X32864697Y-76919990D01*
X32471371Y-77312630D01*
X32258243Y-77825900D01*
X32257758Y-78381661D01*
X32259813Y-78386635D01*
X32059251Y-78587197D01*
X31985603Y-78476974D01*
X31573585Y-78201673D01*
X31087577Y-78105000D01*
X31573585Y-78008327D01*
X31985603Y-77733026D01*
X32260904Y-77321008D01*
X32357577Y-76835000D01*
X32260904Y-76348992D01*
X31985603Y-75936974D01*
X31573585Y-75661673D01*
X31087577Y-75565000D01*
X31573585Y-75468327D01*
X31985603Y-75193026D01*
X32260904Y-74781008D01*
X32357577Y-74295000D01*
X32260904Y-73808992D01*
X31985603Y-73396974D01*
X31573585Y-73121673D01*
X31087577Y-73025000D01*
X31573585Y-72928327D01*
X31985603Y-72653026D01*
X32260904Y-72241008D01*
X32357577Y-71755000D01*
X32260904Y-71268992D01*
X31985603Y-70856974D01*
X31573585Y-70581673D01*
X31087577Y-70485000D01*
X31573585Y-70388327D01*
X31985603Y-70113026D01*
X32260904Y-69701008D01*
X32357577Y-69215000D01*
X32260904Y-68728992D01*
X31985603Y-68316974D01*
X31573585Y-68041673D01*
X31267400Y-67980769D01*
X31267400Y-66366152D01*
X32076152Y-65557400D01*
X61595000Y-65557400D01*
X61896325Y-65497463D01*
X62151776Y-65326776D01*
X63421776Y-64056776D01*
X63592463Y-63801325D01*
X63652400Y-63500000D01*
X63652400Y-61337440D01*
X63865000Y-61337440D01*
X64100317Y-61293162D01*
X64316441Y-61154090D01*
X64461431Y-60941890D01*
X64481551Y-60842532D01*
X69492073Y-60842532D01*
X69590736Y-61109387D01*
X70200461Y-61335908D01*
X70850460Y-61311856D01*
X71339264Y-61109387D01*
X71437927Y-60842532D01*
X71381145Y-60785750D01*
X74195000Y-60785750D01*
X74195000Y-62376309D01*
X74291673Y-62609698D01*
X74470301Y-62788327D01*
X74703690Y-62885000D01*
X76294250Y-62885000D01*
X76453000Y-62726250D01*
X76453000Y-60627000D01*
X74353750Y-60627000D01*
X74195000Y-60785750D01*
X71381145Y-60785750D01*
X70465000Y-59869605D01*
X69492073Y-60842532D01*
X64481551Y-60842532D01*
X64512440Y-60690000D01*
X64512440Y-59425461D01*
X68819092Y-59425461D01*
X68843144Y-60075460D01*
X69045613Y-60564264D01*
X69312468Y-60662927D01*
X70285395Y-59690000D01*
X70644605Y-59690000D01*
X71617532Y-60662927D01*
X71884387Y-60564264D01*
X72110908Y-59954539D01*
X72086856Y-59304540D01*
X71884387Y-58815736D01*
X71617532Y-58717073D01*
X70644605Y-59690000D01*
X70285395Y-59690000D01*
X69312468Y-58717073D01*
X69045613Y-58815736D01*
X68819092Y-59425461D01*
X64512440Y-59425461D01*
X64512440Y-58690000D01*
X64483740Y-58537468D01*
X69492073Y-58537468D01*
X70465000Y-59510395D01*
X71351704Y-58623691D01*
X74195000Y-58623691D01*
X74195000Y-60214250D01*
X74353750Y-60373000D01*
X76453000Y-60373000D01*
X76453000Y-58273750D01*
X76707000Y-58273750D01*
X76707000Y-60373000D01*
X78806250Y-60373000D01*
X78965000Y-60214250D01*
X78965000Y-59545304D01*
X78991673Y-59609698D01*
X79170301Y-59788327D01*
X79403690Y-59885000D01*
X80994250Y-59885000D01*
X81153000Y-59726250D01*
X81153000Y-57627000D01*
X81407000Y-57627000D01*
X81407000Y-59726250D01*
X81565750Y-59885000D01*
X83156310Y-59885000D01*
X83389699Y-59788327D01*
X83568327Y-59609698D01*
X83665000Y-59376309D01*
X83665000Y-58442619D01*
X89764613Y-58442619D01*
X90104155Y-59264372D01*
X90732321Y-59893636D01*
X91553481Y-60234611D01*
X92442619Y-60235387D01*
X93264372Y-59895845D01*
X93893636Y-59267679D01*
X94234611Y-58446519D01*
X94235387Y-57557381D01*
X93895845Y-56735628D01*
X93267679Y-56106364D01*
X92446519Y-55765389D01*
X91557381Y-55764613D01*
X90735628Y-56104155D01*
X90106364Y-56732321D01*
X89765389Y-57553481D01*
X89764613Y-58442619D01*
X83665000Y-58442619D01*
X83665000Y-57785750D01*
X83506250Y-57627000D01*
X81407000Y-57627000D01*
X81153000Y-57627000D01*
X79053750Y-57627000D01*
X78895000Y-57785750D01*
X78895000Y-58454696D01*
X78868327Y-58390302D01*
X78689699Y-58211673D01*
X78456310Y-58115000D01*
X76865750Y-58115000D01*
X76707000Y-58273750D01*
X76453000Y-58273750D01*
X76294250Y-58115000D01*
X74703690Y-58115000D01*
X74470301Y-58211673D01*
X74291673Y-58390302D01*
X74195000Y-58623691D01*
X71351704Y-58623691D01*
X71437927Y-58537468D01*
X71339264Y-58270613D01*
X70729539Y-58044092D01*
X70079540Y-58068144D01*
X69590736Y-58270613D01*
X69492073Y-58537468D01*
X64483740Y-58537468D01*
X64468162Y-58454683D01*
X64329090Y-58238559D01*
X64116890Y-58093569D01*
X63865000Y-58042560D01*
X61865000Y-58042560D01*
X61629683Y-58086838D01*
X61413559Y-58225910D01*
X61268569Y-58438110D01*
X61217560Y-58690000D01*
X61217560Y-60690000D01*
X61261838Y-60925317D01*
X61400910Y-61141441D01*
X61613110Y-61286431D01*
X61865000Y-61337440D01*
X62077600Y-61337440D01*
X62077600Y-63173848D01*
X61268848Y-63982600D01*
X56510952Y-63982600D01*
X57071776Y-63421776D01*
X57242463Y-63166325D01*
X57302400Y-62865000D01*
X57302400Y-59055418D01*
X57497878Y-58924803D01*
X57799193Y-58473855D01*
X57905000Y-57941925D01*
X57905000Y-56358075D01*
X57799193Y-55826145D01*
X57663918Y-55623691D01*
X78895000Y-55623691D01*
X78895000Y-57214250D01*
X79053750Y-57373000D01*
X81153000Y-57373000D01*
X81153000Y-55273750D01*
X81407000Y-55273750D01*
X81407000Y-57373000D01*
X83506250Y-57373000D01*
X83665000Y-57214250D01*
X83665000Y-55623691D01*
X83568327Y-55390302D01*
X83389699Y-55211673D01*
X83156310Y-55115000D01*
X81565750Y-55115000D01*
X81407000Y-55273750D01*
X81153000Y-55273750D01*
X80994250Y-55115000D01*
X79403690Y-55115000D01*
X79170301Y-55211673D01*
X78991673Y-55390302D01*
X78895000Y-55623691D01*
X57663918Y-55623691D01*
X57497878Y-55375197D01*
X57046930Y-55073882D01*
X56515000Y-54968075D01*
X55983070Y-55073882D01*
X55532122Y-55375197D01*
X55245000Y-55804904D01*
X54957878Y-55375197D01*
X54506930Y-55073882D01*
X53975000Y-54968075D01*
X53443070Y-55073882D01*
X52992122Y-55375197D01*
X52692249Y-55823987D01*
X52670592Y-55750737D01*
X52328076Y-55327319D01*
X51849597Y-55067207D01*
X51776971Y-55052723D01*
X51562000Y-55175317D01*
X51562000Y-57023000D01*
X51582000Y-57023000D01*
X51582000Y-57277000D01*
X51562000Y-57277000D01*
X51562000Y-59124683D01*
X51776971Y-59247277D01*
X51849597Y-59232793D01*
X52328076Y-58972681D01*
X52670592Y-58549263D01*
X52692249Y-58476013D01*
X52992122Y-58924803D01*
X53022500Y-58945101D01*
X53022500Y-61200462D01*
X52945462Y-61277500D01*
X46609000Y-61277500D01*
X46609000Y-58431475D01*
X47020551Y-58020643D01*
X47254733Y-57456670D01*
X47254889Y-57277000D01*
X50045000Y-57277000D01*
X50045000Y-58027000D01*
X50199408Y-58549263D01*
X50541924Y-58972681D01*
X51020403Y-59232793D01*
X51093029Y-59247277D01*
X51308000Y-59124683D01*
X51308000Y-57277000D01*
X50045000Y-57277000D01*
X47254889Y-57277000D01*
X47255265Y-56846009D01*
X47022068Y-56281629D01*
X47013455Y-56273000D01*
X50045000Y-56273000D01*
X50045000Y-57023000D01*
X51308000Y-57023000D01*
X51308000Y-55175317D01*
X51093029Y-55052723D01*
X51020403Y-55067207D01*
X50541924Y-55327319D01*
X50199408Y-55750737D01*
X50045000Y-56273000D01*
X47013455Y-56273000D01*
X46590643Y-55849449D01*
X46026670Y-55615267D01*
X45416009Y-55614735D01*
X44851629Y-55847932D01*
X44683387Y-56015880D01*
X44683162Y-56014683D01*
X44544090Y-55798559D01*
X44331890Y-55653569D01*
X44080000Y-55602560D01*
X42280000Y-55602560D01*
X42044683Y-55646838D01*
X41828559Y-55785910D01*
X41683569Y-55998110D01*
X41632560Y-56250000D01*
X41632560Y-56261000D01*
X39733880Y-56261000D01*
X39492204Y-56018902D01*
X39001713Y-55815232D01*
X38470617Y-55814769D01*
X37979771Y-56017582D01*
X37603902Y-56392796D01*
X37400232Y-56883287D01*
X37399769Y-57414383D01*
X37602582Y-57905229D01*
X37977796Y-58281098D01*
X38468287Y-58484768D01*
X38999383Y-58485231D01*
X39490229Y-58282418D01*
X39734072Y-58039000D01*
X41632560Y-58039000D01*
X41632560Y-58050000D01*
X41676838Y-58285317D01*
X41815910Y-58501441D01*
X42028110Y-58646431D01*
X42280000Y-58697440D01*
X44080000Y-58697440D01*
X44315317Y-58653162D01*
X44531441Y-58514090D01*
X44676431Y-58301890D01*
X44680567Y-58281466D01*
X44831000Y-58432162D01*
X44831000Y-61277500D01*
X26670000Y-61277500D01*
X26305494Y-61350005D01*
X26059036Y-61514683D01*
X25996481Y-61556481D01*
X25361481Y-62191481D01*
X25155005Y-62500494D01*
X25082500Y-62865000D01*
X25082500Y-71360462D01*
X23456481Y-72986481D01*
X23250005Y-73295494D01*
X23177500Y-73660000D01*
X23177500Y-77965560D01*
X22923500Y-77965560D01*
X22688183Y-78009838D01*
X22472059Y-78148910D01*
X22327069Y-78361110D01*
X22276060Y-78613000D01*
X22276060Y-80137000D01*
X22320338Y-80372317D01*
X22459410Y-80588441D01*
X22671610Y-80733431D01*
X22886440Y-80776935D01*
X22661595Y-80927172D01*
X22358763Y-81380391D01*
X22252423Y-81915000D01*
X20710000Y-81915000D01*
X20710000Y-58442619D01*
X22764613Y-58442619D01*
X23104155Y-59264372D01*
X23732321Y-59893636D01*
X24553481Y-60234611D01*
X25442619Y-60235387D01*
X26264372Y-59895845D01*
X26893636Y-59267679D01*
X27234611Y-58446519D01*
X27235387Y-57557381D01*
X27204790Y-57483329D01*
X29822284Y-57483329D01*
X29965203Y-57828396D01*
X30312337Y-58216764D01*
X30781669Y-58442727D01*
X30988000Y-58320206D01*
X30988000Y-57277000D01*
X31242000Y-57277000D01*
X31242000Y-58320206D01*
X31448331Y-58442727D01*
X31917663Y-58216764D01*
X32264797Y-57828396D01*
X32407716Y-57483329D01*
X32284374Y-57277000D01*
X31242000Y-57277000D01*
X30988000Y-57277000D01*
X29945626Y-57277000D01*
X29822284Y-57483329D01*
X27204790Y-57483329D01*
X26929332Y-56816671D01*
X29822284Y-56816671D01*
X29945626Y-57023000D01*
X30988000Y-57023000D01*
X30988000Y-55979794D01*
X31242000Y-55979794D01*
X31242000Y-57023000D01*
X32284374Y-57023000D01*
X32407716Y-56816671D01*
X32264797Y-56471604D01*
X31917663Y-56083236D01*
X31448331Y-55857273D01*
X31242000Y-55979794D01*
X30988000Y-55979794D01*
X30781669Y-55857273D01*
X30312337Y-56083236D01*
X29965203Y-56471604D01*
X29822284Y-56816671D01*
X26929332Y-56816671D01*
X26895845Y-56735628D01*
X26267679Y-56106364D01*
X25446519Y-55765389D01*
X24557381Y-55764613D01*
X23735628Y-56104155D01*
X23106364Y-56732321D01*
X22765389Y-57553481D01*
X22764613Y-58442619D01*
X20710000Y-58442619D01*
X20710000Y-53710000D01*
X96290000Y-53710000D01*
X96290000Y-113290000D01*
M02*
