G04 #@! TF.FileFunction,Legend,Top*
%FSLAX46Y46*%
G04 Gerber Fmt 4.6, Leading zero omitted, Abs format (unit mm)*
G04 Created by KiCad (PCBNEW 4.0.4-stable) date 07/02/20 16:24:00*
%MOMM*%
%LPD*%
G01*
G04 APERTURE LIST*
%ADD10C,0.100000*%
%ADD11C,0.200000*%
%ADD12C,0.150000*%
%ADD13C,0.120000*%
%ADD14C,0.010000*%
G04 APERTURE END LIST*
D10*
D11*
X26035000Y-98425000D02*
X26035000Y-100965000D01*
X59055000Y-99695000D02*
X59055000Y-98425000D01*
X22352143Y-90979762D02*
X22352143Y-92598810D01*
X22423571Y-92789286D01*
X22495000Y-92884524D01*
X22637857Y-92979762D01*
X22923571Y-92979762D01*
X23066429Y-92884524D01*
X23137857Y-92789286D01*
X23209286Y-92598810D01*
X23209286Y-90979762D01*
X23852143Y-92884524D02*
X24066429Y-92979762D01*
X24423572Y-92979762D01*
X24566429Y-92884524D01*
X24637858Y-92789286D01*
X24709286Y-92598810D01*
X24709286Y-92408333D01*
X24637858Y-92217857D01*
X24566429Y-92122619D01*
X24423572Y-92027381D01*
X24137858Y-91932143D01*
X23995000Y-91836905D01*
X23923572Y-91741667D01*
X23852143Y-91551190D01*
X23852143Y-91360714D01*
X23923572Y-91170238D01*
X23995000Y-91075000D01*
X24137858Y-90979762D01*
X24495000Y-90979762D01*
X24709286Y-91075000D01*
X52939286Y-63357143D02*
X53439286Y-63357143D01*
X53653572Y-64404762D02*
X52939286Y-64404762D01*
X52939286Y-62404762D01*
X53653572Y-62404762D01*
X55082143Y-64404762D02*
X54225000Y-64404762D01*
X54653572Y-64404762D02*
X54653572Y-62404762D01*
X54510715Y-62690476D01*
X54367857Y-62880952D01*
X54225000Y-62976190D01*
X52939286Y-102092143D02*
X53439286Y-102092143D01*
X53653572Y-103139762D02*
X52939286Y-103139762D01*
X52939286Y-101139762D01*
X53653572Y-101139762D01*
X54225000Y-101330238D02*
X54296429Y-101235000D01*
X54439286Y-101139762D01*
X54796429Y-101139762D01*
X54939286Y-101235000D01*
X55010715Y-101330238D01*
X55082143Y-101520714D01*
X55082143Y-101711190D01*
X55010715Y-101996905D01*
X54153572Y-103139762D01*
X55082143Y-103139762D01*
X62480714Y-111652857D02*
X62695000Y-111724286D01*
X62766428Y-111795714D01*
X62837857Y-111938571D01*
X62837857Y-112152857D01*
X62766428Y-112295714D01*
X62695000Y-112367143D01*
X62552142Y-112438571D01*
X61980714Y-112438571D01*
X61980714Y-110938571D01*
X62480714Y-110938571D01*
X62623571Y-111010000D01*
X62695000Y-111081429D01*
X62766428Y-111224286D01*
X62766428Y-111367143D01*
X62695000Y-111510000D01*
X62623571Y-111581429D01*
X62480714Y-111652857D01*
X61980714Y-111652857D01*
X64195000Y-112438571D02*
X63480714Y-112438571D01*
X63480714Y-110938571D01*
X64695000Y-110938571D02*
X64695000Y-112152857D01*
X64766428Y-112295714D01*
X64837857Y-112367143D01*
X64980714Y-112438571D01*
X65266428Y-112438571D01*
X65409286Y-112367143D01*
X65480714Y-112295714D01*
X65552143Y-112152857D01*
X65552143Y-110938571D01*
X66266429Y-111652857D02*
X66766429Y-111652857D01*
X66980715Y-112438571D02*
X66266429Y-112438571D01*
X66266429Y-110938571D01*
X66980715Y-110938571D01*
X67409286Y-110938571D02*
X68266429Y-110938571D01*
X67837858Y-112438571D02*
X67837858Y-110938571D01*
X69052143Y-110938571D02*
X69337857Y-110938571D01*
X69480715Y-111010000D01*
X69623572Y-111152857D01*
X69695000Y-111438571D01*
X69695000Y-111938571D01*
X69623572Y-112224286D01*
X69480715Y-112367143D01*
X69337857Y-112438571D01*
X69052143Y-112438571D01*
X68909286Y-112367143D01*
X68766429Y-112224286D01*
X68695000Y-111938571D01*
X68695000Y-111438571D01*
X68766429Y-111152857D01*
X68909286Y-111010000D01*
X69052143Y-110938571D01*
X70623572Y-110938571D02*
X70909286Y-110938571D01*
X71052144Y-111010000D01*
X71195001Y-111152857D01*
X71266429Y-111438571D01*
X71266429Y-111938571D01*
X71195001Y-112224286D01*
X71052144Y-112367143D01*
X70909286Y-112438571D01*
X70623572Y-112438571D01*
X70480715Y-112367143D01*
X70337858Y-112224286D01*
X70266429Y-111938571D01*
X70266429Y-111438571D01*
X70337858Y-111152857D01*
X70480715Y-111010000D01*
X70623572Y-110938571D01*
X71695001Y-110938571D02*
X72552144Y-110938571D01*
X72123573Y-112438571D02*
X72123573Y-110938571D01*
X73052144Y-112438571D02*
X73052144Y-110938571D01*
X73052144Y-111652857D02*
X73909287Y-111652857D01*
X73909287Y-112438571D02*
X73909287Y-110938571D01*
X86487143Y-101139524D02*
X86701429Y-101234762D01*
X87058572Y-101234762D01*
X87201429Y-101139524D01*
X87272858Y-101044286D01*
X87344286Y-100853810D01*
X87344286Y-100663333D01*
X87272858Y-100472857D01*
X87201429Y-100377619D01*
X87058572Y-100282381D01*
X86772858Y-100187143D01*
X86630000Y-100091905D01*
X86558572Y-99996667D01*
X86487143Y-99806190D01*
X86487143Y-99615714D01*
X86558572Y-99425238D01*
X86630000Y-99330000D01*
X86772858Y-99234762D01*
X87130000Y-99234762D01*
X87344286Y-99330000D01*
X87844286Y-99234762D02*
X88772857Y-99234762D01*
X88272857Y-99996667D01*
X88487143Y-99996667D01*
X88630000Y-100091905D01*
X88701429Y-100187143D01*
X88772857Y-100377619D01*
X88772857Y-100853810D01*
X88701429Y-101044286D01*
X88630000Y-101139524D01*
X88487143Y-101234762D01*
X88058571Y-101234762D01*
X87915714Y-101139524D01*
X87844286Y-101044286D01*
X86487143Y-83994524D02*
X86701429Y-84089762D01*
X87058572Y-84089762D01*
X87201429Y-83994524D01*
X87272858Y-83899286D01*
X87344286Y-83708810D01*
X87344286Y-83518333D01*
X87272858Y-83327857D01*
X87201429Y-83232619D01*
X87058572Y-83137381D01*
X86772858Y-83042143D01*
X86630000Y-82946905D01*
X86558572Y-82851667D01*
X86487143Y-82661190D01*
X86487143Y-82470714D01*
X86558572Y-82280238D01*
X86630000Y-82185000D01*
X86772858Y-82089762D01*
X87130000Y-82089762D01*
X87344286Y-82185000D01*
X87915714Y-82280238D02*
X87987143Y-82185000D01*
X88130000Y-82089762D01*
X88487143Y-82089762D01*
X88630000Y-82185000D01*
X88701429Y-82280238D01*
X88772857Y-82470714D01*
X88772857Y-82661190D01*
X88701429Y-82946905D01*
X87844286Y-84089762D01*
X88772857Y-84089762D01*
X86487143Y-67484524D02*
X86701429Y-67579762D01*
X87058572Y-67579762D01*
X87201429Y-67484524D01*
X87272858Y-67389286D01*
X87344286Y-67198810D01*
X87344286Y-67008333D01*
X87272858Y-66817857D01*
X87201429Y-66722619D01*
X87058572Y-66627381D01*
X86772858Y-66532143D01*
X86630000Y-66436905D01*
X86558572Y-66341667D01*
X86487143Y-66151190D01*
X86487143Y-65960714D01*
X86558572Y-65770238D01*
X86630000Y-65675000D01*
X86772858Y-65579762D01*
X87130000Y-65579762D01*
X87344286Y-65675000D01*
X88772857Y-67579762D02*
X87915714Y-67579762D01*
X88344286Y-67579762D02*
X88344286Y-65579762D01*
X88201429Y-65865476D01*
X88058571Y-66055952D01*
X87915714Y-66151190D01*
X73715715Y-76469762D02*
X73715715Y-74469762D01*
X74215715Y-75898333D01*
X74715715Y-74469762D01*
X74715715Y-76469762D01*
X75358572Y-74660238D02*
X75430001Y-74565000D01*
X75572858Y-74469762D01*
X75930001Y-74469762D01*
X76072858Y-74565000D01*
X76144287Y-74660238D01*
X76215715Y-74850714D01*
X76215715Y-75041190D01*
X76144287Y-75326905D01*
X75287144Y-76469762D01*
X76215715Y-76469762D01*
X59110715Y-73929762D02*
X59110715Y-71929762D01*
X59610715Y-73358333D01*
X60110715Y-71929762D01*
X60110715Y-73929762D01*
X61610715Y-73929762D02*
X60753572Y-73929762D01*
X61182144Y-73929762D02*
X61182144Y-71929762D01*
X61039287Y-72215476D01*
X60896429Y-72405952D01*
X60753572Y-72501190D01*
X73799286Y-93284762D02*
X73799286Y-91284762D01*
X74656429Y-93284762D01*
X74656429Y-91284762D01*
X76013572Y-93284762D02*
X76013572Y-92237143D01*
X75942143Y-92046667D01*
X75799286Y-91951429D01*
X75513572Y-91951429D01*
X75370715Y-92046667D01*
X76013572Y-93189524D02*
X75870715Y-93284762D01*
X75513572Y-93284762D01*
X75370715Y-93189524D01*
X75299286Y-92999048D01*
X75299286Y-92808571D01*
X75370715Y-92618095D01*
X75513572Y-92522857D01*
X75870715Y-92522857D01*
X76013572Y-92427619D01*
X76727858Y-91951429D02*
X76727858Y-93284762D01*
X76727858Y-92141905D02*
X76799286Y-92046667D01*
X76942144Y-91951429D01*
X77156429Y-91951429D01*
X77299286Y-92046667D01*
X77370715Y-92237143D01*
X77370715Y-93284762D01*
X78299287Y-93284762D02*
X78156429Y-93189524D01*
X78085001Y-93094286D01*
X78013572Y-92903810D01*
X78013572Y-92332381D01*
X78085001Y-92141905D01*
X78156429Y-92046667D01*
X78299287Y-91951429D01*
X78513572Y-91951429D01*
X78656429Y-92046667D01*
X78727858Y-92141905D01*
X78799287Y-92332381D01*
X78799287Y-92903810D01*
X78727858Y-93094286D01*
X78656429Y-93189524D01*
X78513572Y-93284762D01*
X78299287Y-93284762D01*
X74549286Y-94484762D02*
X75049286Y-96484762D01*
X75549286Y-94484762D01*
X76835000Y-96484762D02*
X75977857Y-96484762D01*
X76406429Y-96484762D02*
X76406429Y-94484762D01*
X76263572Y-94770476D01*
X76120714Y-94960952D01*
X75977857Y-95056190D01*
X77477857Y-96294286D02*
X77549285Y-96389524D01*
X77477857Y-96484762D01*
X77406428Y-96389524D01*
X77477857Y-96294286D01*
X77477857Y-96484762D01*
X78477857Y-94484762D02*
X78620714Y-94484762D01*
X78763571Y-94580000D01*
X78835000Y-94675238D01*
X78906429Y-94865714D01*
X78977857Y-95246667D01*
X78977857Y-95722857D01*
X78906429Y-96103810D01*
X78835000Y-96294286D01*
X78763571Y-96389524D01*
X78620714Y-96484762D01*
X78477857Y-96484762D01*
X78335000Y-96389524D01*
X78263571Y-96294286D01*
X78192143Y-96103810D01*
X78120714Y-95722857D01*
X78120714Y-95246667D01*
X78192143Y-94865714D01*
X78263571Y-94675238D01*
X78335000Y-94580000D01*
X78477857Y-94484762D01*
X87630000Y-91440000D02*
X91440000Y-91440000D01*
X68580000Y-69215000D02*
X71120000Y-69215000D01*
X68580000Y-72390000D02*
X71120000Y-72390000D01*
X73025000Y-90170000D02*
X74295000Y-90170000D01*
X68580000Y-97790000D02*
X74295000Y-97790000D01*
X59055000Y-104775000D02*
X59055000Y-99695000D01*
X59055000Y-110490000D02*
X59055000Y-104775000D01*
X33655000Y-102235000D02*
X33655000Y-108585000D01*
X57150000Y-79375000D02*
X57150000Y-81280000D01*
X54610000Y-88900000D02*
X54610000Y-79375000D01*
X52705000Y-85090000D02*
X52705000Y-93345000D01*
X48895000Y-85725000D02*
X48895000Y-94615000D01*
X36830000Y-78105000D02*
X36830000Y-83185000D01*
X33655000Y-79375000D02*
X33655000Y-83820000D01*
X27305000Y-80645000D02*
X27305000Y-85725000D01*
D12*
X41910000Y-65405000D02*
X46990000Y-65405000D01*
X29210000Y-65405000D02*
X34290000Y-65405000D01*
X34290000Y-63500000D02*
X41910000Y-63500000D01*
X41910000Y-63500000D02*
X41910000Y-71755000D01*
X41910000Y-71755000D02*
X34290000Y-71755000D01*
X34290000Y-71755000D02*
X34290000Y-63500000D01*
X46355000Y-66675000D02*
G75*
G03X46355000Y-66675000I-635000J0D01*
G01*
X31115000Y-66675000D02*
G75*
G03X31115000Y-66675000I-635000J0D01*
G01*
X46355000Y-107315000D02*
G75*
G03X46355000Y-107315000I-635000J0D01*
G01*
X31115000Y-107315000D02*
G75*
G03X31115000Y-107315000I-635000J0D01*
G01*
X29210000Y-108585000D02*
X46990000Y-108585000D01*
X46990000Y-108585000D02*
X46990000Y-65405000D01*
X29210000Y-65405000D02*
X29210000Y-108585000D01*
D13*
X76680000Y-58500000D02*
X76680000Y-49700000D01*
X76680000Y-49700000D02*
X85880000Y-49700000D01*
X79380000Y-64400000D02*
X76680000Y-64400000D01*
X76680000Y-64400000D02*
X76680000Y-62500000D01*
X85880000Y-49700000D02*
X85880000Y-64400000D01*
X85880000Y-64400000D02*
X83280000Y-64400000D01*
X72390000Y-81915000D02*
X77470000Y-81915000D01*
X72390000Y-77475000D02*
X77470000Y-77475000D01*
X77470000Y-83815000D02*
X72390000Y-83815000D01*
X77470000Y-83815000D02*
X77470000Y-77475000D01*
X72390000Y-83815000D02*
X72390000Y-77475000D01*
X79560000Y-97789538D02*
G75*
G03X85110000Y-99334830I2990000J-462D01*
G01*
X79560000Y-97790462D02*
G75*
G02X85110000Y-96245170I2990000J462D01*
G01*
X85050000Y-97790000D02*
G75*
G03X85050000Y-97790000I-2500000J0D01*
G01*
X85110000Y-99335000D02*
X85110000Y-96245000D01*
X89540000Y-86995000D02*
X95880000Y-86995000D01*
X89540000Y-79375000D02*
X95880000Y-79375000D01*
X91440000Y-79375000D02*
X91440000Y-86995000D01*
X89540000Y-86995000D02*
X89540000Y-79375000D01*
X95880000Y-79375000D02*
X95880000Y-86995000D01*
X67945000Y-100335000D02*
X60325000Y-100335000D01*
X67945000Y-104775000D02*
X60325000Y-104775000D01*
X67945000Y-106675000D02*
X60325000Y-106675000D01*
X75565000Y-106675000D02*
X75565000Y-100335000D01*
X60325000Y-106675000D02*
X60325000Y-100335000D01*
X67945000Y-104775000D02*
X75565000Y-104775000D01*
X75565000Y-106675000D02*
X67945000Y-106675000D01*
X67945000Y-100335000D02*
X75565000Y-100335000D01*
X57785000Y-60320000D02*
X57785000Y-53980000D01*
X50165000Y-60320000D02*
X50165000Y-53980000D01*
X50165000Y-58420000D02*
X57785000Y-58420000D01*
X57785000Y-60320000D02*
X50165000Y-60320000D01*
X50165000Y-53980000D02*
X57785000Y-53980000D01*
X50165000Y-105415000D02*
X50165000Y-111755000D01*
X57785000Y-105415000D02*
X57785000Y-111755000D01*
X57785000Y-107315000D02*
X50165000Y-107315000D01*
X50165000Y-105415000D02*
X57785000Y-105415000D01*
X57785000Y-111755000D02*
X50165000Y-111755000D01*
X22800000Y-80645000D02*
X22800000Y-88325000D01*
X22800000Y-88325000D02*
X25460000Y-88325000D01*
X25460000Y-88325000D02*
X25460000Y-80645000D01*
X25460000Y-80645000D02*
X22800000Y-80645000D01*
X22800000Y-79375000D02*
X22800000Y-78045000D01*
X22800000Y-78045000D02*
X24130000Y-78045000D01*
X89540000Y-104140000D02*
X95880000Y-104140000D01*
X89540000Y-96520000D02*
X95880000Y-96520000D01*
X91440000Y-96520000D02*
X91440000Y-104140000D01*
X89540000Y-104140000D02*
X89540000Y-96520000D01*
X95880000Y-96520000D02*
X95880000Y-104140000D01*
X89540000Y-70485000D02*
X95880000Y-70485000D01*
X89540000Y-62865000D02*
X95880000Y-62865000D01*
X91440000Y-62865000D02*
X91440000Y-70485000D01*
X89540000Y-70485000D02*
X89540000Y-62865000D01*
X95880000Y-62865000D02*
X95880000Y-70485000D01*
X52705000Y-74930000D02*
X57785000Y-74930000D01*
X52705000Y-70490000D02*
X57785000Y-70490000D01*
X57785000Y-76830000D02*
X52705000Y-76830000D01*
X57785000Y-76830000D02*
X57785000Y-70490000D01*
X52705000Y-76830000D02*
X52705000Y-70490000D01*
X37240000Y-106000000D02*
X38960000Y-106000000D01*
X38960000Y-106000000D02*
X38960000Y-102280000D01*
X38960000Y-102280000D02*
X37240000Y-102280000D01*
X37240000Y-102280000D02*
X37240000Y-106000000D01*
X38100000Y-107070000D02*
X38100000Y-106000000D01*
X38100000Y-101210000D02*
X38100000Y-102280000D01*
X42135000Y-102280000D02*
X40415000Y-102280000D01*
X40415000Y-102280000D02*
X40415000Y-106000000D01*
X40415000Y-106000000D02*
X42135000Y-106000000D01*
X42135000Y-106000000D02*
X42135000Y-102280000D01*
X41275000Y-101210000D02*
X41275000Y-102280000D01*
X41275000Y-107070000D02*
X41275000Y-106000000D01*
X84410000Y-104365000D02*
X84410000Y-102645000D01*
X84410000Y-102645000D02*
X80690000Y-102645000D01*
X80690000Y-102645000D02*
X80690000Y-104365000D01*
X80690000Y-104365000D02*
X84410000Y-104365000D01*
X85480000Y-103505000D02*
X84410000Y-103505000D01*
X79620000Y-103505000D02*
X80690000Y-103505000D01*
X80690000Y-88040000D02*
X80690000Y-89760000D01*
X80690000Y-89760000D02*
X84410000Y-89760000D01*
X84410000Y-89760000D02*
X84410000Y-88040000D01*
X84410000Y-88040000D02*
X80690000Y-88040000D01*
X79620000Y-88900000D02*
X80690000Y-88900000D01*
X85480000Y-88900000D02*
X84410000Y-88900000D01*
X84410000Y-75790000D02*
X84410000Y-74070000D01*
X84410000Y-74070000D02*
X80690000Y-74070000D01*
X80690000Y-74070000D02*
X80690000Y-75790000D01*
X80690000Y-75790000D02*
X84410000Y-75790000D01*
X85480000Y-74930000D02*
X84410000Y-74930000D01*
X79620000Y-74930000D02*
X80690000Y-74930000D01*
X42135000Y-91485000D02*
X40415000Y-91485000D01*
X40415000Y-91485000D02*
X40415000Y-95205000D01*
X40415000Y-95205000D02*
X42135000Y-95205000D01*
X42135000Y-95205000D02*
X42135000Y-91485000D01*
X41275000Y-90415000D02*
X41275000Y-91485000D01*
X41275000Y-96275000D02*
X41275000Y-95205000D01*
X38960000Y-91485000D02*
X37240000Y-91485000D01*
X37240000Y-91485000D02*
X37240000Y-95205000D01*
X37240000Y-95205000D02*
X38960000Y-95205000D01*
X38960000Y-95205000D02*
X38960000Y-91485000D01*
X38100000Y-90415000D02*
X38100000Y-91485000D01*
X38100000Y-96275000D02*
X38100000Y-95205000D01*
X72765000Y-59690000D02*
G75*
G03X72765000Y-59690000I-6100000J0D01*
G01*
X63770000Y-96580000D02*
G75*
G02X65770000Y-96580000I1000000J0D01*
G01*
X65770000Y-96580000D02*
X67020000Y-96580000D01*
X67020000Y-96580000D02*
X67020000Y-76140000D01*
X67020000Y-76140000D02*
X62520000Y-76140000D01*
X62520000Y-76140000D02*
X62520000Y-96580000D01*
X62520000Y-96580000D02*
X63770000Y-96580000D01*
X79560000Y-83184538D02*
G75*
G03X85110000Y-84729830I2990000J-462D01*
G01*
X79560000Y-83185462D02*
G75*
G02X85110000Y-81640170I2990000J462D01*
G01*
X85050000Y-83185000D02*
G75*
G03X85050000Y-83185000I-2500000J0D01*
G01*
X85110000Y-84730000D02*
X85110000Y-81640000D01*
X79560000Y-69214538D02*
G75*
G03X85110000Y-70759830I2990000J-462D01*
G01*
X79560000Y-69215462D02*
G75*
G02X85110000Y-67670170I2990000J462D01*
G01*
X85050000Y-69215000D02*
G75*
G03X85050000Y-69215000I-2500000J0D01*
G01*
X85110000Y-70760000D02*
X85110000Y-67670000D01*
X47440000Y-57150462D02*
G75*
G03X41890000Y-55605170I-2990000J462D01*
G01*
X47440000Y-57149538D02*
G75*
G02X41890000Y-58694830I-2990000J-462D01*
G01*
X46950000Y-57150000D02*
G75*
G03X46950000Y-57150000I-2500000J0D01*
G01*
X41890000Y-55605000D02*
X41890000Y-58695000D01*
X36785000Y-58010000D02*
X36785000Y-56290000D01*
X36785000Y-56290000D02*
X33065000Y-56290000D01*
X33065000Y-56290000D02*
X33065000Y-58010000D01*
X33065000Y-58010000D02*
X36785000Y-58010000D01*
X37855000Y-57150000D02*
X36785000Y-57150000D01*
X31995000Y-57150000D02*
X33065000Y-57150000D01*
D14*
G36*
X78683886Y-111804505D02*
X78758539Y-111841727D01*
X78824431Y-111910261D01*
X78842577Y-111935648D01*
X78862345Y-111968866D01*
X78875172Y-112004945D01*
X78882510Y-112053098D01*
X78885813Y-112122536D01*
X78886538Y-112214206D01*
X78883263Y-112339830D01*
X78871877Y-112434154D01*
X78850041Y-112504523D01*
X78815419Y-112558286D01*
X78765670Y-112602788D01*
X78762014Y-112605423D01*
X78712985Y-112632377D01*
X78653945Y-112645712D01*
X78578859Y-112649000D01*
X78456795Y-112649000D01*
X78456744Y-112767497D01*
X78455608Y-112833492D01*
X78448686Y-112872202D01*
X78430598Y-112895419D01*
X78395962Y-112914933D01*
X78387645Y-112918920D01*
X78348720Y-112937603D01*
X78318583Y-112949403D01*
X78296174Y-112950422D01*
X78280433Y-112936761D01*
X78270302Y-112904522D01*
X78264723Y-112849804D01*
X78262635Y-112768711D01*
X78262981Y-112657344D01*
X78264700Y-112511802D01*
X78265237Y-112468269D01*
X78267172Y-112318205D01*
X78268904Y-112220042D01*
X78456692Y-112220042D01*
X78457748Y-112303364D01*
X78462438Y-112357880D01*
X78473051Y-112393837D01*
X78491872Y-112421482D01*
X78504650Y-112434965D01*
X78556890Y-112474417D01*
X78603142Y-112477628D01*
X78650867Y-112445049D01*
X78652077Y-112443846D01*
X78671494Y-112418668D01*
X78683307Y-112384447D01*
X78689265Y-112331748D01*
X78691120Y-112251131D01*
X78691154Y-112233271D01*
X78686670Y-112122175D01*
X78672074Y-112045161D01*
X78645650Y-111998147D01*
X78605683Y-111977050D01*
X78582584Y-111974923D01*
X78527762Y-111984900D01*
X78490158Y-112017752D01*
X78467523Y-112077857D01*
X78457606Y-112169598D01*
X78456692Y-112220042D01*
X78268904Y-112220042D01*
X78269222Y-112202060D01*
X78271873Y-112114679D01*
X78275606Y-112050905D01*
X78280907Y-112005582D01*
X78288258Y-111973555D01*
X78298143Y-111949668D01*
X78311046Y-111928764D01*
X78316579Y-111920898D01*
X78389969Y-111846595D01*
X78482760Y-111804467D01*
X78590096Y-111792722D01*
X78683886Y-111804505D01*
X78683886Y-111804505D01*
G37*
X78683886Y-111804505D02*
X78758539Y-111841727D01*
X78824431Y-111910261D01*
X78842577Y-111935648D01*
X78862345Y-111968866D01*
X78875172Y-112004945D01*
X78882510Y-112053098D01*
X78885813Y-112122536D01*
X78886538Y-112214206D01*
X78883263Y-112339830D01*
X78871877Y-112434154D01*
X78850041Y-112504523D01*
X78815419Y-112558286D01*
X78765670Y-112602788D01*
X78762014Y-112605423D01*
X78712985Y-112632377D01*
X78653945Y-112645712D01*
X78578859Y-112649000D01*
X78456795Y-112649000D01*
X78456744Y-112767497D01*
X78455608Y-112833492D01*
X78448686Y-112872202D01*
X78430598Y-112895419D01*
X78395962Y-112914933D01*
X78387645Y-112918920D01*
X78348720Y-112937603D01*
X78318583Y-112949403D01*
X78296174Y-112950422D01*
X78280433Y-112936761D01*
X78270302Y-112904522D01*
X78264723Y-112849804D01*
X78262635Y-112768711D01*
X78262981Y-112657344D01*
X78264700Y-112511802D01*
X78265237Y-112468269D01*
X78267172Y-112318205D01*
X78268904Y-112220042D01*
X78456692Y-112220042D01*
X78457748Y-112303364D01*
X78462438Y-112357880D01*
X78473051Y-112393837D01*
X78491872Y-112421482D01*
X78504650Y-112434965D01*
X78556890Y-112474417D01*
X78603142Y-112477628D01*
X78650867Y-112445049D01*
X78652077Y-112443846D01*
X78671494Y-112418668D01*
X78683307Y-112384447D01*
X78689265Y-112331748D01*
X78691120Y-112251131D01*
X78691154Y-112233271D01*
X78686670Y-112122175D01*
X78672074Y-112045161D01*
X78645650Y-111998147D01*
X78605683Y-111977050D01*
X78582584Y-111974923D01*
X78527762Y-111984900D01*
X78490158Y-112017752D01*
X78467523Y-112077857D01*
X78457606Y-112169598D01*
X78456692Y-112220042D01*
X78268904Y-112220042D01*
X78269222Y-112202060D01*
X78271873Y-112114679D01*
X78275606Y-112050905D01*
X78280907Y-112005582D01*
X78288258Y-111973555D01*
X78298143Y-111949668D01*
X78311046Y-111928764D01*
X78316579Y-111920898D01*
X78389969Y-111846595D01*
X78482760Y-111804467D01*
X78590096Y-111792722D01*
X78683886Y-111804505D01*
G36*
X80186664Y-111815089D02*
X80249367Y-111851358D01*
X80292961Y-111887358D01*
X80324845Y-111925075D01*
X80346810Y-111971199D01*
X80360649Y-112032421D01*
X80368153Y-112115431D01*
X80371117Y-112226919D01*
X80371461Y-112307062D01*
X80371461Y-112602065D01*
X80205385Y-112676515D01*
X80195615Y-112353402D01*
X80191579Y-112232729D01*
X80187344Y-112145141D01*
X80182097Y-112084650D01*
X80175025Y-112045268D01*
X80165311Y-112021007D01*
X80152144Y-112005880D01*
X80147919Y-112002606D01*
X80083909Y-111977034D01*
X80019208Y-111987153D01*
X79980692Y-112014000D01*
X79965025Y-112033024D01*
X79954180Y-112057988D01*
X79947288Y-112095834D01*
X79943479Y-112153502D01*
X79941883Y-112237935D01*
X79941615Y-112325928D01*
X79941563Y-112436323D01*
X79939672Y-112514463D01*
X79933345Y-112567165D01*
X79919983Y-112601242D01*
X79896985Y-112623511D01*
X79861754Y-112640787D01*
X79814697Y-112658738D01*
X79763303Y-112678278D01*
X79769421Y-112331485D01*
X79771884Y-112206468D01*
X79774767Y-112114082D01*
X79778898Y-112047881D01*
X79785107Y-112001420D01*
X79794226Y-111968256D01*
X79807083Y-111941944D01*
X79822584Y-111918729D01*
X79897371Y-111844569D01*
X79988628Y-111801684D01*
X80087883Y-111791412D01*
X80186664Y-111815089D01*
X80186664Y-111815089D01*
G37*
X80186664Y-111815089D02*
X80249367Y-111851358D01*
X80292961Y-111887358D01*
X80324845Y-111925075D01*
X80346810Y-111971199D01*
X80360649Y-112032421D01*
X80368153Y-112115431D01*
X80371117Y-112226919D01*
X80371461Y-112307062D01*
X80371461Y-112602065D01*
X80205385Y-112676515D01*
X80195615Y-112353402D01*
X80191579Y-112232729D01*
X80187344Y-112145141D01*
X80182097Y-112084650D01*
X80175025Y-112045268D01*
X80165311Y-112021007D01*
X80152144Y-112005880D01*
X80147919Y-112002606D01*
X80083909Y-111977034D01*
X80019208Y-111987153D01*
X79980692Y-112014000D01*
X79965025Y-112033024D01*
X79954180Y-112057988D01*
X79947288Y-112095834D01*
X79943479Y-112153502D01*
X79941883Y-112237935D01*
X79941615Y-112325928D01*
X79941563Y-112436323D01*
X79939672Y-112514463D01*
X79933345Y-112567165D01*
X79919983Y-112601242D01*
X79896985Y-112623511D01*
X79861754Y-112640787D01*
X79814697Y-112658738D01*
X79763303Y-112678278D01*
X79769421Y-112331485D01*
X79771884Y-112206468D01*
X79774767Y-112114082D01*
X79778898Y-112047881D01*
X79785107Y-112001420D01*
X79794226Y-111968256D01*
X79807083Y-111941944D01*
X79822584Y-111918729D01*
X79897371Y-111844569D01*
X79988628Y-111801684D01*
X80087883Y-111791412D01*
X80186664Y-111815089D01*
G36*
X77931886Y-111807256D02*
X78023464Y-111855409D01*
X78091049Y-111932905D01*
X78115057Y-111982727D01*
X78133738Y-112057533D01*
X78143301Y-112152052D01*
X78144208Y-112255210D01*
X78136921Y-112355935D01*
X78121903Y-112443153D01*
X78099615Y-112505791D01*
X78092765Y-112516579D01*
X78011632Y-112597105D01*
X77915266Y-112645336D01*
X77810701Y-112659450D01*
X77704968Y-112637629D01*
X77675543Y-112624547D01*
X77618241Y-112584231D01*
X77567950Y-112530775D01*
X77563197Y-112523995D01*
X77543878Y-112491321D01*
X77531108Y-112456394D01*
X77523564Y-112410414D01*
X77519924Y-112344584D01*
X77518865Y-112250105D01*
X77518846Y-112228923D01*
X77518894Y-112222182D01*
X77714231Y-112222182D01*
X77715368Y-112311349D01*
X77719841Y-112370520D01*
X77729246Y-112408741D01*
X77745176Y-112435053D01*
X77753308Y-112443846D01*
X77800058Y-112477261D01*
X77845447Y-112475737D01*
X77891340Y-112446752D01*
X77918712Y-112415809D01*
X77934923Y-112370643D01*
X77944026Y-112299420D01*
X77944651Y-112291114D01*
X77946204Y-112162037D01*
X77929965Y-112066172D01*
X77896152Y-112004107D01*
X77844984Y-111976432D01*
X77826720Y-111974923D01*
X77778760Y-111982513D01*
X77745953Y-112008808D01*
X77725895Y-112059095D01*
X77716178Y-112138664D01*
X77714231Y-112222182D01*
X77518894Y-112222182D01*
X77519574Y-112128249D01*
X77522629Y-112057906D01*
X77529322Y-112009163D01*
X77540960Y-111973288D01*
X77558853Y-111941548D01*
X77562808Y-111935648D01*
X77629267Y-111856104D01*
X77701685Y-111809929D01*
X77789849Y-111791599D01*
X77819787Y-111790703D01*
X77931886Y-111807256D01*
X77931886Y-111807256D01*
G37*
X77931886Y-111807256D02*
X78023464Y-111855409D01*
X78091049Y-111932905D01*
X78115057Y-111982727D01*
X78133738Y-112057533D01*
X78143301Y-112152052D01*
X78144208Y-112255210D01*
X78136921Y-112355935D01*
X78121903Y-112443153D01*
X78099615Y-112505791D01*
X78092765Y-112516579D01*
X78011632Y-112597105D01*
X77915266Y-112645336D01*
X77810701Y-112659450D01*
X77704968Y-112637629D01*
X77675543Y-112624547D01*
X77618241Y-112584231D01*
X77567950Y-112530775D01*
X77563197Y-112523995D01*
X77543878Y-112491321D01*
X77531108Y-112456394D01*
X77523564Y-112410414D01*
X77519924Y-112344584D01*
X77518865Y-112250105D01*
X77518846Y-112228923D01*
X77518894Y-112222182D01*
X77714231Y-112222182D01*
X77715368Y-112311349D01*
X77719841Y-112370520D01*
X77729246Y-112408741D01*
X77745176Y-112435053D01*
X77753308Y-112443846D01*
X77800058Y-112477261D01*
X77845447Y-112475737D01*
X77891340Y-112446752D01*
X77918712Y-112415809D01*
X77934923Y-112370643D01*
X77944026Y-112299420D01*
X77944651Y-112291114D01*
X77946204Y-112162037D01*
X77929965Y-112066172D01*
X77896152Y-112004107D01*
X77844984Y-111976432D01*
X77826720Y-111974923D01*
X77778760Y-111982513D01*
X77745953Y-112008808D01*
X77725895Y-112059095D01*
X77716178Y-112138664D01*
X77714231Y-112222182D01*
X77518894Y-112222182D01*
X77519574Y-112128249D01*
X77522629Y-112057906D01*
X77529322Y-112009163D01*
X77540960Y-111973288D01*
X77558853Y-111941548D01*
X77562808Y-111935648D01*
X77629267Y-111856104D01*
X77701685Y-111809929D01*
X77789849Y-111791599D01*
X77819787Y-111790703D01*
X77931886Y-111807256D01*
G36*
X79449254Y-111819745D02*
X79526286Y-111871567D01*
X79585816Y-111946412D01*
X79621378Y-112041654D01*
X79628571Y-112111756D01*
X79627754Y-112141009D01*
X79620914Y-112163407D01*
X79602112Y-112183474D01*
X79565408Y-112205733D01*
X79504862Y-112234709D01*
X79414534Y-112274927D01*
X79414077Y-112275129D01*
X79330933Y-112313210D01*
X79262753Y-112347025D01*
X79216505Y-112372933D01*
X79199158Y-112387295D01*
X79199154Y-112387411D01*
X79214443Y-112418685D01*
X79250196Y-112453157D01*
X79291242Y-112477990D01*
X79312037Y-112482923D01*
X79368770Y-112465862D01*
X79417627Y-112423133D01*
X79441465Y-112376155D01*
X79464397Y-112341522D01*
X79509318Y-112302081D01*
X79562123Y-112268009D01*
X79608710Y-112249480D01*
X79618452Y-112248462D01*
X79629418Y-112265215D01*
X79630079Y-112308039D01*
X79622020Y-112365781D01*
X79606827Y-112427289D01*
X79586086Y-112481409D01*
X79585038Y-112483510D01*
X79522621Y-112570660D01*
X79441726Y-112629939D01*
X79349856Y-112659034D01*
X79254513Y-112655634D01*
X79163198Y-112617428D01*
X79159138Y-112614741D01*
X79087306Y-112549642D01*
X79040073Y-112464705D01*
X79013934Y-112353021D01*
X79010426Y-112321643D01*
X79004213Y-112173536D01*
X79011661Y-112104468D01*
X79199154Y-112104468D01*
X79201590Y-112147552D01*
X79214914Y-112160126D01*
X79248132Y-112150719D01*
X79300494Y-112128483D01*
X79359024Y-112100610D01*
X79360479Y-112099872D01*
X79410089Y-112073777D01*
X79430000Y-112056363D01*
X79425090Y-112038107D01*
X79404416Y-112014120D01*
X79351819Y-111979406D01*
X79295177Y-111976856D01*
X79244369Y-112002119D01*
X79209276Y-112050847D01*
X79199154Y-112104468D01*
X79011661Y-112104468D01*
X79016992Y-112055036D01*
X79049778Y-111961055D01*
X79095421Y-111895215D01*
X79177802Y-111828681D01*
X79268546Y-111795676D01*
X79361185Y-111793573D01*
X79449254Y-111819745D01*
X79449254Y-111819745D01*
G37*
X79449254Y-111819745D02*
X79526286Y-111871567D01*
X79585816Y-111946412D01*
X79621378Y-112041654D01*
X79628571Y-112111756D01*
X79627754Y-112141009D01*
X79620914Y-112163407D01*
X79602112Y-112183474D01*
X79565408Y-112205733D01*
X79504862Y-112234709D01*
X79414534Y-112274927D01*
X79414077Y-112275129D01*
X79330933Y-112313210D01*
X79262753Y-112347025D01*
X79216505Y-112372933D01*
X79199158Y-112387295D01*
X79199154Y-112387411D01*
X79214443Y-112418685D01*
X79250196Y-112453157D01*
X79291242Y-112477990D01*
X79312037Y-112482923D01*
X79368770Y-112465862D01*
X79417627Y-112423133D01*
X79441465Y-112376155D01*
X79464397Y-112341522D01*
X79509318Y-112302081D01*
X79562123Y-112268009D01*
X79608710Y-112249480D01*
X79618452Y-112248462D01*
X79629418Y-112265215D01*
X79630079Y-112308039D01*
X79622020Y-112365781D01*
X79606827Y-112427289D01*
X79586086Y-112481409D01*
X79585038Y-112483510D01*
X79522621Y-112570660D01*
X79441726Y-112629939D01*
X79349856Y-112659034D01*
X79254513Y-112655634D01*
X79163198Y-112617428D01*
X79159138Y-112614741D01*
X79087306Y-112549642D01*
X79040073Y-112464705D01*
X79013934Y-112353021D01*
X79010426Y-112321643D01*
X79004213Y-112173536D01*
X79011661Y-112104468D01*
X79199154Y-112104468D01*
X79201590Y-112147552D01*
X79214914Y-112160126D01*
X79248132Y-112150719D01*
X79300494Y-112128483D01*
X79359024Y-112100610D01*
X79360479Y-112099872D01*
X79410089Y-112073777D01*
X79430000Y-112056363D01*
X79425090Y-112038107D01*
X79404416Y-112014120D01*
X79351819Y-111979406D01*
X79295177Y-111976856D01*
X79244369Y-112002119D01*
X79209276Y-112050847D01*
X79199154Y-112104468D01*
X79011661Y-112104468D01*
X79016992Y-112055036D01*
X79049778Y-111961055D01*
X79095421Y-111895215D01*
X79177802Y-111828681D01*
X79268546Y-111795676D01*
X79361185Y-111793573D01*
X79449254Y-111819745D01*
G36*
X81074846Y-111712120D02*
X81080572Y-111791980D01*
X81087149Y-111839039D01*
X81096262Y-111859566D01*
X81109598Y-111859829D01*
X81113923Y-111857378D01*
X81171444Y-111839636D01*
X81246268Y-111840672D01*
X81322339Y-111858910D01*
X81369918Y-111882505D01*
X81418702Y-111920198D01*
X81454364Y-111962855D01*
X81478845Y-112017057D01*
X81494087Y-112089384D01*
X81502030Y-112186419D01*
X81504616Y-112314742D01*
X81504662Y-112339358D01*
X81504692Y-112615870D01*
X81443161Y-112637320D01*
X81399459Y-112651912D01*
X81375482Y-112658706D01*
X81374777Y-112658769D01*
X81372415Y-112640345D01*
X81370406Y-112589526D01*
X81368901Y-112512993D01*
X81368053Y-112417430D01*
X81367923Y-112359329D01*
X81367651Y-112244771D01*
X81366252Y-112162667D01*
X81362849Y-112106393D01*
X81356567Y-112069326D01*
X81346529Y-112044844D01*
X81331861Y-112026325D01*
X81322702Y-112017406D01*
X81259789Y-111981466D01*
X81191136Y-111978775D01*
X81128848Y-112009170D01*
X81117329Y-112020144D01*
X81100433Y-112040779D01*
X81088714Y-112065256D01*
X81081233Y-112100647D01*
X81077054Y-112154026D01*
X81075237Y-112232466D01*
X81074846Y-112340617D01*
X81074846Y-112615870D01*
X81013315Y-112637320D01*
X80969613Y-112651912D01*
X80945636Y-112658706D01*
X80944930Y-112658769D01*
X80943126Y-112640069D01*
X80941500Y-112587322D01*
X80940117Y-112505557D01*
X80939042Y-112399805D01*
X80938340Y-112275094D01*
X80938077Y-112136455D01*
X80938077Y-111601806D01*
X81065077Y-111548236D01*
X81074846Y-111712120D01*
X81074846Y-111712120D01*
G37*
X81074846Y-111712120D02*
X81080572Y-111791980D01*
X81087149Y-111839039D01*
X81096262Y-111859566D01*
X81109598Y-111859829D01*
X81113923Y-111857378D01*
X81171444Y-111839636D01*
X81246268Y-111840672D01*
X81322339Y-111858910D01*
X81369918Y-111882505D01*
X81418702Y-111920198D01*
X81454364Y-111962855D01*
X81478845Y-112017057D01*
X81494087Y-112089384D01*
X81502030Y-112186419D01*
X81504616Y-112314742D01*
X81504662Y-112339358D01*
X81504692Y-112615870D01*
X81443161Y-112637320D01*
X81399459Y-112651912D01*
X81375482Y-112658706D01*
X81374777Y-112658769D01*
X81372415Y-112640345D01*
X81370406Y-112589526D01*
X81368901Y-112512993D01*
X81368053Y-112417430D01*
X81367923Y-112359329D01*
X81367651Y-112244771D01*
X81366252Y-112162667D01*
X81362849Y-112106393D01*
X81356567Y-112069326D01*
X81346529Y-112044844D01*
X81331861Y-112026325D01*
X81322702Y-112017406D01*
X81259789Y-111981466D01*
X81191136Y-111978775D01*
X81128848Y-112009170D01*
X81117329Y-112020144D01*
X81100433Y-112040779D01*
X81088714Y-112065256D01*
X81081233Y-112100647D01*
X81077054Y-112154026D01*
X81075237Y-112232466D01*
X81074846Y-112340617D01*
X81074846Y-112615870D01*
X81013315Y-112637320D01*
X80969613Y-112651912D01*
X80945636Y-112658706D01*
X80944930Y-112658769D01*
X80943126Y-112640069D01*
X80941500Y-112587322D01*
X80940117Y-112505557D01*
X80939042Y-112399805D01*
X80938340Y-112275094D01*
X80938077Y-112136455D01*
X80938077Y-111601806D01*
X81065077Y-111548236D01*
X81074846Y-111712120D01*
G36*
X81968501Y-111846303D02*
X82045060Y-111874733D01*
X82045936Y-111875279D01*
X82093285Y-111910127D01*
X82128241Y-111950852D01*
X82152825Y-112003925D01*
X82169062Y-112075814D01*
X82178975Y-112172992D01*
X82184586Y-112301928D01*
X82185077Y-112320298D01*
X82192141Y-112597287D01*
X82132695Y-112628028D01*
X82089681Y-112648802D01*
X82063710Y-112658646D01*
X82062509Y-112658769D01*
X82058014Y-112640606D01*
X82054444Y-112591612D01*
X82052248Y-112520031D01*
X82051769Y-112462068D01*
X82051758Y-112368170D01*
X82047466Y-112309203D01*
X82032503Y-112281079D01*
X82000482Y-112279706D01*
X81945014Y-112300998D01*
X81861269Y-112340136D01*
X81799689Y-112372643D01*
X81768017Y-112400845D01*
X81758706Y-112431582D01*
X81758692Y-112433104D01*
X81774057Y-112486054D01*
X81819547Y-112514660D01*
X81889166Y-112518803D01*
X81939313Y-112518084D01*
X81965754Y-112532527D01*
X81982243Y-112567218D01*
X81991733Y-112611416D01*
X81978057Y-112636493D01*
X81972907Y-112640082D01*
X81924425Y-112654496D01*
X81856531Y-112656537D01*
X81786612Y-112646983D01*
X81737068Y-112629522D01*
X81668570Y-112571364D01*
X81629634Y-112490408D01*
X81621923Y-112427160D01*
X81627807Y-112370111D01*
X81649101Y-112323542D01*
X81691265Y-112282181D01*
X81759759Y-112240755D01*
X81860044Y-112193993D01*
X81866154Y-112191350D01*
X81956490Y-112149617D01*
X82012235Y-112115391D01*
X82036129Y-112084635D01*
X82030913Y-112053311D01*
X81999328Y-112017383D01*
X81989883Y-112009116D01*
X81926617Y-111977058D01*
X81861064Y-111978407D01*
X81803972Y-112009838D01*
X81766093Y-112068024D01*
X81762574Y-112079446D01*
X81728300Y-112134837D01*
X81684809Y-112161518D01*
X81621923Y-112187960D01*
X81621923Y-112119548D01*
X81641052Y-112020110D01*
X81697831Y-111928902D01*
X81727378Y-111898389D01*
X81794542Y-111859228D01*
X81879956Y-111841500D01*
X81968501Y-111846303D01*
X81968501Y-111846303D01*
G37*
X81968501Y-111846303D02*
X82045060Y-111874733D01*
X82045936Y-111875279D01*
X82093285Y-111910127D01*
X82128241Y-111950852D01*
X82152825Y-112003925D01*
X82169062Y-112075814D01*
X82178975Y-112172992D01*
X82184586Y-112301928D01*
X82185077Y-112320298D01*
X82192141Y-112597287D01*
X82132695Y-112628028D01*
X82089681Y-112648802D01*
X82063710Y-112658646D01*
X82062509Y-112658769D01*
X82058014Y-112640606D01*
X82054444Y-112591612D01*
X82052248Y-112520031D01*
X82051769Y-112462068D01*
X82051758Y-112368170D01*
X82047466Y-112309203D01*
X82032503Y-112281079D01*
X82000482Y-112279706D01*
X81945014Y-112300998D01*
X81861269Y-112340136D01*
X81799689Y-112372643D01*
X81768017Y-112400845D01*
X81758706Y-112431582D01*
X81758692Y-112433104D01*
X81774057Y-112486054D01*
X81819547Y-112514660D01*
X81889166Y-112518803D01*
X81939313Y-112518084D01*
X81965754Y-112532527D01*
X81982243Y-112567218D01*
X81991733Y-112611416D01*
X81978057Y-112636493D01*
X81972907Y-112640082D01*
X81924425Y-112654496D01*
X81856531Y-112656537D01*
X81786612Y-112646983D01*
X81737068Y-112629522D01*
X81668570Y-112571364D01*
X81629634Y-112490408D01*
X81621923Y-112427160D01*
X81627807Y-112370111D01*
X81649101Y-112323542D01*
X81691265Y-112282181D01*
X81759759Y-112240755D01*
X81860044Y-112193993D01*
X81866154Y-112191350D01*
X81956490Y-112149617D01*
X82012235Y-112115391D01*
X82036129Y-112084635D01*
X82030913Y-112053311D01*
X81999328Y-112017383D01*
X81989883Y-112009116D01*
X81926617Y-111977058D01*
X81861064Y-111978407D01*
X81803972Y-112009838D01*
X81766093Y-112068024D01*
X81762574Y-112079446D01*
X81728300Y-112134837D01*
X81684809Y-112161518D01*
X81621923Y-112187960D01*
X81621923Y-112119548D01*
X81641052Y-112020110D01*
X81697831Y-111928902D01*
X81727378Y-111898389D01*
X81794542Y-111859228D01*
X81879956Y-111841500D01*
X81968501Y-111846303D01*
G36*
X82628362Y-111844670D02*
X82717117Y-111877421D01*
X82789022Y-111935350D01*
X82817144Y-111976128D01*
X82847802Y-112050954D01*
X82847165Y-112105058D01*
X82814987Y-112141446D01*
X82803081Y-112147633D01*
X82751675Y-112166925D01*
X82725422Y-112161982D01*
X82716530Y-112129587D01*
X82716077Y-112111692D01*
X82699797Y-112045859D01*
X82657365Y-111999807D01*
X82598388Y-111977564D01*
X82532475Y-111983161D01*
X82478895Y-112012229D01*
X82460798Y-112028810D01*
X82447971Y-112048925D01*
X82439306Y-112079332D01*
X82433696Y-112126788D01*
X82430035Y-112198050D01*
X82427215Y-112299875D01*
X82426484Y-112332115D01*
X82423820Y-112442410D01*
X82420792Y-112520036D01*
X82416250Y-112571396D01*
X82409046Y-112602890D01*
X82398033Y-112620920D01*
X82382060Y-112631888D01*
X82371834Y-112636733D01*
X82328406Y-112653301D01*
X82302842Y-112658769D01*
X82294395Y-112640507D01*
X82289239Y-112585296D01*
X82287346Y-112492499D01*
X82288689Y-112361478D01*
X82289107Y-112341269D01*
X82292058Y-112221733D01*
X82295548Y-112134449D01*
X82300514Y-112072591D01*
X82307893Y-112029336D01*
X82318624Y-111997860D01*
X82333645Y-111971339D01*
X82341502Y-111959975D01*
X82386553Y-111909692D01*
X82436940Y-111870581D01*
X82443108Y-111867167D01*
X82533458Y-111840212D01*
X82628362Y-111844670D01*
X82628362Y-111844670D01*
G37*
X82628362Y-111844670D02*
X82717117Y-111877421D01*
X82789022Y-111935350D01*
X82817144Y-111976128D01*
X82847802Y-112050954D01*
X82847165Y-112105058D01*
X82814987Y-112141446D01*
X82803081Y-112147633D01*
X82751675Y-112166925D01*
X82725422Y-112161982D01*
X82716530Y-112129587D01*
X82716077Y-112111692D01*
X82699797Y-112045859D01*
X82657365Y-111999807D01*
X82598388Y-111977564D01*
X82532475Y-111983161D01*
X82478895Y-112012229D01*
X82460798Y-112028810D01*
X82447971Y-112048925D01*
X82439306Y-112079332D01*
X82433696Y-112126788D01*
X82430035Y-112198050D01*
X82427215Y-112299875D01*
X82426484Y-112332115D01*
X82423820Y-112442410D01*
X82420792Y-112520036D01*
X82416250Y-112571396D01*
X82409046Y-112602890D01*
X82398033Y-112620920D01*
X82382060Y-112631888D01*
X82371834Y-112636733D01*
X82328406Y-112653301D01*
X82302842Y-112658769D01*
X82294395Y-112640507D01*
X82289239Y-112585296D01*
X82287346Y-112492499D01*
X82288689Y-112361478D01*
X82289107Y-112341269D01*
X82292058Y-112221733D01*
X82295548Y-112134449D01*
X82300514Y-112072591D01*
X82307893Y-112029336D01*
X82318624Y-111997860D01*
X82333645Y-111971339D01*
X82341502Y-111959975D01*
X82386553Y-111909692D01*
X82436940Y-111870581D01*
X82443108Y-111867167D01*
X82533458Y-111840212D01*
X82628362Y-111844670D01*
G36*
X83517081Y-112000289D02*
X83516833Y-112146320D01*
X83515872Y-112258655D01*
X83513794Y-112342678D01*
X83510193Y-112403769D01*
X83504665Y-112447309D01*
X83496804Y-112478679D01*
X83486207Y-112503262D01*
X83478182Y-112517294D01*
X83411728Y-112593388D01*
X83327470Y-112641084D01*
X83234249Y-112658199D01*
X83140900Y-112642546D01*
X83085312Y-112614418D01*
X83026957Y-112565760D01*
X82987186Y-112506333D01*
X82963190Y-112428507D01*
X82952161Y-112324652D01*
X82950599Y-112248462D01*
X82950809Y-112242986D01*
X83087308Y-112242986D01*
X83088141Y-112330355D01*
X83091961Y-112388192D01*
X83100746Y-112426029D01*
X83116474Y-112453398D01*
X83135266Y-112474042D01*
X83198375Y-112513890D01*
X83266137Y-112517295D01*
X83330179Y-112484025D01*
X83335164Y-112479517D01*
X83356439Y-112456067D01*
X83369779Y-112428166D01*
X83377001Y-112386641D01*
X83379923Y-112322316D01*
X83380385Y-112251200D01*
X83379383Y-112161858D01*
X83375238Y-112102258D01*
X83366236Y-112063089D01*
X83350667Y-112035040D01*
X83337902Y-112020144D01*
X83278600Y-111982575D01*
X83210301Y-111978057D01*
X83145110Y-112006753D01*
X83132528Y-112017406D01*
X83111111Y-112041063D01*
X83097744Y-112069251D01*
X83090566Y-112111245D01*
X83087719Y-112176319D01*
X83087308Y-112242986D01*
X82950809Y-112242986D01*
X82955322Y-112125765D01*
X82971362Y-112033577D01*
X83001528Y-111964269D01*
X83048629Y-111910211D01*
X83085312Y-111882505D01*
X83151990Y-111852572D01*
X83229272Y-111838678D01*
X83301110Y-111842397D01*
X83341308Y-111857400D01*
X83357082Y-111861670D01*
X83367550Y-111845750D01*
X83374856Y-111803089D01*
X83380385Y-111738106D01*
X83386437Y-111665732D01*
X83394844Y-111622187D01*
X83410141Y-111597287D01*
X83436864Y-111580845D01*
X83453654Y-111573564D01*
X83517154Y-111546963D01*
X83517081Y-112000289D01*
X83517081Y-112000289D01*
G37*
X83517081Y-112000289D02*
X83516833Y-112146320D01*
X83515872Y-112258655D01*
X83513794Y-112342678D01*
X83510193Y-112403769D01*
X83504665Y-112447309D01*
X83496804Y-112478679D01*
X83486207Y-112503262D01*
X83478182Y-112517294D01*
X83411728Y-112593388D01*
X83327470Y-112641084D01*
X83234249Y-112658199D01*
X83140900Y-112642546D01*
X83085312Y-112614418D01*
X83026957Y-112565760D01*
X82987186Y-112506333D01*
X82963190Y-112428507D01*
X82952161Y-112324652D01*
X82950599Y-112248462D01*
X82950809Y-112242986D01*
X83087308Y-112242986D01*
X83088141Y-112330355D01*
X83091961Y-112388192D01*
X83100746Y-112426029D01*
X83116474Y-112453398D01*
X83135266Y-112474042D01*
X83198375Y-112513890D01*
X83266137Y-112517295D01*
X83330179Y-112484025D01*
X83335164Y-112479517D01*
X83356439Y-112456067D01*
X83369779Y-112428166D01*
X83377001Y-112386641D01*
X83379923Y-112322316D01*
X83380385Y-112251200D01*
X83379383Y-112161858D01*
X83375238Y-112102258D01*
X83366236Y-112063089D01*
X83350667Y-112035040D01*
X83337902Y-112020144D01*
X83278600Y-111982575D01*
X83210301Y-111978057D01*
X83145110Y-112006753D01*
X83132528Y-112017406D01*
X83111111Y-112041063D01*
X83097744Y-112069251D01*
X83090566Y-112111245D01*
X83087719Y-112176319D01*
X83087308Y-112242986D01*
X82950809Y-112242986D01*
X82955322Y-112125765D01*
X82971362Y-112033577D01*
X83001528Y-111964269D01*
X83048629Y-111910211D01*
X83085312Y-111882505D01*
X83151990Y-111852572D01*
X83229272Y-111838678D01*
X83301110Y-111842397D01*
X83341308Y-111857400D01*
X83357082Y-111861670D01*
X83367550Y-111845750D01*
X83374856Y-111803089D01*
X83380385Y-111738106D01*
X83386437Y-111665732D01*
X83394844Y-111622187D01*
X83410141Y-111597287D01*
X83436864Y-111580845D01*
X83453654Y-111573564D01*
X83517154Y-111546963D01*
X83517081Y-112000289D01*
G36*
X84310929Y-111856662D02*
X84313911Y-111908068D01*
X84316247Y-111986192D01*
X84317749Y-112084857D01*
X84318231Y-112188343D01*
X84318231Y-112538533D01*
X84256401Y-112600363D01*
X84213793Y-112638462D01*
X84176390Y-112653895D01*
X84125270Y-112652918D01*
X84104978Y-112650433D01*
X84041554Y-112643200D01*
X83989095Y-112639055D01*
X83976308Y-112638672D01*
X83933199Y-112641176D01*
X83871544Y-112647462D01*
X83847638Y-112650433D01*
X83788922Y-112655028D01*
X83749464Y-112645046D01*
X83710338Y-112614228D01*
X83696215Y-112600363D01*
X83634385Y-112538533D01*
X83634385Y-111883503D01*
X83684150Y-111860829D01*
X83727002Y-111844034D01*
X83752073Y-111838154D01*
X83758501Y-111856736D01*
X83764509Y-111908655D01*
X83769697Y-111988172D01*
X83773664Y-112089546D01*
X83775577Y-112175192D01*
X83780923Y-112512231D01*
X83827560Y-112518825D01*
X83869976Y-112514214D01*
X83890760Y-112499287D01*
X83896570Y-112471377D01*
X83901530Y-112411925D01*
X83905246Y-112328466D01*
X83907324Y-112228532D01*
X83907624Y-112177104D01*
X83907923Y-111881054D01*
X83969454Y-111859604D01*
X84013004Y-111845020D01*
X84036694Y-111838219D01*
X84037377Y-111838154D01*
X84039754Y-111856642D01*
X84042366Y-111907906D01*
X84044995Y-111985649D01*
X84047421Y-112083574D01*
X84049115Y-112175192D01*
X84054461Y-112512231D01*
X84171692Y-112512231D01*
X84177072Y-112204746D01*
X84182451Y-111897261D01*
X84239601Y-111867707D01*
X84281797Y-111847413D01*
X84306770Y-111838204D01*
X84307491Y-111838154D01*
X84310929Y-111856662D01*
X84310929Y-111856662D01*
G37*
X84310929Y-111856662D02*
X84313911Y-111908068D01*
X84316247Y-111986192D01*
X84317749Y-112084857D01*
X84318231Y-112188343D01*
X84318231Y-112538533D01*
X84256401Y-112600363D01*
X84213793Y-112638462D01*
X84176390Y-112653895D01*
X84125270Y-112652918D01*
X84104978Y-112650433D01*
X84041554Y-112643200D01*
X83989095Y-112639055D01*
X83976308Y-112638672D01*
X83933199Y-112641176D01*
X83871544Y-112647462D01*
X83847638Y-112650433D01*
X83788922Y-112655028D01*
X83749464Y-112645046D01*
X83710338Y-112614228D01*
X83696215Y-112600363D01*
X83634385Y-112538533D01*
X83634385Y-111883503D01*
X83684150Y-111860829D01*
X83727002Y-111844034D01*
X83752073Y-111838154D01*
X83758501Y-111856736D01*
X83764509Y-111908655D01*
X83769697Y-111988172D01*
X83773664Y-112089546D01*
X83775577Y-112175192D01*
X83780923Y-112512231D01*
X83827560Y-112518825D01*
X83869976Y-112514214D01*
X83890760Y-112499287D01*
X83896570Y-112471377D01*
X83901530Y-112411925D01*
X83905246Y-112328466D01*
X83907324Y-112228532D01*
X83907624Y-112177104D01*
X83907923Y-111881054D01*
X83969454Y-111859604D01*
X84013004Y-111845020D01*
X84036694Y-111838219D01*
X84037377Y-111838154D01*
X84039754Y-111856642D01*
X84042366Y-111907906D01*
X84044995Y-111985649D01*
X84047421Y-112083574D01*
X84049115Y-112175192D01*
X84054461Y-112512231D01*
X84171692Y-112512231D01*
X84177072Y-112204746D01*
X84182451Y-111897261D01*
X84239601Y-111867707D01*
X84281797Y-111847413D01*
X84306770Y-111838204D01*
X84307491Y-111838154D01*
X84310929Y-111856662D01*
G36*
X84802333Y-111853528D02*
X84858590Y-111879117D01*
X84902747Y-111910124D01*
X84935101Y-111944795D01*
X84957438Y-111989520D01*
X84971546Y-112050692D01*
X84979211Y-112134701D01*
X84982220Y-112247940D01*
X84982538Y-112322509D01*
X84982538Y-112613420D01*
X84932773Y-112636095D01*
X84893576Y-112652667D01*
X84874157Y-112658769D01*
X84870442Y-112640610D01*
X84867495Y-112591648D01*
X84865691Y-112520153D01*
X84865308Y-112463385D01*
X84863661Y-112381371D01*
X84859222Y-112316309D01*
X84852740Y-112276467D01*
X84847590Y-112268000D01*
X84812977Y-112276646D01*
X84758640Y-112298823D01*
X84695722Y-112328886D01*
X84635368Y-112361192D01*
X84588721Y-112390098D01*
X84566926Y-112409961D01*
X84566839Y-112410175D01*
X84568714Y-112446935D01*
X84585525Y-112482026D01*
X84615039Y-112510528D01*
X84658116Y-112520061D01*
X84694932Y-112518950D01*
X84747074Y-112518133D01*
X84774444Y-112530349D01*
X84790882Y-112562624D01*
X84792955Y-112568710D01*
X84800081Y-112614739D01*
X84781024Y-112642687D01*
X84731353Y-112656007D01*
X84677697Y-112658470D01*
X84581142Y-112640210D01*
X84531159Y-112614131D01*
X84469429Y-112552868D01*
X84436690Y-112477670D01*
X84433753Y-112398211D01*
X84461424Y-112324167D01*
X84503047Y-112277769D01*
X84544604Y-112251793D01*
X84609922Y-112218907D01*
X84686038Y-112185557D01*
X84698726Y-112180461D01*
X84782333Y-112143565D01*
X84830530Y-112111046D01*
X84846030Y-112078718D01*
X84831550Y-112042394D01*
X84806692Y-112014000D01*
X84747939Y-111979039D01*
X84683293Y-111976417D01*
X84624008Y-112003358D01*
X84581339Y-112057088D01*
X84575739Y-112070950D01*
X84543133Y-112121936D01*
X84495530Y-112159787D01*
X84435461Y-112190850D01*
X84435461Y-112102768D01*
X84438997Y-112048951D01*
X84454156Y-112006534D01*
X84487768Y-111961279D01*
X84520035Y-111926420D01*
X84570209Y-111877062D01*
X84609193Y-111850547D01*
X84651064Y-111839911D01*
X84698460Y-111838154D01*
X84802333Y-111853528D01*
X84802333Y-111853528D01*
G37*
X84802333Y-111853528D02*
X84858590Y-111879117D01*
X84902747Y-111910124D01*
X84935101Y-111944795D01*
X84957438Y-111989520D01*
X84971546Y-112050692D01*
X84979211Y-112134701D01*
X84982220Y-112247940D01*
X84982538Y-112322509D01*
X84982538Y-112613420D01*
X84932773Y-112636095D01*
X84893576Y-112652667D01*
X84874157Y-112658769D01*
X84870442Y-112640610D01*
X84867495Y-112591648D01*
X84865691Y-112520153D01*
X84865308Y-112463385D01*
X84863661Y-112381371D01*
X84859222Y-112316309D01*
X84852740Y-112276467D01*
X84847590Y-112268000D01*
X84812977Y-112276646D01*
X84758640Y-112298823D01*
X84695722Y-112328886D01*
X84635368Y-112361192D01*
X84588721Y-112390098D01*
X84566926Y-112409961D01*
X84566839Y-112410175D01*
X84568714Y-112446935D01*
X84585525Y-112482026D01*
X84615039Y-112510528D01*
X84658116Y-112520061D01*
X84694932Y-112518950D01*
X84747074Y-112518133D01*
X84774444Y-112530349D01*
X84790882Y-112562624D01*
X84792955Y-112568710D01*
X84800081Y-112614739D01*
X84781024Y-112642687D01*
X84731353Y-112656007D01*
X84677697Y-112658470D01*
X84581142Y-112640210D01*
X84531159Y-112614131D01*
X84469429Y-112552868D01*
X84436690Y-112477670D01*
X84433753Y-112398211D01*
X84461424Y-112324167D01*
X84503047Y-112277769D01*
X84544604Y-112251793D01*
X84609922Y-112218907D01*
X84686038Y-112185557D01*
X84698726Y-112180461D01*
X84782333Y-112143565D01*
X84830530Y-112111046D01*
X84846030Y-112078718D01*
X84831550Y-112042394D01*
X84806692Y-112014000D01*
X84747939Y-111979039D01*
X84683293Y-111976417D01*
X84624008Y-112003358D01*
X84581339Y-112057088D01*
X84575739Y-112070950D01*
X84543133Y-112121936D01*
X84495530Y-112159787D01*
X84435461Y-112190850D01*
X84435461Y-112102768D01*
X84438997Y-112048951D01*
X84454156Y-112006534D01*
X84487768Y-111961279D01*
X84520035Y-111926420D01*
X84570209Y-111877062D01*
X84609193Y-111850547D01*
X84651064Y-111839911D01*
X84698460Y-111838154D01*
X84802333Y-111853528D01*
G36*
X85485807Y-111856782D02*
X85509161Y-111866988D01*
X85564902Y-111911134D01*
X85612569Y-111974967D01*
X85642048Y-112043087D01*
X85646846Y-112076670D01*
X85630760Y-112123556D01*
X85595475Y-112148365D01*
X85557644Y-112163387D01*
X85540321Y-112166155D01*
X85531886Y-112146066D01*
X85515230Y-112102351D01*
X85507923Y-112082598D01*
X85466948Y-112014271D01*
X85407622Y-111980191D01*
X85331552Y-111981239D01*
X85325918Y-111982581D01*
X85285305Y-112001836D01*
X85255448Y-112039375D01*
X85235055Y-112099809D01*
X85222836Y-112187751D01*
X85217500Y-112307813D01*
X85217000Y-112371698D01*
X85216752Y-112472403D01*
X85215126Y-112541054D01*
X85210801Y-112584673D01*
X85202454Y-112610282D01*
X85188765Y-112624903D01*
X85168411Y-112635558D01*
X85167234Y-112636095D01*
X85128038Y-112652667D01*
X85108619Y-112658769D01*
X85105635Y-112640319D01*
X85103081Y-112589323D01*
X85101140Y-112512308D01*
X85099997Y-112415805D01*
X85099769Y-112345184D01*
X85100932Y-112208525D01*
X85105479Y-112104851D01*
X85114999Y-112028108D01*
X85131081Y-111972246D01*
X85155313Y-111931212D01*
X85189286Y-111898954D01*
X85222833Y-111876440D01*
X85303499Y-111846476D01*
X85397381Y-111839718D01*
X85485807Y-111856782D01*
X85485807Y-111856782D01*
G37*
X85485807Y-111856782D02*
X85509161Y-111866988D01*
X85564902Y-111911134D01*
X85612569Y-111974967D01*
X85642048Y-112043087D01*
X85646846Y-112076670D01*
X85630760Y-112123556D01*
X85595475Y-112148365D01*
X85557644Y-112163387D01*
X85540321Y-112166155D01*
X85531886Y-112146066D01*
X85515230Y-112102351D01*
X85507923Y-112082598D01*
X85466948Y-112014271D01*
X85407622Y-111980191D01*
X85331552Y-111981239D01*
X85325918Y-111982581D01*
X85285305Y-112001836D01*
X85255448Y-112039375D01*
X85235055Y-112099809D01*
X85222836Y-112187751D01*
X85217500Y-112307813D01*
X85217000Y-112371698D01*
X85216752Y-112472403D01*
X85215126Y-112541054D01*
X85210801Y-112584673D01*
X85202454Y-112610282D01*
X85188765Y-112624903D01*
X85168411Y-112635558D01*
X85167234Y-112636095D01*
X85128038Y-112652667D01*
X85108619Y-112658769D01*
X85105635Y-112640319D01*
X85103081Y-112589323D01*
X85101140Y-112512308D01*
X85099997Y-112415805D01*
X85099769Y-112345184D01*
X85100932Y-112208525D01*
X85105479Y-112104851D01*
X85114999Y-112028108D01*
X85131081Y-111972246D01*
X85155313Y-111931212D01*
X85189286Y-111898954D01*
X85222833Y-111876440D01*
X85303499Y-111846476D01*
X85397381Y-111839718D01*
X85485807Y-111856782D01*
G36*
X86160224Y-111867838D02*
X86237528Y-111918361D01*
X86274814Y-111963590D01*
X86304353Y-112045663D01*
X86306699Y-112110607D01*
X86301385Y-112197445D01*
X86101115Y-112285103D01*
X86003739Y-112329887D01*
X85940113Y-112365913D01*
X85907029Y-112397117D01*
X85901280Y-112427436D01*
X85919658Y-112460805D01*
X85939923Y-112482923D01*
X85998889Y-112518393D01*
X86063024Y-112520879D01*
X86121926Y-112493235D01*
X86165197Y-112438320D01*
X86172936Y-112418928D01*
X86210006Y-112358364D01*
X86252654Y-112332552D01*
X86311154Y-112310471D01*
X86311154Y-112394184D01*
X86305982Y-112451150D01*
X86285723Y-112499189D01*
X86243262Y-112554346D01*
X86236951Y-112561514D01*
X86189720Y-112610585D01*
X86149121Y-112636920D01*
X86098328Y-112649035D01*
X86056220Y-112653003D01*
X85980902Y-112653991D01*
X85927286Y-112641466D01*
X85893838Y-112622869D01*
X85841268Y-112581975D01*
X85804879Y-112537748D01*
X85781850Y-112482126D01*
X85769359Y-112407047D01*
X85764587Y-112304449D01*
X85764206Y-112252376D01*
X85765501Y-112189948D01*
X85883471Y-112189948D01*
X85884839Y-112223438D01*
X85888249Y-112228923D01*
X85910753Y-112221472D01*
X85959182Y-112201753D01*
X86023908Y-112173718D01*
X86037443Y-112167692D01*
X86119244Y-112126096D01*
X86164312Y-112089538D01*
X86174217Y-112055296D01*
X86150526Y-112020648D01*
X86130960Y-112005339D01*
X86060360Y-111974721D01*
X85994280Y-111979780D01*
X85938959Y-112017151D01*
X85900636Y-112083473D01*
X85888349Y-112136116D01*
X85883471Y-112189948D01*
X85765501Y-112189948D01*
X85766730Y-112130720D01*
X85776032Y-112040710D01*
X85794460Y-111975167D01*
X85824360Y-111926912D01*
X85868080Y-111888767D01*
X85887141Y-111876440D01*
X85973726Y-111844336D01*
X86068522Y-111842316D01*
X86160224Y-111867838D01*
X86160224Y-111867838D01*
G37*
X86160224Y-111867838D02*
X86237528Y-111918361D01*
X86274814Y-111963590D01*
X86304353Y-112045663D01*
X86306699Y-112110607D01*
X86301385Y-112197445D01*
X86101115Y-112285103D01*
X86003739Y-112329887D01*
X85940113Y-112365913D01*
X85907029Y-112397117D01*
X85901280Y-112427436D01*
X85919658Y-112460805D01*
X85939923Y-112482923D01*
X85998889Y-112518393D01*
X86063024Y-112520879D01*
X86121926Y-112493235D01*
X86165197Y-112438320D01*
X86172936Y-112418928D01*
X86210006Y-112358364D01*
X86252654Y-112332552D01*
X86311154Y-112310471D01*
X86311154Y-112394184D01*
X86305982Y-112451150D01*
X86285723Y-112499189D01*
X86243262Y-112554346D01*
X86236951Y-112561514D01*
X86189720Y-112610585D01*
X86149121Y-112636920D01*
X86098328Y-112649035D01*
X86056220Y-112653003D01*
X85980902Y-112653991D01*
X85927286Y-112641466D01*
X85893838Y-112622869D01*
X85841268Y-112581975D01*
X85804879Y-112537748D01*
X85781850Y-112482126D01*
X85769359Y-112407047D01*
X85764587Y-112304449D01*
X85764206Y-112252376D01*
X85765501Y-112189948D01*
X85883471Y-112189948D01*
X85884839Y-112223438D01*
X85888249Y-112228923D01*
X85910753Y-112221472D01*
X85959182Y-112201753D01*
X86023908Y-112173718D01*
X86037443Y-112167692D01*
X86119244Y-112126096D01*
X86164312Y-112089538D01*
X86174217Y-112055296D01*
X86150526Y-112020648D01*
X86130960Y-112005339D01*
X86060360Y-111974721D01*
X85994280Y-111979780D01*
X85938959Y-112017151D01*
X85900636Y-112083473D01*
X85888349Y-112136116D01*
X85883471Y-112189948D01*
X85765501Y-112189948D01*
X85766730Y-112130720D01*
X85776032Y-112040710D01*
X85794460Y-111975167D01*
X85824360Y-111926912D01*
X85868080Y-111888767D01*
X85887141Y-111876440D01*
X85973726Y-111844336D01*
X86068522Y-111842316D01*
X86160224Y-111867838D01*
G36*
X82054878Y-105507776D02*
X82160612Y-105508355D01*
X82237132Y-105509922D01*
X82289372Y-105512972D01*
X82322263Y-105517996D01*
X82340737Y-105525489D01*
X82349727Y-105535944D01*
X82354163Y-105549853D01*
X82354594Y-105551654D01*
X82361333Y-105584145D01*
X82373808Y-105648252D01*
X82390719Y-105737151D01*
X82410771Y-105844019D01*
X82432664Y-105962033D01*
X82433429Y-105966178D01*
X82455359Y-106081831D01*
X82475877Y-106184014D01*
X82493659Y-106266598D01*
X82507381Y-106323456D01*
X82515718Y-106348458D01*
X82516116Y-106348901D01*
X82540677Y-106361110D01*
X82591315Y-106381456D01*
X82657095Y-106405545D01*
X82657461Y-106405674D01*
X82740317Y-106436818D01*
X82838000Y-106476491D01*
X82930077Y-106516381D01*
X82934434Y-106518353D01*
X83084407Y-106586420D01*
X83416498Y-106359639D01*
X83518374Y-106290504D01*
X83610657Y-106228697D01*
X83688003Y-106177733D01*
X83745064Y-106141127D01*
X83776495Y-106122394D01*
X83779479Y-106121004D01*
X83802321Y-106127190D01*
X83844982Y-106157035D01*
X83909128Y-106211947D01*
X83996421Y-106293334D01*
X84085535Y-106379922D01*
X84171441Y-106465247D01*
X84248327Y-106543108D01*
X84311564Y-106608697D01*
X84356523Y-106657205D01*
X84378576Y-106683825D01*
X84379396Y-106685195D01*
X84381834Y-106703463D01*
X84372650Y-106733295D01*
X84349574Y-106778721D01*
X84310337Y-106843770D01*
X84252670Y-106932470D01*
X84175795Y-107046657D01*
X84107570Y-107147162D01*
X84046582Y-107237303D01*
X83996356Y-107311849D01*
X83960416Y-107365565D01*
X83942287Y-107393218D01*
X83941146Y-107395095D01*
X83943359Y-107421590D01*
X83960138Y-107473086D01*
X83988142Y-107539851D01*
X83998122Y-107561172D01*
X84041672Y-107656159D01*
X84088134Y-107763937D01*
X84125877Y-107857192D01*
X84153073Y-107926406D01*
X84174675Y-107979006D01*
X84187158Y-108006497D01*
X84188709Y-108008616D01*
X84211668Y-108012124D01*
X84265786Y-108021738D01*
X84343868Y-108036089D01*
X84438719Y-108053807D01*
X84543143Y-108073525D01*
X84649944Y-108093874D01*
X84751926Y-108113486D01*
X84841894Y-108130991D01*
X84912653Y-108145022D01*
X84957006Y-108154209D01*
X84967885Y-108156807D01*
X84979122Y-108163218D01*
X84987605Y-108177697D01*
X84993714Y-108205133D01*
X84997832Y-108250411D01*
X85000341Y-108318420D01*
X85001621Y-108414047D01*
X85002054Y-108542180D01*
X85002077Y-108594701D01*
X85002077Y-109021845D01*
X84899500Y-109042091D01*
X84842431Y-109053070D01*
X84757269Y-109069095D01*
X84654372Y-109088233D01*
X84544096Y-109108551D01*
X84513615Y-109114132D01*
X84411855Y-109133917D01*
X84323205Y-109153373D01*
X84255108Y-109170697D01*
X84215004Y-109184088D01*
X84208323Y-109188079D01*
X84191919Y-109216342D01*
X84168399Y-109271109D01*
X84142316Y-109341588D01*
X84137142Y-109356769D01*
X84102956Y-109450896D01*
X84060523Y-109557101D01*
X84018997Y-109652473D01*
X84018792Y-109652916D01*
X83949640Y-109802525D01*
X84404512Y-110471617D01*
X84112500Y-110764116D01*
X84024180Y-110851170D01*
X83943625Y-110927909D01*
X83875360Y-110990237D01*
X83823908Y-111034056D01*
X83793794Y-111055270D01*
X83789474Y-111056616D01*
X83764111Y-111046016D01*
X83712358Y-111016547D01*
X83639868Y-110971705D01*
X83552294Y-110914984D01*
X83457612Y-110851462D01*
X83361516Y-110786668D01*
X83275837Y-110730287D01*
X83206016Y-110685788D01*
X83157494Y-110656639D01*
X83135782Y-110646308D01*
X83109293Y-110655050D01*
X83059062Y-110678087D01*
X82995451Y-110710631D01*
X82988708Y-110714249D01*
X82903046Y-110757210D01*
X82844306Y-110778279D01*
X82807772Y-110778503D01*
X82788731Y-110758928D01*
X82788620Y-110758654D01*
X82779102Y-110735472D01*
X82756403Y-110680441D01*
X82722282Y-110597822D01*
X82678500Y-110491872D01*
X82626816Y-110366852D01*
X82568992Y-110227020D01*
X82512991Y-110091637D01*
X82451447Y-109942234D01*
X82394939Y-109803832D01*
X82345161Y-109680673D01*
X82303806Y-109577002D01*
X82272568Y-109497059D01*
X82253141Y-109445088D01*
X82247154Y-109425692D01*
X82262168Y-109403443D01*
X82301439Y-109367982D01*
X82353807Y-109328887D01*
X82502941Y-109205245D01*
X82619511Y-109063522D01*
X82702118Y-108906704D01*
X82749366Y-108737775D01*
X82759857Y-108559722D01*
X82752231Y-108477539D01*
X82710682Y-108307031D01*
X82639123Y-108156459D01*
X82541995Y-108027309D01*
X82423734Y-107921064D01*
X82288780Y-107839210D01*
X82141571Y-107783232D01*
X81986544Y-107754615D01*
X81828139Y-107754844D01*
X81670794Y-107785405D01*
X81518946Y-107847782D01*
X81377035Y-107943460D01*
X81317803Y-107997572D01*
X81204203Y-108136520D01*
X81125106Y-108288361D01*
X81079986Y-108448667D01*
X81068316Y-108613012D01*
X81089569Y-108776971D01*
X81143220Y-108936118D01*
X81228740Y-109086025D01*
X81345605Y-109222267D01*
X81476193Y-109328887D01*
X81530588Y-109369642D01*
X81569014Y-109404718D01*
X81582846Y-109425726D01*
X81575603Y-109448635D01*
X81555005Y-109503365D01*
X81522746Y-109585672D01*
X81480521Y-109691315D01*
X81430023Y-109816050D01*
X81372948Y-109955636D01*
X81316854Y-110091670D01*
X81254967Y-110241201D01*
X81197644Y-110379767D01*
X81146644Y-110503107D01*
X81103727Y-110606964D01*
X81070653Y-110687080D01*
X81049181Y-110739195D01*
X81041225Y-110758654D01*
X81022429Y-110778423D01*
X80986074Y-110778365D01*
X80927479Y-110757441D01*
X80841968Y-110714613D01*
X80841292Y-110714249D01*
X80776907Y-110681012D01*
X80724861Y-110656802D01*
X80695512Y-110646404D01*
X80694217Y-110646308D01*
X80672124Y-110656855D01*
X80623348Y-110686184D01*
X80553331Y-110730827D01*
X80467514Y-110787314D01*
X80372388Y-110851462D01*
X80275540Y-110916411D01*
X80188253Y-110972896D01*
X80116181Y-111017421D01*
X80064977Y-111046490D01*
X80040526Y-111056616D01*
X80018010Y-111043307D01*
X79972742Y-111006112D01*
X79909244Y-110949128D01*
X79832039Y-110876449D01*
X79745651Y-110792171D01*
X79717399Y-110764016D01*
X79425287Y-110471416D01*
X79647631Y-110145104D01*
X79715202Y-110044897D01*
X79774507Y-109954963D01*
X79822217Y-109880510D01*
X79855007Y-109826751D01*
X79869548Y-109798894D01*
X79869974Y-109796912D01*
X79862308Y-109770655D01*
X79841689Y-109717837D01*
X79811685Y-109647310D01*
X79790625Y-109600093D01*
X79751248Y-109509694D01*
X79714165Y-109418366D01*
X79685415Y-109341200D01*
X79677605Y-109317692D01*
X79655417Y-109254916D01*
X79633727Y-109206411D01*
X79621813Y-109188079D01*
X79595523Y-109176859D01*
X79538142Y-109160954D01*
X79457118Y-109142167D01*
X79359895Y-109122299D01*
X79316385Y-109114132D01*
X79205896Y-109093829D01*
X79099916Y-109074170D01*
X79008801Y-109057088D01*
X78942908Y-109044518D01*
X78930500Y-109042091D01*
X78827923Y-109021845D01*
X78827923Y-108594701D01*
X78828153Y-108454246D01*
X78829099Y-108347979D01*
X78831141Y-108271013D01*
X78834662Y-108218460D01*
X78840043Y-108185433D01*
X78847666Y-108167045D01*
X78857912Y-108158408D01*
X78862115Y-108156807D01*
X78887470Y-108151127D01*
X78943484Y-108139795D01*
X79022964Y-108124179D01*
X79118712Y-108105647D01*
X79223533Y-108085569D01*
X79330232Y-108065312D01*
X79431613Y-108046246D01*
X79520479Y-108029739D01*
X79589637Y-108017159D01*
X79631889Y-108009875D01*
X79641290Y-108008616D01*
X79649807Y-107991763D01*
X79668660Y-107946870D01*
X79694324Y-107882430D01*
X79704123Y-107857192D01*
X79743648Y-107759686D01*
X79790192Y-107651959D01*
X79831877Y-107561172D01*
X79862550Y-107491753D01*
X79882956Y-107434710D01*
X79889768Y-107399777D01*
X79888682Y-107395095D01*
X79874285Y-107372991D01*
X79841412Y-107323831D01*
X79793590Y-107252848D01*
X79734348Y-107165278D01*
X79667215Y-107066357D01*
X79653941Y-107046830D01*
X79576046Y-106931140D01*
X79518787Y-106843044D01*
X79479881Y-106778486D01*
X79457044Y-106733411D01*
X79447994Y-106703763D01*
X79450448Y-106685485D01*
X79450511Y-106685369D01*
X79469827Y-106661361D01*
X79512551Y-106614947D01*
X79574051Y-106550937D01*
X79649698Y-106474145D01*
X79734861Y-106389382D01*
X79744465Y-106379922D01*
X79851790Y-106275989D01*
X79934615Y-106199675D01*
X79994605Y-106149571D01*
X80033423Y-106124270D01*
X80050520Y-106121004D01*
X80075473Y-106135250D01*
X80127255Y-106168156D01*
X80200520Y-106216208D01*
X80289920Y-106275890D01*
X80390111Y-106343688D01*
X80413501Y-106359639D01*
X80745593Y-106586420D01*
X80895565Y-106518353D01*
X80986770Y-106478685D01*
X81084669Y-106438791D01*
X81168831Y-106406983D01*
X81172538Y-106405674D01*
X81238369Y-106381576D01*
X81289116Y-106361200D01*
X81313842Y-106348936D01*
X81313884Y-106348901D01*
X81321729Y-106326734D01*
X81335066Y-106272217D01*
X81352570Y-106191480D01*
X81372917Y-106090650D01*
X81394782Y-105975856D01*
X81396571Y-105966178D01*
X81418504Y-105847904D01*
X81438640Y-105740542D01*
X81455680Y-105650917D01*
X81468328Y-105585851D01*
X81475284Y-105552168D01*
X81475406Y-105551654D01*
X81479639Y-105537325D01*
X81487871Y-105526507D01*
X81505033Y-105518706D01*
X81536058Y-105513429D01*
X81585878Y-105510182D01*
X81659424Y-105508472D01*
X81761629Y-105507807D01*
X81897425Y-105507693D01*
X81915000Y-105507692D01*
X82054878Y-105507776D01*
X82054878Y-105507776D01*
G37*
X82054878Y-105507776D02*
X82160612Y-105508355D01*
X82237132Y-105509922D01*
X82289372Y-105512972D01*
X82322263Y-105517996D01*
X82340737Y-105525489D01*
X82349727Y-105535944D01*
X82354163Y-105549853D01*
X82354594Y-105551654D01*
X82361333Y-105584145D01*
X82373808Y-105648252D01*
X82390719Y-105737151D01*
X82410771Y-105844019D01*
X82432664Y-105962033D01*
X82433429Y-105966178D01*
X82455359Y-106081831D01*
X82475877Y-106184014D01*
X82493659Y-106266598D01*
X82507381Y-106323456D01*
X82515718Y-106348458D01*
X82516116Y-106348901D01*
X82540677Y-106361110D01*
X82591315Y-106381456D01*
X82657095Y-106405545D01*
X82657461Y-106405674D01*
X82740317Y-106436818D01*
X82838000Y-106476491D01*
X82930077Y-106516381D01*
X82934434Y-106518353D01*
X83084407Y-106586420D01*
X83416498Y-106359639D01*
X83518374Y-106290504D01*
X83610657Y-106228697D01*
X83688003Y-106177733D01*
X83745064Y-106141127D01*
X83776495Y-106122394D01*
X83779479Y-106121004D01*
X83802321Y-106127190D01*
X83844982Y-106157035D01*
X83909128Y-106211947D01*
X83996421Y-106293334D01*
X84085535Y-106379922D01*
X84171441Y-106465247D01*
X84248327Y-106543108D01*
X84311564Y-106608697D01*
X84356523Y-106657205D01*
X84378576Y-106683825D01*
X84379396Y-106685195D01*
X84381834Y-106703463D01*
X84372650Y-106733295D01*
X84349574Y-106778721D01*
X84310337Y-106843770D01*
X84252670Y-106932470D01*
X84175795Y-107046657D01*
X84107570Y-107147162D01*
X84046582Y-107237303D01*
X83996356Y-107311849D01*
X83960416Y-107365565D01*
X83942287Y-107393218D01*
X83941146Y-107395095D01*
X83943359Y-107421590D01*
X83960138Y-107473086D01*
X83988142Y-107539851D01*
X83998122Y-107561172D01*
X84041672Y-107656159D01*
X84088134Y-107763937D01*
X84125877Y-107857192D01*
X84153073Y-107926406D01*
X84174675Y-107979006D01*
X84187158Y-108006497D01*
X84188709Y-108008616D01*
X84211668Y-108012124D01*
X84265786Y-108021738D01*
X84343868Y-108036089D01*
X84438719Y-108053807D01*
X84543143Y-108073525D01*
X84649944Y-108093874D01*
X84751926Y-108113486D01*
X84841894Y-108130991D01*
X84912653Y-108145022D01*
X84957006Y-108154209D01*
X84967885Y-108156807D01*
X84979122Y-108163218D01*
X84987605Y-108177697D01*
X84993714Y-108205133D01*
X84997832Y-108250411D01*
X85000341Y-108318420D01*
X85001621Y-108414047D01*
X85002054Y-108542180D01*
X85002077Y-108594701D01*
X85002077Y-109021845D01*
X84899500Y-109042091D01*
X84842431Y-109053070D01*
X84757269Y-109069095D01*
X84654372Y-109088233D01*
X84544096Y-109108551D01*
X84513615Y-109114132D01*
X84411855Y-109133917D01*
X84323205Y-109153373D01*
X84255108Y-109170697D01*
X84215004Y-109184088D01*
X84208323Y-109188079D01*
X84191919Y-109216342D01*
X84168399Y-109271109D01*
X84142316Y-109341588D01*
X84137142Y-109356769D01*
X84102956Y-109450896D01*
X84060523Y-109557101D01*
X84018997Y-109652473D01*
X84018792Y-109652916D01*
X83949640Y-109802525D01*
X84404512Y-110471617D01*
X84112500Y-110764116D01*
X84024180Y-110851170D01*
X83943625Y-110927909D01*
X83875360Y-110990237D01*
X83823908Y-111034056D01*
X83793794Y-111055270D01*
X83789474Y-111056616D01*
X83764111Y-111046016D01*
X83712358Y-111016547D01*
X83639868Y-110971705D01*
X83552294Y-110914984D01*
X83457612Y-110851462D01*
X83361516Y-110786668D01*
X83275837Y-110730287D01*
X83206016Y-110685788D01*
X83157494Y-110656639D01*
X83135782Y-110646308D01*
X83109293Y-110655050D01*
X83059062Y-110678087D01*
X82995451Y-110710631D01*
X82988708Y-110714249D01*
X82903046Y-110757210D01*
X82844306Y-110778279D01*
X82807772Y-110778503D01*
X82788731Y-110758928D01*
X82788620Y-110758654D01*
X82779102Y-110735472D01*
X82756403Y-110680441D01*
X82722282Y-110597822D01*
X82678500Y-110491872D01*
X82626816Y-110366852D01*
X82568992Y-110227020D01*
X82512991Y-110091637D01*
X82451447Y-109942234D01*
X82394939Y-109803832D01*
X82345161Y-109680673D01*
X82303806Y-109577002D01*
X82272568Y-109497059D01*
X82253141Y-109445088D01*
X82247154Y-109425692D01*
X82262168Y-109403443D01*
X82301439Y-109367982D01*
X82353807Y-109328887D01*
X82502941Y-109205245D01*
X82619511Y-109063522D01*
X82702118Y-108906704D01*
X82749366Y-108737775D01*
X82759857Y-108559722D01*
X82752231Y-108477539D01*
X82710682Y-108307031D01*
X82639123Y-108156459D01*
X82541995Y-108027309D01*
X82423734Y-107921064D01*
X82288780Y-107839210D01*
X82141571Y-107783232D01*
X81986544Y-107754615D01*
X81828139Y-107754844D01*
X81670794Y-107785405D01*
X81518946Y-107847782D01*
X81377035Y-107943460D01*
X81317803Y-107997572D01*
X81204203Y-108136520D01*
X81125106Y-108288361D01*
X81079986Y-108448667D01*
X81068316Y-108613012D01*
X81089569Y-108776971D01*
X81143220Y-108936118D01*
X81228740Y-109086025D01*
X81345605Y-109222267D01*
X81476193Y-109328887D01*
X81530588Y-109369642D01*
X81569014Y-109404718D01*
X81582846Y-109425726D01*
X81575603Y-109448635D01*
X81555005Y-109503365D01*
X81522746Y-109585672D01*
X81480521Y-109691315D01*
X81430023Y-109816050D01*
X81372948Y-109955636D01*
X81316854Y-110091670D01*
X81254967Y-110241201D01*
X81197644Y-110379767D01*
X81146644Y-110503107D01*
X81103727Y-110606964D01*
X81070653Y-110687080D01*
X81049181Y-110739195D01*
X81041225Y-110758654D01*
X81022429Y-110778423D01*
X80986074Y-110778365D01*
X80927479Y-110757441D01*
X80841968Y-110714613D01*
X80841292Y-110714249D01*
X80776907Y-110681012D01*
X80724861Y-110656802D01*
X80695512Y-110646404D01*
X80694217Y-110646308D01*
X80672124Y-110656855D01*
X80623348Y-110686184D01*
X80553331Y-110730827D01*
X80467514Y-110787314D01*
X80372388Y-110851462D01*
X80275540Y-110916411D01*
X80188253Y-110972896D01*
X80116181Y-111017421D01*
X80064977Y-111046490D01*
X80040526Y-111056616D01*
X80018010Y-111043307D01*
X79972742Y-111006112D01*
X79909244Y-110949128D01*
X79832039Y-110876449D01*
X79745651Y-110792171D01*
X79717399Y-110764016D01*
X79425287Y-110471416D01*
X79647631Y-110145104D01*
X79715202Y-110044897D01*
X79774507Y-109954963D01*
X79822217Y-109880510D01*
X79855007Y-109826751D01*
X79869548Y-109798894D01*
X79869974Y-109796912D01*
X79862308Y-109770655D01*
X79841689Y-109717837D01*
X79811685Y-109647310D01*
X79790625Y-109600093D01*
X79751248Y-109509694D01*
X79714165Y-109418366D01*
X79685415Y-109341200D01*
X79677605Y-109317692D01*
X79655417Y-109254916D01*
X79633727Y-109206411D01*
X79621813Y-109188079D01*
X79595523Y-109176859D01*
X79538142Y-109160954D01*
X79457118Y-109142167D01*
X79359895Y-109122299D01*
X79316385Y-109114132D01*
X79205896Y-109093829D01*
X79099916Y-109074170D01*
X79008801Y-109057088D01*
X78942908Y-109044518D01*
X78930500Y-109042091D01*
X78827923Y-109021845D01*
X78827923Y-108594701D01*
X78828153Y-108454246D01*
X78829099Y-108347979D01*
X78831141Y-108271013D01*
X78834662Y-108218460D01*
X78840043Y-108185433D01*
X78847666Y-108167045D01*
X78857912Y-108158408D01*
X78862115Y-108156807D01*
X78887470Y-108151127D01*
X78943484Y-108139795D01*
X79022964Y-108124179D01*
X79118712Y-108105647D01*
X79223533Y-108085569D01*
X79330232Y-108065312D01*
X79431613Y-108046246D01*
X79520479Y-108029739D01*
X79589637Y-108017159D01*
X79631889Y-108009875D01*
X79641290Y-108008616D01*
X79649807Y-107991763D01*
X79668660Y-107946870D01*
X79694324Y-107882430D01*
X79704123Y-107857192D01*
X79743648Y-107759686D01*
X79790192Y-107651959D01*
X79831877Y-107561172D01*
X79862550Y-107491753D01*
X79882956Y-107434710D01*
X79889768Y-107399777D01*
X79888682Y-107395095D01*
X79874285Y-107372991D01*
X79841412Y-107323831D01*
X79793590Y-107252848D01*
X79734348Y-107165278D01*
X79667215Y-107066357D01*
X79653941Y-107046830D01*
X79576046Y-106931140D01*
X79518787Y-106843044D01*
X79479881Y-106778486D01*
X79457044Y-106733411D01*
X79447994Y-106703763D01*
X79450448Y-106685485D01*
X79450511Y-106685369D01*
X79469827Y-106661361D01*
X79512551Y-106614947D01*
X79574051Y-106550937D01*
X79649698Y-106474145D01*
X79734861Y-106389382D01*
X79744465Y-106379922D01*
X79851790Y-106275989D01*
X79934615Y-106199675D01*
X79994605Y-106149571D01*
X80033423Y-106124270D01*
X80050520Y-106121004D01*
X80075473Y-106135250D01*
X80127255Y-106168156D01*
X80200520Y-106216208D01*
X80289920Y-106275890D01*
X80390111Y-106343688D01*
X80413501Y-106359639D01*
X80745593Y-106586420D01*
X80895565Y-106518353D01*
X80986770Y-106478685D01*
X81084669Y-106438791D01*
X81168831Y-106406983D01*
X81172538Y-106405674D01*
X81238369Y-106381576D01*
X81289116Y-106361200D01*
X81313842Y-106348936D01*
X81313884Y-106348901D01*
X81321729Y-106326734D01*
X81335066Y-106272217D01*
X81352570Y-106191480D01*
X81372917Y-106090650D01*
X81394782Y-105975856D01*
X81396571Y-105966178D01*
X81418504Y-105847904D01*
X81438640Y-105740542D01*
X81455680Y-105650917D01*
X81468328Y-105585851D01*
X81475284Y-105552168D01*
X81475406Y-105551654D01*
X81479639Y-105537325D01*
X81487871Y-105526507D01*
X81505033Y-105518706D01*
X81536058Y-105513429D01*
X81585878Y-105510182D01*
X81659424Y-105508472D01*
X81761629Y-105507807D01*
X81897425Y-105507693D01*
X81915000Y-105507692D01*
X82054878Y-105507776D01*
D13*
X70485000Y-107255000D02*
X62805000Y-107255000D01*
X62805000Y-107255000D02*
X62805000Y-109915000D01*
X62805000Y-109915000D02*
X70485000Y-109915000D01*
X70485000Y-109915000D02*
X70485000Y-107255000D01*
X71755000Y-107255000D02*
X73085000Y-107255000D01*
X73085000Y-107255000D02*
X73085000Y-108585000D01*
D12*
X37242857Y-110055000D02*
X37814286Y-110055000D01*
X37128572Y-110397857D02*
X37528572Y-109197857D01*
X37928572Y-110397857D01*
X38957143Y-110397857D02*
X38271428Y-110397857D01*
X38614286Y-110397857D02*
X38614286Y-109197857D01*
X38500000Y-109369286D01*
X38385714Y-109483571D01*
X38271428Y-109540714D01*
X88357143Y-57214285D02*
X88404762Y-57261904D01*
X88452381Y-57404761D01*
X88452381Y-57499999D01*
X88404762Y-57642857D01*
X88309524Y-57738095D01*
X88214286Y-57785714D01*
X88023810Y-57833333D01*
X87880952Y-57833333D01*
X87690476Y-57785714D01*
X87595238Y-57738095D01*
X87500000Y-57642857D01*
X87452381Y-57499999D01*
X87452381Y-57404761D01*
X87500000Y-57261904D01*
X87547619Y-57214285D01*
X87452381Y-56595238D02*
X87452381Y-56404761D01*
X87500000Y-56309523D01*
X87595238Y-56214285D01*
X87785714Y-56166666D01*
X88119048Y-56166666D01*
X88309524Y-56214285D01*
X88404762Y-56309523D01*
X88452381Y-56404761D01*
X88452381Y-56595238D01*
X88404762Y-56690476D01*
X88309524Y-56785714D01*
X88119048Y-56833333D01*
X87785714Y-56833333D01*
X87595238Y-56785714D01*
X87500000Y-56690476D01*
X87452381Y-56595238D01*
X88452381Y-55738095D02*
X87452381Y-55738095D01*
X88452381Y-55166666D01*
X87452381Y-55166666D01*
X88452381Y-54166666D02*
X88452381Y-54738095D01*
X88452381Y-54452381D02*
X87452381Y-54452381D01*
X87595238Y-54547619D01*
X87690476Y-54642857D01*
X87738095Y-54738095D01*
X72261905Y-86087381D02*
X72261905Y-85087381D01*
X72642858Y-85087381D01*
X72738096Y-85135000D01*
X72785715Y-85182619D01*
X72833334Y-85277857D01*
X72833334Y-85420714D01*
X72785715Y-85515952D01*
X72738096Y-85563571D01*
X72642858Y-85611190D01*
X72261905Y-85611190D01*
X73309524Y-86087381D02*
X73500000Y-86087381D01*
X73595239Y-86039762D01*
X73642858Y-85992143D01*
X73738096Y-85849286D01*
X73785715Y-85658810D01*
X73785715Y-85277857D01*
X73738096Y-85182619D01*
X73690477Y-85135000D01*
X73595239Y-85087381D01*
X73404762Y-85087381D01*
X73309524Y-85135000D01*
X73261905Y-85182619D01*
X73214286Y-85277857D01*
X73214286Y-85515952D01*
X73261905Y-85611190D01*
X73309524Y-85658810D01*
X73404762Y-85706429D01*
X73595239Y-85706429D01*
X73690477Y-85658810D01*
X73738096Y-85611190D01*
X73785715Y-85515952D01*
X81811905Y-93797381D02*
X81811905Y-92797381D01*
X82050000Y-92797381D01*
X82192858Y-92845000D01*
X82288096Y-92940238D01*
X82335715Y-93035476D01*
X82383334Y-93225952D01*
X82383334Y-93368810D01*
X82335715Y-93559286D01*
X82288096Y-93654524D01*
X82192858Y-93749762D01*
X82050000Y-93797381D01*
X81811905Y-93797381D01*
X83335715Y-93797381D02*
X82764286Y-93797381D01*
X83050000Y-93797381D02*
X83050000Y-92797381D01*
X82954762Y-92940238D01*
X82859524Y-93035476D01*
X82764286Y-93083095D01*
X95452381Y-89738095D02*
X94452381Y-89738095D01*
X94452381Y-89357142D01*
X94500000Y-89261904D01*
X94547619Y-89214285D01*
X94642857Y-89166666D01*
X94785714Y-89166666D01*
X94880952Y-89214285D01*
X94928571Y-89261904D01*
X94976190Y-89357142D01*
X94976190Y-89738095D01*
X94452381Y-88833333D02*
X94452381Y-88166666D01*
X95452381Y-88595238D01*
X69261905Y-99912381D02*
X69261905Y-98912381D01*
X69642858Y-98912381D01*
X69738096Y-98960000D01*
X69785715Y-99007619D01*
X69833334Y-99102857D01*
X69833334Y-99245714D01*
X69785715Y-99340952D01*
X69738096Y-99388571D01*
X69642858Y-99436190D01*
X69261905Y-99436190D01*
X70785715Y-99912381D02*
X70214286Y-99912381D01*
X70500000Y-99912381D02*
X70500000Y-98912381D01*
X70404762Y-99055238D01*
X70309524Y-99150476D01*
X70214286Y-99198095D01*
X59261905Y-55452381D02*
X59261905Y-54452381D01*
X59642858Y-54452381D01*
X59738096Y-54500000D01*
X59785715Y-54547619D01*
X59833334Y-54642857D01*
X59833334Y-54785714D01*
X59785715Y-54880952D01*
X59738096Y-54928571D01*
X59642858Y-54976190D01*
X59261905Y-54976190D01*
X60214286Y-54547619D02*
X60261905Y-54500000D01*
X60357143Y-54452381D01*
X60595239Y-54452381D01*
X60690477Y-54500000D01*
X60738096Y-54547619D01*
X60785715Y-54642857D01*
X60785715Y-54738095D01*
X60738096Y-54880952D01*
X60166667Y-55452381D01*
X60785715Y-55452381D01*
X47521905Y-112212381D02*
X47521905Y-111212381D01*
X47902858Y-111212381D01*
X47998096Y-111260000D01*
X48045715Y-111307619D01*
X48093334Y-111402857D01*
X48093334Y-111545714D01*
X48045715Y-111640952D01*
X47998096Y-111688571D01*
X47902858Y-111736190D01*
X47521905Y-111736190D01*
X48426667Y-111212381D02*
X49045715Y-111212381D01*
X48712381Y-111593333D01*
X48855239Y-111593333D01*
X48950477Y-111640952D01*
X48998096Y-111688571D01*
X49045715Y-111783810D01*
X49045715Y-112021905D01*
X48998096Y-112117143D01*
X48950477Y-112164762D01*
X48855239Y-112212381D01*
X48569524Y-112212381D01*
X48474286Y-112164762D01*
X48426667Y-112117143D01*
X23391905Y-77497381D02*
X23391905Y-76497381D01*
X23772858Y-76497381D01*
X23868096Y-76545000D01*
X23915715Y-76592619D01*
X23963334Y-76687857D01*
X23963334Y-76830714D01*
X23915715Y-76925952D01*
X23868096Y-76973571D01*
X23772858Y-77021190D01*
X23391905Y-77021190D01*
X24868096Y-76497381D02*
X24391905Y-76497381D01*
X24344286Y-76973571D01*
X24391905Y-76925952D01*
X24487143Y-76878333D01*
X24725239Y-76878333D01*
X24820477Y-76925952D01*
X24868096Y-76973571D01*
X24915715Y-77068810D01*
X24915715Y-77306905D01*
X24868096Y-77402143D01*
X24820477Y-77449762D01*
X24725239Y-77497381D01*
X24487143Y-77497381D01*
X24391905Y-77449762D01*
X24344286Y-77402143D01*
X95452381Y-106738095D02*
X94452381Y-106738095D01*
X94452381Y-106357142D01*
X94500000Y-106261904D01*
X94547619Y-106214285D01*
X94642857Y-106166666D01*
X94785714Y-106166666D01*
X94880952Y-106214285D01*
X94928571Y-106261904D01*
X94976190Y-106357142D01*
X94976190Y-106738095D01*
X94452381Y-105309523D02*
X94452381Y-105500000D01*
X94500000Y-105595238D01*
X94547619Y-105642857D01*
X94690476Y-105738095D01*
X94880952Y-105785714D01*
X95261905Y-105785714D01*
X95357143Y-105738095D01*
X95404762Y-105690476D01*
X95452381Y-105595238D01*
X95452381Y-105404761D01*
X95404762Y-105309523D01*
X95357143Y-105261904D01*
X95261905Y-105214285D01*
X95023810Y-105214285D01*
X94928571Y-105261904D01*
X94880952Y-105309523D01*
X94833333Y-105404761D01*
X94833333Y-105595238D01*
X94880952Y-105690476D01*
X94928571Y-105738095D01*
X95023810Y-105785714D01*
X95452381Y-73738095D02*
X94452381Y-73738095D01*
X94452381Y-73357142D01*
X94500000Y-73261904D01*
X94547619Y-73214285D01*
X94642857Y-73166666D01*
X94785714Y-73166666D01*
X94880952Y-73214285D01*
X94928571Y-73261904D01*
X94976190Y-73357142D01*
X94976190Y-73738095D01*
X94880952Y-72595238D02*
X94833333Y-72690476D01*
X94785714Y-72738095D01*
X94690476Y-72785714D01*
X94642857Y-72785714D01*
X94547619Y-72738095D01*
X94500000Y-72690476D01*
X94452381Y-72595238D01*
X94452381Y-72404761D01*
X94500000Y-72309523D01*
X94547619Y-72261904D01*
X94642857Y-72214285D01*
X94690476Y-72214285D01*
X94785714Y-72261904D01*
X94833333Y-72309523D01*
X94880952Y-72404761D01*
X94880952Y-72595238D01*
X94928571Y-72690476D01*
X94976190Y-72738095D01*
X95071429Y-72785714D01*
X95261905Y-72785714D01*
X95357143Y-72738095D01*
X95404762Y-72690476D01*
X95452381Y-72595238D01*
X95452381Y-72404761D01*
X95404762Y-72309523D01*
X95357143Y-72261904D01*
X95261905Y-72214285D01*
X95071429Y-72214285D01*
X94976190Y-72261904D01*
X94928571Y-72309523D01*
X94880952Y-72404761D01*
X54030714Y-78012381D02*
X54030714Y-77012381D01*
X54411667Y-77012381D01*
X54506905Y-77060000D01*
X54554524Y-77107619D01*
X54602143Y-77202857D01*
X54602143Y-77345714D01*
X54554524Y-77440952D01*
X54506905Y-77488571D01*
X54411667Y-77536190D01*
X54030714Y-77536190D01*
X55554524Y-78012381D02*
X54983095Y-78012381D01*
X55268809Y-78012381D02*
X55268809Y-77012381D01*
X55173571Y-77155238D01*
X55078333Y-77250476D01*
X54983095Y-77298095D01*
X56173571Y-77012381D02*
X56268810Y-77012381D01*
X56364048Y-77060000D01*
X56411667Y-77107619D01*
X56459286Y-77202857D01*
X56506905Y-77393333D01*
X56506905Y-77631429D01*
X56459286Y-77821905D01*
X56411667Y-77917143D01*
X56364048Y-77964762D01*
X56268810Y-78012381D01*
X56173571Y-78012381D01*
X56078333Y-77964762D01*
X56030714Y-77917143D01*
X55983095Y-77821905D01*
X55935476Y-77631429D01*
X55935476Y-77393333D01*
X55983095Y-77202857D01*
X56030714Y-77107619D01*
X56078333Y-77060000D01*
X56173571Y-77012381D01*
X36647381Y-104306666D02*
X36171190Y-104640000D01*
X36647381Y-104878095D02*
X35647381Y-104878095D01*
X35647381Y-104497142D01*
X35695000Y-104401904D01*
X35742619Y-104354285D01*
X35837857Y-104306666D01*
X35980714Y-104306666D01*
X36075952Y-104354285D01*
X36123571Y-104401904D01*
X36171190Y-104497142D01*
X36171190Y-104878095D01*
X36647381Y-103354285D02*
X36647381Y-103925714D01*
X36647381Y-103640000D02*
X35647381Y-103640000D01*
X35790238Y-103735238D01*
X35885476Y-103830476D01*
X35933095Y-103925714D01*
X43587381Y-104306666D02*
X43111190Y-104640000D01*
X43587381Y-104878095D02*
X42587381Y-104878095D01*
X42587381Y-104497142D01*
X42635000Y-104401904D01*
X42682619Y-104354285D01*
X42777857Y-104306666D01*
X42920714Y-104306666D01*
X43015952Y-104354285D01*
X43063571Y-104401904D01*
X43111190Y-104497142D01*
X43111190Y-104878095D01*
X42682619Y-103925714D02*
X42635000Y-103878095D01*
X42587381Y-103782857D01*
X42587381Y-103544761D01*
X42635000Y-103449523D01*
X42682619Y-103401904D01*
X42777857Y-103354285D01*
X42873095Y-103354285D01*
X43015952Y-103401904D01*
X43587381Y-103973333D01*
X43587381Y-103354285D01*
X82383334Y-102052381D02*
X82050000Y-101576190D01*
X81811905Y-102052381D02*
X81811905Y-101052381D01*
X82192858Y-101052381D01*
X82288096Y-101100000D01*
X82335715Y-101147619D01*
X82383334Y-101242857D01*
X82383334Y-101385714D01*
X82335715Y-101480952D01*
X82288096Y-101528571D01*
X82192858Y-101576190D01*
X81811905Y-101576190D01*
X82716667Y-101052381D02*
X83335715Y-101052381D01*
X83002381Y-101433333D01*
X83145239Y-101433333D01*
X83240477Y-101480952D01*
X83288096Y-101528571D01*
X83335715Y-101623810D01*
X83335715Y-101861905D01*
X83288096Y-101957143D01*
X83240477Y-102004762D01*
X83145239Y-102052381D01*
X82859524Y-102052381D01*
X82764286Y-102004762D01*
X82716667Y-101957143D01*
X82833334Y-91452381D02*
X82500000Y-90976190D01*
X82261905Y-91452381D02*
X82261905Y-90452381D01*
X82642858Y-90452381D01*
X82738096Y-90500000D01*
X82785715Y-90547619D01*
X82833334Y-90642857D01*
X82833334Y-90785714D01*
X82785715Y-90880952D01*
X82738096Y-90928571D01*
X82642858Y-90976190D01*
X82261905Y-90976190D01*
X83690477Y-90785714D02*
X83690477Y-91452381D01*
X83452381Y-90404762D02*
X83214286Y-91119048D01*
X83833334Y-91119048D01*
X82383334Y-77242381D02*
X82050000Y-76766190D01*
X81811905Y-77242381D02*
X81811905Y-76242381D01*
X82192858Y-76242381D01*
X82288096Y-76290000D01*
X82335715Y-76337619D01*
X82383334Y-76432857D01*
X82383334Y-76575714D01*
X82335715Y-76670952D01*
X82288096Y-76718571D01*
X82192858Y-76766190D01*
X81811905Y-76766190D01*
X83288096Y-76242381D02*
X82811905Y-76242381D01*
X82764286Y-76718571D01*
X82811905Y-76670952D01*
X82907143Y-76623333D01*
X83145239Y-76623333D01*
X83240477Y-76670952D01*
X83288096Y-76718571D01*
X83335715Y-76813810D01*
X83335715Y-77051905D01*
X83288096Y-77147143D01*
X83240477Y-77194762D01*
X83145239Y-77242381D01*
X82907143Y-77242381D01*
X82811905Y-77194762D01*
X82764286Y-77147143D01*
X43587381Y-93511666D02*
X43111190Y-93845000D01*
X43587381Y-94083095D02*
X42587381Y-94083095D01*
X42587381Y-93702142D01*
X42635000Y-93606904D01*
X42682619Y-93559285D01*
X42777857Y-93511666D01*
X42920714Y-93511666D01*
X43015952Y-93559285D01*
X43063571Y-93606904D01*
X43111190Y-93702142D01*
X43111190Y-94083095D01*
X42587381Y-92654523D02*
X42587381Y-92845000D01*
X42635000Y-92940238D01*
X42682619Y-92987857D01*
X42825476Y-93083095D01*
X43015952Y-93130714D01*
X43396905Y-93130714D01*
X43492143Y-93083095D01*
X43539762Y-93035476D01*
X43587381Y-92940238D01*
X43587381Y-92749761D01*
X43539762Y-92654523D01*
X43492143Y-92606904D01*
X43396905Y-92559285D01*
X43158810Y-92559285D01*
X43063571Y-92606904D01*
X43015952Y-92654523D01*
X42968333Y-92749761D01*
X42968333Y-92940238D01*
X43015952Y-93035476D01*
X43063571Y-93083095D01*
X43158810Y-93130714D01*
X36452381Y-93166666D02*
X35976190Y-93500000D01*
X36452381Y-93738095D02*
X35452381Y-93738095D01*
X35452381Y-93357142D01*
X35500000Y-93261904D01*
X35547619Y-93214285D01*
X35642857Y-93166666D01*
X35785714Y-93166666D01*
X35880952Y-93214285D01*
X35928571Y-93261904D01*
X35976190Y-93357142D01*
X35976190Y-93738095D01*
X35452381Y-92833333D02*
X35452381Y-92166666D01*
X36452381Y-92595238D01*
X71738095Y-55404762D02*
X71880952Y-55452381D01*
X72119048Y-55452381D01*
X72214286Y-55404762D01*
X72261905Y-55357143D01*
X72309524Y-55261905D01*
X72309524Y-55166667D01*
X72261905Y-55071429D01*
X72214286Y-55023810D01*
X72119048Y-54976190D01*
X71928571Y-54928571D01*
X71833333Y-54880952D01*
X71785714Y-54833333D01*
X71738095Y-54738095D01*
X71738095Y-54642857D01*
X71785714Y-54547619D01*
X71833333Y-54500000D01*
X71928571Y-54452381D01*
X72166667Y-54452381D01*
X72309524Y-54500000D01*
X72738095Y-55452381D02*
X72738095Y-54452381D01*
X73119048Y-54452381D01*
X73214286Y-54500000D01*
X73261905Y-54547619D01*
X73309524Y-54642857D01*
X73309524Y-54785714D01*
X73261905Y-54880952D01*
X73214286Y-54928571D01*
X73119048Y-54976190D01*
X72738095Y-54976190D01*
X74261905Y-55452381D02*
X73690476Y-55452381D01*
X73976190Y-55452381D02*
X73976190Y-54452381D01*
X73880952Y-54595238D01*
X73785714Y-54690476D01*
X73690476Y-54738095D01*
X62474048Y-57221429D02*
X63235953Y-57221429D01*
X62855001Y-57602381D02*
X62855001Y-56840476D01*
X64008095Y-97032381D02*
X64008095Y-97841905D01*
X64055714Y-97937143D01*
X64103333Y-97984762D01*
X64198571Y-98032381D01*
X64389048Y-98032381D01*
X64484286Y-97984762D01*
X64531905Y-97937143D01*
X64579524Y-97841905D01*
X64579524Y-97032381D01*
X65579524Y-98032381D02*
X65008095Y-98032381D01*
X65293809Y-98032381D02*
X65293809Y-97032381D01*
X65198571Y-97175238D01*
X65103333Y-97270476D01*
X65008095Y-97318095D01*
X82261905Y-87452381D02*
X82261905Y-86452381D01*
X82500000Y-86452381D01*
X82642858Y-86500000D01*
X82738096Y-86595238D01*
X82785715Y-86690476D01*
X82833334Y-86880952D01*
X82833334Y-87023810D01*
X82785715Y-87214286D01*
X82738096Y-87309524D01*
X82642858Y-87404762D01*
X82500000Y-87452381D01*
X82261905Y-87452381D01*
X83214286Y-86547619D02*
X83261905Y-86500000D01*
X83357143Y-86452381D01*
X83595239Y-86452381D01*
X83690477Y-86500000D01*
X83738096Y-86547619D01*
X83785715Y-86642857D01*
X83785715Y-86738095D01*
X83738096Y-86880952D01*
X83166667Y-87452381D01*
X83785715Y-87452381D01*
X81811905Y-73627381D02*
X81811905Y-72627381D01*
X82050000Y-72627381D01*
X82192858Y-72675000D01*
X82288096Y-72770238D01*
X82335715Y-72865476D01*
X82383334Y-73055952D01*
X82383334Y-73198810D01*
X82335715Y-73389286D01*
X82288096Y-73484524D01*
X82192858Y-73579762D01*
X82050000Y-73627381D01*
X81811905Y-73627381D01*
X82716667Y-72627381D02*
X83335715Y-72627381D01*
X83002381Y-73008333D01*
X83145239Y-73008333D01*
X83240477Y-73055952D01*
X83288096Y-73103571D01*
X83335715Y-73198810D01*
X83335715Y-73436905D01*
X83288096Y-73532143D01*
X83240477Y-73579762D01*
X83145239Y-73627381D01*
X82859524Y-73627381D01*
X82764286Y-73579762D01*
X82716667Y-73532143D01*
X40261905Y-60452381D02*
X40261905Y-59452381D01*
X40500000Y-59452381D01*
X40642858Y-59500000D01*
X40738096Y-59595238D01*
X40785715Y-59690476D01*
X40833334Y-59880952D01*
X40833334Y-60023810D01*
X40785715Y-60214286D01*
X40738096Y-60309524D01*
X40642858Y-60404762D01*
X40500000Y-60452381D01*
X40261905Y-60452381D01*
X41690477Y-59785714D02*
X41690477Y-60452381D01*
X41452381Y-59404762D02*
X41214286Y-60119048D01*
X41833334Y-60119048D01*
X34758334Y-59462381D02*
X34425000Y-58986190D01*
X34186905Y-59462381D02*
X34186905Y-58462381D01*
X34567858Y-58462381D01*
X34663096Y-58510000D01*
X34710715Y-58557619D01*
X34758334Y-58652857D01*
X34758334Y-58795714D01*
X34710715Y-58890952D01*
X34663096Y-58938571D01*
X34567858Y-58986190D01*
X34186905Y-58986190D01*
X35329762Y-58890952D02*
X35234524Y-58843333D01*
X35186905Y-58795714D01*
X35139286Y-58700476D01*
X35139286Y-58652857D01*
X35186905Y-58557619D01*
X35234524Y-58510000D01*
X35329762Y-58462381D01*
X35520239Y-58462381D01*
X35615477Y-58510000D01*
X35663096Y-58557619D01*
X35710715Y-58652857D01*
X35710715Y-58700476D01*
X35663096Y-58795714D01*
X35615477Y-58843333D01*
X35520239Y-58890952D01*
X35329762Y-58890952D01*
X35234524Y-58938571D01*
X35186905Y-58986190D01*
X35139286Y-59081429D01*
X35139286Y-59271905D01*
X35186905Y-59367143D01*
X35234524Y-59414762D01*
X35329762Y-59462381D01*
X35520239Y-59462381D01*
X35615477Y-59414762D01*
X35663096Y-59367143D01*
X35710715Y-59271905D01*
X35710715Y-59081429D01*
X35663096Y-58986190D01*
X35615477Y-58938571D01*
X35520239Y-58890952D01*
X74537381Y-109799286D02*
X73537381Y-109799286D01*
X73537381Y-109418333D01*
X73585000Y-109323095D01*
X73632619Y-109275476D01*
X73727857Y-109227857D01*
X73870714Y-109227857D01*
X73965952Y-109275476D01*
X74013571Y-109323095D01*
X74061190Y-109418333D01*
X74061190Y-109799286D01*
X74537381Y-108275476D02*
X74537381Y-108846905D01*
X74537381Y-108561191D02*
X73537381Y-108561191D01*
X73680238Y-108656429D01*
X73775476Y-108751667D01*
X73823095Y-108846905D01*
X74537381Y-107323095D02*
X74537381Y-107894524D01*
X74537381Y-107608810D02*
X73537381Y-107608810D01*
X73680238Y-107704048D01*
X73775476Y-107799286D01*
X73823095Y-107894524D01*
M02*
